Literata-M1Italic.ufo
<glyph name="numbersign" format="2">
	<unicode hex="0023"/>
	<advance width="739"/>
	<outline>
		<contour>
			<point x="166" y="0" type="line"/>
			<point x="226" y="0" type="line"/>
			<point x="253" y="139" type="line"/>
			<point x="450" y="139" type="line"/>
			<point x="423" y="0" type="line"/>
			<point x="480" y="0" type="line"/>
			<point x="507" y="139" type="line"/>
			<point x="649" y="139" type="line"/>
			<point x="660" y="191" type="line"/>
			<point x="518" y="191" type="line"/>
			<point x="552" y="366" type="line"/>
			<point x="687" y="366" type="line"/>
			<point x="699" y="419" type="line"/>
			<point x="562" y="419" type="line"/>
			<point x="589" y="550" type="line"/>
			<point x="530" y="550" type="line"/>
			<point x="505" y="419" type="line"/>
			<point x="309" y="419" type="line"/>
			<point x="336" y="550" type="line"/>
			<point x="277" y="550" type="line"/>
			<point x="250" y="419" type="line"/>
			<point x="116" y="419" type="line"/>
			<point x="102" y="366" type="line"/>
			<point x="238" y="366" type="line"/>
			<point x="204" y="191" type="line"/>
			<point x="73" y="191" type="line"/>
			<point x="59" y="139" type="line"/>
			<point x="193" y="139" type="line"/>
		</contour>
		<contour>
			<point x="297" y="366" type="line"/>
			<point x="495" y="366" type="line"/>
			<point x="460" y="191" type="line"/>
			<point x="263" y="191" type="line"/>
		</contour>
	</outline>
</glyph>
<glyph name="dollar" format="2">
	<unicode hex="0024"/>
	<advance width="560"/>
	<outline>
		<contour>
			<point x="254" y="-80" type="line"/>
			<point x="305" y="-80" type="line"/>
			<point x="307" y="-12" type="line"/>
			<point x="433" y="3"/>
			<point x="517" y="77"/>
			<point x="517" y="187" type="curve" smooth="yes"/>
			<point x="517" y="273"/>
			<point x="482" y="319"/>
			<point x="349" y="386" type="curve" smooth="yes"/>
			<point x="340" y="391"/>
			<point x="331" y="395"/>
			<point x="322" y="400" type="curve"/>
			<point x="330" y="653" type="line"/>
			<point x="398" y="650"/>
			<point x="431" y="619"/>
			<point x="409" y="579" type="curve" smooth="yes"/>
			<point x="389" y="542" type="line"/>
			<point x="406" y="528"/>
			<point x="429" y="515"/>
			<point x="459" y="515" type="curve" smooth="yes"/>
			<point x="499" y="515"/>
			<point x="522" y="544"/>
			<point x="522" y="582" type="curve" smooth="yes"/>
			<point x="522" y="655"/>
			<point x="439" y="713"/>
			<point x="332" y="715" type="curve"/>
			<point x="335" y="788" type="line"/>
			<point x="284" y="788" type="line"/>
			<point x="281" y="712" type="line"/>
			<point x="165" y="697"/>
			<point x="86" y="625"/>
			<point x="86" y="527" type="curve" smooth="yes"/>
			<point x="86" y="437"/>
			<point x="135" y="388"/>
			<point x="268" y="323" type="curve"/>
			<point x="258" y="49" type="line"/>
			<point x="186" y="52"/>
			<point x="152" y="83"/>
			<point x="175" y="128" type="curve" smooth="yes"/>
			<point x="192" y="161" type="line"/>
			<point x="175" y="177"/>
			<point x="153" y="190"/>
			<point x="127" y="190" type="curve" smooth="yes"/>
			<point x="83" y="190"/>
			<point x="55" y="158"/>
			<point x="55" y="115" type="curve" smooth="yes"/>
			<point x="55" y="41"/>
			<point x="140" y="-12"/>
			<point x="256" y="-14" type="curve"/>
		</contour>
		<contour>
			<point x="310" y="52" type="curve"/>
			<point x="318" y="298" type="line"/>
			<point x="408" y="251"/>
			<point x="434" y="216"/>
			<point x="434" y="171" type="curve" smooth="yes"/>
			<point x="434" y="105"/>
			<point x="386" y="63"/>
		</contour>
		<contour>
			<point x="272" y="427" type="line"/>
			<point x="188" y="475"/>
			<point x="170" y="502"/>
			<point x="170" y="551" type="curve" smooth="yes"/>
			<point x="170" y="605"/>
			<point x="211" y="641"/>
			<point x="279" y="650" type="curve"/>
		</contour>
	</outline>
</glyph>
<glyph name="ampersand" format="2">
	<unicode hex="0026"/>
	<advance width="802"/>
	<outline>
		<contour>
			<point x="335" y="-14" type="curve" smooth="yes"/>
			<point x="511" y="-14"/>
			<point x="630" y="71"/>
			<point x="638" y="203" type="curve" smooth="yes"/>
			<point x="640" y="244"/>
			<point x="629" y="279"/>
			<point x="599" y="321" type="curve"/>
			<point x="592" y="329" type="line"/>
			<point x="617" y="324"/>
			<point x="666" y="321"/>
			<point x="696" y="321" type="curve" smooth="yes"/>
			<point x="742" y="321"/>
			<point x="787" y="350"/>
			<point x="787" y="408" type="curve" smooth="yes"/>
			<point x="787" y="455"/>
			<point x="759" y="481"/>
			<point x="714" y="481" type="curve" smooth="yes"/>
			<point x="695" y="481"/>
			<point x="677" y="471"/>
			<point x="663" y="459" type="curve"/>
			<point x="674" y="420" type="line" smooth="yes"/>
			<point x="684" y="383"/>
			<point x="671" y="368"/>
			<point x="633" y="373" type="curve" smooth="yes"/>
			<point x="560" y="382" type="line"/>
			<point x="522" y="331" type="line"/>
			<point x="542" y="295"/>
			<point x="557" y="261"/>
			<point x="557" y="210" type="curve" smooth="yes"/>
			<point x="557" y="110"/>
			<point x="475" y="49"/>
			<point x="351" y="49" type="curve" smooth="yes"/>
			<point x="243" y="49"/>
			<point x="187" y="93"/>
			<point x="187" y="176" type="curve" smooth="yes"/>
			<point x="187" y="271"/>
			<point x="276" y="328"/>
			<point x="432" y="340" type="curve"/>
			<point x="424" y="403" type="line"/>
			<point x="394" y="399"/>
			<point x="376" y="397"/>
			<point x="356" y="397" type="curve" smooth="yes"/>
			<point x="257" y="398"/>
			<point x="205" y="429"/>
			<point x="205" y="512" type="curve" smooth="yes"/>
			<point x="205" y="593"/>
			<point x="282" y="652"/>
			<point x="396" y="652" type="curve" smooth="yes"/>
			<point x="459" y="652"/>
			<point x="498" y="635"/>
			<point x="480" y="582" type="curve" smooth="yes"/>
			<point x="468" y="547" type="line"/>
			<point x="481" y="532"/>
			<point x="504" y="523"/>
			<point x="530" y="523" type="curve" smooth="yes"/>
			<point x="571" y="523"/>
			<point x="600" y="550"/>
			<point x="600" y="593" type="curve" smooth="yes"/>
			<point x="600" y="666"/>
			<point x="520" y="715"/>
			<point x="413" y="715" type="curve" smooth="yes"/>
			<point x="231" y="715"/>
			<point x="105" y="623"/>
			<point x="105" y="500" type="curve" smooth="yes"/>
			<point x="105" y="417"/>
			<point x="157" y="369"/>
			<point x="257" y="359" type="curve"/>
			<point x="256" y="348" type="line"/>
			<point x="150" y="318"/>
			<point x="87" y="246"/>
			<point x="87" y="162" type="curve" smooth="yes"/>
			<point x="87" y="55"/>
			<point x="162" y="-14"/>
		</contour>
	</outline>
</glyph>
<glyph name="quotesingle" format="2">
	<unicode hex="0027"/>
	<advance width="269"/>
	<outline>
		<contour>
			<point x="184" y="539" type="line"/>
			<point x="219" y="709" type="line" smooth="yes"/>
			<point x="221" y="721"/>
			<point x="224" y="732"/>
			<point x="224" y="744" type="curve" smooth="yes"/>
			<point x="224" y="767"/>
			<point x="210" y="782"/>
			<point x="180" y="782" type="curve" smooth="yes"/>
			<point x="145" y="782"/>
			<point x="123" y="756"/>
			<point x="123" y="726" type="curve" smooth="yes"/>
			<point x="123" y="720"/>
			<point x="123" y="713"/>
			<point x="124" y="707" type="curve" smooth="yes"/>
			<point x="139" y="539" type="line"/>
		</contour>
	</outline>
</glyph>
<glyph name="parenleft" format="2">
	<unicode hex="0028"/>
	<advance width="370"/>
	<outline>
		<contour>
			<point x="100" y="279" type="curve" smooth="yes"/>
			<point x="100" y="66"/>
			<point x="201" y="-128"/>
			<point x="277" y="-213" type="curve"/>
			<point x="320" y="-189" type="line"/>
			<point x="260" y="-74"/>
			<point x="196" y="105"/>
			<point x="196" y="277" type="curve" smooth="yes"/>
			<point x="196" y="453"/>
			<point x="252" y="632"/>
			<point x="357" y="791" type="curve"/>
			<point x="314" y="815" type="line"/>
			<point x="171" y="659"/>
			<point x="100" y="469"/>
		</contour>
	</outline>
</glyph>
<glyph name="asterisk" format="2">
	<unicode hex="002A"/>
	<advance width="523"/>
	<outline>
		<contour>
			<point x="265" y="624" type="line"/>
			<point x="163" y="708" type="line"/>
			<point x="126" y="704"/>
			<point x="113" y="686"/>
			<point x="113" y="668" type="curve" smooth="yes"/>
			<point x="113" y="651"/>
			<point x="120" y="640"/>
			<point x="147" y="631" type="curve" smooth="yes"/>
			<point x="246" y="599" type="line"/>
			<point x="106" y="555" type="line"/>
			<point x="103" y="548"/>
			<point x="103" y="537"/>
			<point x="103" y="532" type="curve" smooth="yes"/>
			<point x="103" y="483"/>
			<point x="154" y="488"/>
			<point x="174" y="503" type="curve" smooth="yes"/>
			<point x="259" y="569" type="line"/>
			<point x="233" y="441" type="line"/>
			<point x="243" y="425"/>
			<point x="264" y="416"/>
			<point x="279" y="417" type="curve" smooth="yes"/>
			<point x="304" y="418"/>
			<point x="318" y="437"/>
			<point x="314" y="463" type="curve" smooth="yes"/>
			<point x="296" y="568" type="line"/>
			<point x="401" y="479" type="line"/>
			<point x="432" y="481"/>
			<point x="449" y="497"/>
			<point x="449" y="518" type="curve" smooth="yes"/>
			<point x="449" y="533"/>
			<point x="438" y="549"/>
			<point x="419" y="556" type="curve" smooth="yes"/>
			<point x="315" y="596" type="line"/>
			<point x="450" y="641" type="line"/>
			<point x="454" y="650"/>
			<point x="456" y="661"/>
			<point x="456" y="669" type="curve" smooth="yes"/>
			<point x="456" y="707"/>
			<point x="415" y="709"/>
			<point x="395" y="694" type="curve" smooth="yes"/>
			<point x="300" y="624" type="line"/>
			<point x="329" y="765" type="line"/>
			<point x="317" y="776"/>
			<point x="303" y="782"/>
			<point x="289" y="782" type="curve" smooth="yes"/>
			<point x="261" y="782"/>
			<point x="244" y="766"/>
			<point x="250" y="727" type="curve" smooth="yes"/>
		</contour>
	</outline>
</glyph>
<glyph name="plus" format="2">
	<unicode hex="002B"/>
	<advance width="620"/>
	<outline>
		<contour>
			<point x="272" y="83" type="line"/>
			<point x="349" y="83" type="line"/>
			<point x="356" y="271" type="line"/>
			<point x="530" y="271" type="line"/>
			<point x="533" y="344" type="line"/>
			<point x="359" y="344" type="line"/>
			<point x="365" y="521" type="line"/>
			<point x="288" y="521" type="line"/>
			<point x="282" y="344" type="line"/>
			<point x="110" y="344" type="line"/>
			<point x="107" y="271" type="line"/>
			<point x="279" y="271" type="line"/>
		</contour>
	</outline>
</glyph>
<glyph name="hyphen" format="2">
	<unicode hex="002D"/>
	<advance width="394"/>
	<outline>
		<contour>
			<point x="65" y="329" type="line"/>
			<point x="62" y="247" type="line"/>
			<point x="350" y="247" type="line"/>
			<point x="353" y="329" type="line"/>
		</contour>
	</outline>
</glyph>
<glyph name="zero" format="2">
	<unicode hex="0030"/>
	<advance width="652"/>
	<outline>
		<contour>
			<point x="72" y="309" type="curve" smooth="yes"/>
			<point x="72" y="107"/>
			<point x="163" y="-13"/>
			<point x="317" y="-13" type="curve" smooth="yes"/>
			<point x="489" y="-13"/>
			<point x="606" y="151"/>
			<point x="606" y="395" type="curve" smooth="yes"/>
			<point x="606" y="594"/>
			<point x="514" y="714"/>
			<point x="366" y="714" type="curve" smooth="yes"/>
			<point x="187" y="714"/>
			<point x="72" y="557"/>
		</contour>
		<contour>
			<point x="356" y="651" type="curve" smooth="yes"/>
			<point x="451" y="651"/>
			<point x="507" y="571"/>
			<point x="507" y="394" type="curve" smooth="yes"/>
			<point x="507" y="169"/>
			<point x="438" y="52"/>
			<point x="327" y="52" type="curve" smooth="yes"/>
			<point x="232" y="52"/>
			<point x="170" y="141"/>
			<point x="170" y="319" type="curve" smooth="yes"/>
			<point x="170" y="539"/>
			<point x="242" y="651"/>
		</contour>
	</outline>
</glyph>
<glyph name="two" format="2">
	<unicode hex="0032"/>
	<advance width="568"/>
	<outline>
		<contour>
			<point x="63" y="551" type="curve" smooth="yes"/>
			<point x="63" y="516"/>
			<point x="84" y="486"/>
			<point x="129" y="486" type="curve" smooth="yes"/>
			<point x="160" y="486"/>
			<point x="186" y="506"/>
			<point x="196" y="532" type="curve"/>
			<point x="173" y="556" type="line" smooth="yes"/>
			<point x="134" y="596"/>
			<point x="188" y="652"/>
			<point x="276" y="652" type="curve" smooth="yes"/>
			<point x="353" y="652"/>
			<point x="407" y="611"/>
			<point x="407" y="521" type="curve" smooth="yes"/>
			<point x="407" y="407"/>
			<point x="278" y="276"/>
			<point x="53" y="69" type="curve"/>
			<point x="62" y="0" type="line"/>
			<point x="509" y="0" type="line"/>
			<point x="537" y="192" type="line"/>
			<point x="477" y="192" type="line"/>
			<point x="444" y="85"/>
			<point x="415" y="73"/>
			<point x="336" y="73" type="curve" smooth="yes"/>
			<point x="148" y="73" type="line"/>
			<point x="148" y="78" type="line"/>
			<point x="432" y="332"/>
			<point x="506" y="410"/>
			<point x="506" y="530" type="curve" smooth="yes"/>
			<point x="506" y="648"/>
			<point x="419" y="715"/>
			<point x="286" y="715" type="curve" smooth="yes"/>
			<point x="166" y="715"/>
			<point x="63" y="641"/>
		</contour>
	</outline>
</glyph>
<glyph name="four" format="2">
	<unicode hex="0034"/>
	<advance width="601"/>
	<outline>
		<contour>
			<point x="456" y="242" type="line"/>
			<point x="473" y="701" type="line"/>
			<point x="461" y="710" type="line"/>
			<point x="372" y="695" type="line"/>
			<point x="29" y="224" type="line"/>
			<point x="37" y="172" type="line"/>
			<point x="365" y="172" type="line"/>
			<point x="360" y="59" type="line"/>
			<point x="214" y="46" type="line"/>
			<point x="208" y="0" type="line"/>
			<point x="539" y="0" type="line"/>
			<point x="544" y="46" type="line"/>
			<point x="449" y="59" type="line"/>
			<point x="453" y="172" type="line"/>
			<point x="568" y="172" type="line"/>
			<point x="574" y="242" type="line"/>
		</contour>
		<contour>
			<point x="368" y="242" type="line"/>
			<point x="115" y="242" type="line"/>
			<point x="385" y="610" type="line"/>
		</contour>
	</outline>
</glyph>
<glyph name="five" format="2">
	<unicode hex="0035"/>
	<advance width="574"/>
	<outline>
		<contour>
			<point x="440" y="244" type="curve" smooth="yes"/>
			<point x="440" y="125"/>
			<point x="357" y="49"/>
			<point x="234" y="49" type="curve" smooth="yes"/>
			<point x="159" y="49"/>
			<point x="128" y="80"/>
			<point x="152" y="119" type="curve" smooth="yes"/>
			<point x="169" y="146" type="line"/>
			<point x="158" y="167"/>
			<point x="138" y="182"/>
			<point x="111" y="182" type="curve" smooth="yes"/>
			<point x="66" y="182"/>
			<point x="39" y="149"/>
			<point x="39" y="108" type="curve" smooth="yes"/>
			<point x="39" y="37"/>
			<point x="116" y="-14"/>
			<point x="231" y="-14" type="curve" smooth="yes"/>
			<point x="415" y="-14"/>
			<point x="530" y="99"/>
			<point x="530" y="256" type="curve" smooth="yes"/>
			<point x="530" y="379"/>
			<point x="450" y="455"/>
			<point x="324" y="455" type="curve" smooth="yes"/>
			<point x="265" y="455"/>
			<point x="213" y="438"/>
			<point x="179" y="417" type="curve"/>
			<point x="200" y="616" type="line"/>
			<point x="497" y="616" type="line"/>
			<point x="511" y="700" type="line"/>
			<point x="158" y="700" type="line"/>
			<point x="141" y="686" type="line"/>
			<point x="112" y="386" type="line"/>
			<point x="151" y="351" type="line"/>
			<point x="204" y="375"/>
			<point x="248" y="385"/>
			<point x="288" y="385" type="curve" smooth="yes"/>
			<point x="383" y="385"/>
			<point x="440" y="340"/>
		</contour>
	</outline>
</glyph>
<glyph name="eight" format="2">
	<unicode hex="0038"/>
	<advance width="583"/>
	<outline>
		<contour>
			<point x="56" y="168" type="curve" smooth="yes"/>
			<point x="56" y="60"/>
			<point x="153" y="-14"/>
			<point x="290" y="-14" type="curve" smooth="yes"/>
			<point x="443" y="-14"/>
			<point x="547" y="75"/>
			<point x="547" y="195" type="curve" smooth="yes"/>
			<point x="547" y="282"/>
			<point x="510" y="330"/>
			<point x="401" y="383" type="curve"/>
			<point x="485" y="431"/>
			<point x="530" y="493"/>
			<point x="530" y="563" type="curve" smooth="yes"/>
			<point x="530" y="654"/>
			<point x="448" y="715"/>
			<point x="328" y="715" type="curve" smooth="yes"/>
			<point x="189" y="715"/>
			<point x="96" y="643"/>
			<point x="96" y="537" type="curve" smooth="yes"/>
			<point x="96" y="468"/>
			<point x="134" y="416"/>
			<point x="209" y="376" type="curve"/>
			<point x="99" y="327"/>
			<point x="56" y="253"/>
		</contour>
		<contour>
			<point x="271" y="346" type="curve"/>
			<point x="431" y="273"/>
			<point x="464" y="256"/>
			<point x="464" y="180" type="curve" smooth="yes"/>
			<point x="464" y="108"/>
			<point x="398" y="50"/>
			<point x="297" y="50" type="curve" smooth="yes"/>
			<point x="206" y="50"/>
			<point x="139" y="97"/>
			<point x="139" y="183" type="curve" smooth="yes"/>
			<point x="139" y="251"/>
			<point x="182" y="307"/>
		</contour>
		<contour>
			<point x="179" y="553" type="curve" smooth="yes"/>
			<point x="179" y="615"/>
			<point x="237" y="652"/>
			<point x="324" y="652" type="curve" smooth="yes"/>
			<point x="399" y="652"/>
			<point x="447" y="617"/>
			<point x="447" y="550" type="curve" smooth="yes"/>
			<point x="447" y="497"/>
			<point x="413" y="453"/>
			<point x="337" y="411" type="curve"/>
			<point x="221" y="459"/>
			<point x="179" y="492"/>
		</contour>
	</outline>
</glyph>
<glyph name="equal" format="2">
	<unicode hex="003D"/>
	<advance width="620"/>
	<outline>
		<contour>
			<point x="110" y="177" type="line"/>
			<point x="538" y="177" type="line"/>
			<point x="540" y="250" type="line"/>
			<point x="112" y="250" type="line"/>
		</contour>
		<contour>
			<point x="116" y="357" type="line"/>
			<point x="544" y="357" type="line"/>
			<point x="546" y="430" type="line"/>
			<point x="118" y="430" type="line"/>
		</contour>
	</outline>
</glyph>
<glyph name="B" format="2">
	<unicode hex="0042"/>
	<advance width="669"/>
	<outline>
		<contour>
			<point x="603" y="548" type="curve" smooth="yes"/>
			<point x="603" y="651"/>
			<point x="517" y="700"/>
			<point x="337" y="700" type="curve" smooth="yes"/>
			<point x="96" y="700" type="line"/>
			<point x="89" y="654" type="line"/>
			<point x="183" y="637" type="line"/>
			<point x="160" y="59" type="line"/>
			<point x="70" y="46" type="line"/>
			<point x="65" y="0" type="line"/>
			<point x="308" y="0" type="line" smooth="yes"/>
			<point x="513" y="0"/>
			<point x="635" y="76"/>
			<point x="635" y="204" type="curve" smooth="yes"/>
			<point x="635" y="297"/>
			<point x="570" y="356"/>
			<point x="436" y="369" type="curve"/>
			<point x="436" y="378" type="line"/>
			<point x="544" y="407"/>
			<point x="603" y="475"/>
		</contour>
		<contour>
			<point x="311" y="386" type="curve"/>
			<point x="309" y="324" type="line"/>
			<point x="331" y="327"/>
			<point x="351" y="329"/>
			<point x="375" y="329" type="curve" smooth="yes"/>
			<point x="480" y="329"/>
			<point x="535" y="291"/>
			<point x="535" y="207" type="curve" smooth="yes"/>
			<point x="535" y="106"/>
			<point x="463" y="57"/>
			<point x="322" y="57" type="curve" smooth="yes"/>
			<point x="250" y="57" type="line"/>
			<point x="271" y="643" type="line"/>
			<point x="329" y="643" type="line" smooth="yes"/>
			<point x="439" y="643"/>
			<point x="503" y="620"/>
			<point x="503" y="536" type="curve" smooth="yes"/>
			<point x="503" y="450"/>
			<point x="438" y="404"/>
		</contour>
	</outline>
</glyph>
<glyph name="D" format="2">
	<unicode hex="0044"/>
	<advance width="797"/>
	<outline>
		<contour>
			<point x="65" y="0" type="line"/>
			<point x="289" y="0" type="line" smooth="yes"/>
			<point x="577" y="0"/>
			<point x="746" y="143"/>
			<point x="746" y="390" type="curve" smooth="yes"/>
			<point x="746" y="587"/>
			<point x="612" y="700"/>
			<point x="380" y="700" type="curve" smooth="yes"/>
			<point x="95" y="700" type="line"/>
			<point x="88" y="654" type="line"/>
			<point x="182" y="637" type="line"/>
			<point x="159" y="59" type="line"/>
			<point x="70" y="45" type="line"/>
		</contour>
		<contour>
			<point x="249" y="58" type="line"/>
			<point x="270" y="645" type="line"/>
			<point x="371" y="645" type="line" smooth="yes"/>
			<point x="551" y="645"/>
			<point x="645" y="550"/>
			<point x="645" y="381" type="curve" smooth="yes"/>
			<point x="645" y="165"/>
			<point x="519" y="58"/>
			<point x="279" y="58" type="curve" smooth="yes"/>
		</contour>
	</outline>
	<anchor name="bottom" x="377" y="-30"/>
	<anchor name="top" x="389" y="730"/>
</glyph>
<glyph name="L" format="2">
	<unicode hex="004C"/>
	<advance width="638"/>
	<outline>
		<contour>
			<point x="71" y="46" type="line"/>
			<point x="65" y="0" type="line"/>
			<point x="570" y="0" type="line"/>
			<point x="595" y="184" type="line"/>
			<point x="537" y="184" type="line"/>
			<point x="522" y="143" type="line" smooth="yes"/>
			<point x="495" y="69"/>
			<point x="467" y="58"/>
			<point x="412" y="58" type="curve" smooth="yes"/>
			<point x="250" y="58" type="line"/>
			<point x="271" y="637" type="line"/>
			<point x="385" y="654" type="line"/>
			<point x="391" y="700" type="line"/>
			<point x="96" y="700" type="line"/>
			<point x="89" y="654" type="line"/>
			<point x="183" y="637" type="line"/>
			<point x="160" y="59" type="line"/>
		</contour>
	</outline>
	<anchor name="bottom" x="341" y="-30"/>
	<anchor name="top" x="233" y="730"/>
</glyph>
<glyph name="O" format="2">
	<unicode hex="004F"/>
	<advance width="783"/>
	<outline>
		<contour>
			<point x="71" y="331" type="curve" smooth="yes"/>
			<point x="71" y="120"/>
			<point x="197" y="-14"/>
			<point x="389" y="-14" type="curve" smooth="yes"/>
			<point x="595" y="-14"/>
			<point x="732" y="143"/>
			<point x="732" y="379" type="curve" smooth="yes"/>
			<point x="732" y="586"/>
			<point x="610" y="715"/>
			<point x="420" y="715" type="curve" smooth="yes"/>
			<point x="206" y="715"/>
			<point x="71" y="566"/>
		</contour>
		<contour>
			<point x="169" y="352" type="curve" smooth="yes"/>
			<point x="169" y="542"/>
			<point x="256" y="653"/>
			<point x="405" y="653" type="curve" smooth="yes"/>
			<point x="547" y="653"/>
			<point x="631" y="547"/>
			<point x="631" y="361" type="curve" smooth="yes"/>
			<point x="631" y="164"/>
			<point x="548" y="51"/>
			<point x="402" y="51" type="curve" smooth="yes"/>
			<point x="260" y="51"/>
			<point x="169" y="165"/>
		</contour>
	</outline>
	<anchor name="bottom" x="393" y="-30"/>
	<anchor name="top" x="411" y="730"/>
</glyph>
<glyph name="R" format="2">
	<unicode hex="0052"/>
	<advance width="726"/>
	<outline>
		<contour>
			<point x="311" y="370" type="curve"/>
			<point x="307" y="321" type="line"/>
			<point x="348" y="298"/>
			<point x="367" y="274"/>
			<point x="400" y="202" type="curve" smooth="yes"/>
			<point x="446" y="103" type="line" smooth="yes"/>
			<point x="484" y="21"/>
			<point x="536" y="-14"/>
			<point x="611" y="-14" type="curve" smooth="yes"/>
			<point x="651" y="-14"/>
			<point x="695" y="4"/>
			<point x="723" y="28" type="curve"/>
			<point x="700" y="69" type="line"/>
			<point x="678" y="57"/>
			<point x="656" y="50"/>
			<point x="631" y="50" type="curve" smooth="yes"/>
			<point x="584" y="50"/>
			<point x="563" y="75"/>
			<point x="531" y="139" type="curve" smooth="yes"/>
			<point x="486" y="229" type="line" smooth="yes"/>
			<point x="450" y="300"/>
			<point x="429" y="316"/>
			<point x="380" y="336" type="curve"/>
			<point x="380" y="342" type="line"/>
			<point x="509" y="356"/>
			<point x="602" y="435"/>
			<point x="602" y="531" type="curve" smooth="yes"/>
			<point x="602" y="662"/>
			<point x="494" y="700"/>
			<point x="335" y="700" type="curve" smooth="yes"/>
			<point x="96" y="700" type="line"/>
			<point x="89" y="654" type="line"/>
			<point x="183" y="637" type="line"/>
			<point x="160" y="59" type="line"/>
			<point x="70" y="46" type="line"/>
			<point x="65" y="0" type="line"/>
			<point x="363" y="0" type="line"/>
			<point x="368" y="44" type="line"/>
			<point x="250" y="58" type="line"/>
			<point x="271" y="643" type="line"/>
			<point x="329" y="643" type="line" smooth="yes"/>
			<point x="440" y="643"/>
			<point x="502" y="619"/>
			<point x="502" y="522" type="curve" smooth="yes"/>
			<point x="502" y="431"/>
			<point x="429" y="373"/>
		</contour>
	</outline>
	<anchor name="bottom" x="368" y="-31"/>
	<anchor name="top" x="346" y="730"/>
</glyph>
<glyph name="U" format="2">
	<unicode hex="0055"/>
	<advance width="799"/>
	<outline>
		<contour>
			<point x="654" y="60" type="line"/>
			<point x="685" y="637" type="line"/>
			<point x="764" y="654" type="line"/>
			<point x="770" y="700" type="line"/>
			<point x="523" y="700" type="line"/>
			<point x="517" y="654" type="line"/>
			<point x="608" y="637" type="line"/>
			<point x="598" y="570" type="line" smooth="yes"/>
			<point x="564" y="340"/>
			<point x="492" y="58"/>
			<point x="328" y="58" type="curve" smooth="yes"/>
			<point x="244" y="58"/>
			<point x="212" y="108"/>
			<point x="218" y="230" type="curve" smooth="yes"/>
			<point x="239" y="636" type="line"/>
			<point x="333" y="654" type="line"/>
			<point x="339" y="700" type="line"/>
			<point x="70" y="700" type="line"/>
			<point x="64" y="654" type="line"/>
			<point x="150" y="637" type="line"/>
			<point x="129" y="222" type="line" smooth="yes"/>
			<point x="121" y="67"/>
			<point x="186" y="-14"/>
			<point x="315" y="-14" type="curve" smooth="yes"/>
			<point x="455" y="-14"/>
			<point x="538" y="90"/>
			<point x="604" y="365" type="curve"/>
			<point x="614" y="365" type="line"/>
			<point x="571" y="12" type="line"/>
			<point x="579" y="0" type="line"/>
			<point x="741" y="0" type="line"/>
			<point x="747" y="47" type="line"/>
		</contour>
	</outline>
	<anchor name="bottom" x="380" y="-30"/>
	<anchor name="top" x="421" y="730"/>
</glyph>
<glyph name="W" format="2">
	<unicode hex="0057"/>
	<advance width="1061"/>
	<outline>
		<contour>
			<point x="749" y="86" type="line"/>
			<point x="568" y="701" type="line"/>
			<point x="476" y="685" type="line"/>
			<point x="532" y="503" type="line"/>
			<point x="354" y="86" type="line"/>
			<point x="346" y="86" type="line"/>
			<point x="213" y="644" type="line"/>
			<point x="306" y="654" type="line"/>
			<point x="313" y="700" type="line"/>
			<point x="36" y="700" type="line"/>
			<point x="29" y="654" type="line"/>
			<point x="113" y="642" type="line"/>
			<point x="284" y="-10" type="line"/>
			<point x="382" y="0" type="line"/>
			<point x="560" y="418" type="line"/>
			<point x="689" y="-10" type="line"/>
			<point x="790" y="0" type="line"/>
			<point x="998" y="642" type="line"/>
			<point x="1084" y="653" type="line"/>
			<point x="1091" y="700" type="line"/>
			<point x="841" y="700" type="line"/>
			<point x="835" y="657" type="line"/>
			<point x="929" y="642" type="line"/>
			<point x="757" y="86" type="line"/>
		</contour>
	</outline>
	<anchor name="top" x="566" y="730"/>
</glyph>
<glyph name="X" format="2">
	<unicode hex="0058"/>
	<advance width="738"/>
	<outline>
		<contour>
			<point x="23" y="0" type="line"/>
			<point x="272" y="0" type="line"/>
			<point x="278" y="44" type="line"/>
			<point x="190" y="61" type="line"/>
			<point x="369" y="297" type="line"/>
			<point x="531" y="59" type="line"/>
			<point x="451" y="47" type="line"/>
			<point x="445" y="0" type="line"/>
			<point x="726" y="0" type="line"/>
			<point x="733" y="47" type="line"/>
			<point x="640" y="62" type="line"/>
			<point x="427" y="367" type="line"/>
			<point x="635" y="635" type="line"/>
			<point x="719" y="652" type="line"/>
			<point x="726" y="700" type="line"/>
			<point x="477" y="700" type="line"/>
			<point x="471" y="656" type="line"/>
			<point x="560" y="638" type="line"/>
			<point x="391" y="413" type="line"/>
			<point x="242" y="641" type="line"/>
			<point x="324" y="653" type="line"/>
			<point x="330" y="700" type="line"/>
			<point x="58" y="700" type="line"/>
			<point x="50" y="653" type="line"/>
			<point x="126" y="639" type="line"/>
			<point x="332" y="344" type="line"/>
			<point x="113" y="64" type="line"/>
			<point x="30" y="48" type="line"/>
		</contour>
	</outline>
</glyph>
<glyph name="bracketleft" format="2">
	<unicode hex="005B"/>
	<advance width="371"/>
	<outline>
		<contour>
			<point x="202" y="-144" type="line"/>
			<point x="234" y="743" type="line"/>
			<point x="339" y="752" type="line"/>
			<point x="343" y="812" type="line"/>
			<point x="152" y="812" type="line"/>
			<point x="116" y="-212" type="line"/>
			<point x="311" y="-212" type="line"/>
			<point x="317" y="-153" type="line"/>
		</contour>
	</outline>
</glyph>
<glyph name="underscore" format="2">
	<unicode hex="005F"/>
	<advance width="552"/>
	<outline>
		<contour>
			<point x="20" y="-108" type="line"/>
			<point x="528" y="-108" type="line"/>
			<point x="529" y="-40" type="line"/>
			<point x="22" y="-40" type="line"/>
		</contour>
	</outline>
</glyph>
<glyph name="a" format="2">
	<unicode hex="0061"/>
	<advance width="631"/>
	<outline>
		<contour>
			<point x="509" y="90" type="curve" smooth="yes"/>
			<point x="521" y="522" type="line"/>
			<point x="505" y="530" type="line"/>
			<point x="429" y="507" type="line"/>
			<point x="403" y="519"/>
			<point x="357" y="532"/>
			<point x="306" y="532" type="curve" smooth="yes"/>
			<point x="166" y="532"/>
			<point x="61" y="403"/>
			<point x="61" y="208" type="curve" smooth="yes"/>
			<point x="61" y="82"/>
			<point x="113" y="-14"/>
			<point x="229" y="-14" type="curve" smooth="yes"/>
			<point x="343" y="-14"/>
			<point x="383" y="74"/>
			<point x="415" y="188" type="curve" smooth="yes"/>
			<point x="445" y="296" type="line"/>
			<point x="457" y="295" type="line"/>
			<point x="429" y="86" type="line" smooth="yes"/>
			<point x="420" y="19"/>
			<point x="446" y="-14"/>
			<point x="500" y="-14" type="curve" smooth="yes"/>
			<point x="544" y="-14"/>
			<point x="599" y="13"/>
			<point x="623" y="34" type="curve"/>
			<point x="598" y="73" type="line"/>
			<point x="577" y="57"/>
			<point x="550" y="49"/>
			<point x="536" y="49" type="curve" smooth="yes"/>
			<point x="516" y="49"/>
			<point x="508" y="59"/>
		</contour>
		<contour>
			<point x="241" y="55" type="curve" smooth="yes"/>
			<point x="182" y="55"/>
			<point x="155" y="105"/>
			<point x="155" y="212" type="curve" smooth="yes"/>
			<point x="155" y="370"/>
			<point x="221" y="471"/>
			<point x="316" y="471" type="curve" smooth="yes"/>
			<point x="354" y="471"/>
			<point x="411" y="460"/>
			<point x="438" y="447" type="curve"/>
			<point x="399" y="317" type="line" smooth="yes"/>
			<point x="338" y="115"/>
			<point x="315" y="55"/>
		</contour>
	</outline>
	<anchor name="bottom" x="308" y="-30"/>
	<anchor name="top" x="325" y="550"/>
</glyph>
<glyph name="b" format="2">
	<unicode hex="0062"/>
	<advance width="631"/>
	<outline>
		<contour>
			<point x="311" y="-14" type="curve" smooth="yes"/>
			<point x="461" y="-14"/>
			<point x="569" y="110"/>
			<point x="569" y="317" type="curve" smooth="yes"/>
			<point x="569" y="459"/>
			<point x="514" y="532"/>
			<point x="405" y="532" type="curve" smooth="yes"/>
			<point x="300" y="532"/>
			<point x="258" y="463"/>
			<point x="224" y="337" type="curve" smooth="yes"/>
			<point x="179" y="169" type="line"/>
			<point x="168" y="171" type="line"/>
			<point x="201" y="409" type="line"/>
			<point x="215" y="756" type="line"/>
			<point x="198" y="767" type="line"/>
			<point x="32" y="767" type="line"/>
			<point x="26" y="719" type="line"/>
			<point x="127" y="698" type="line"/>
			<point x="103" y="32" type="line"/>
			<point x="150" y="7"/>
			<point x="241" y="-14"/>
		</contour>
		<contour>
			<point x="394" y="461" type="curve" smooth="yes"/>
			<point x="466" y="461"/>
			<point x="476" y="388"/>
			<point x="476" y="310" type="curve" smooth="yes"/>
			<point x="476" y="164"/>
			<point x="410" y="48"/>
			<point x="310" y="48" type="curve" smooth="yes"/>
			<point x="262" y="48"/>
			<point x="229" y="60"/>
			<point x="202" y="71" type="curve"/>
			<point x="238" y="198" type="line" smooth="yes"/>
			<point x="300" y="416"/>
			<point x="328" y="461"/>
		</contour>
	</outline>
</glyph>
<glyph name="c" format="2">
	<unicode hex="0063"/>
	<advance width="532"/>
	<outline>
		<contour>
			<point x="318" y="532" type="curve" smooth="yes"/>
			<point x="162" y="532"/>
			<point x="58" y="408"/>
			<point x="58" y="237" type="curve" smooth="yes"/>
			<point x="58" y="98"/>
			<point x="133" y="-14"/>
			<point x="269" y="-14" type="curve" smooth="yes"/>
			<point x="380" y="-14"/>
			<point x="443" y="46"/>
			<point x="470" y="82" type="curve"/>
			<point x="432" y="121" type="line"/>
			<point x="381" y="73"/>
			<point x="340" y="55"/>
			<point x="288" y="55" type="curve" smooth="yes"/>
			<point x="199" y="55"/>
			<point x="156" y="140"/>
			<point x="156" y="240" type="curve" smooth="yes"/>
			<point x="156" y="398"/>
			<point x="218" y="472"/>
			<point x="316" y="472" type="curve" smooth="yes"/>
			<point x="372" y="472"/>
			<point x="415" y="448"/>
			<point x="374" y="403" type="curve" smooth="yes"/>
			<point x="352" y="379" type="line"/>
			<point x="363" y="355"/>
			<point x="385" y="333"/>
			<point x="418" y="333" type="curve" smooth="yes"/>
			<point x="461" y="333"/>
			<point x="482" y="362"/>
			<point x="482" y="401" type="curve" smooth="yes"/>
			<point x="482" y="484"/>
			<point x="411" y="532"/>
		</contour>
	</outline>
	<anchor name="bottom" x="275" y="-30"/>
	<anchor name="top" x="295" y="550"/>
</glyph>
<glyph name="e" format="2">
	<unicode hex="0065"/>
	<advance width="526"/>
	<outline>
		<contour>
			<point x="314" y="532" type="curve" smooth="yes"/>
			<point x="163" y="532"/>
			<point x="58" y="404"/>
			<point x="58" y="233" type="curve" smooth="yes"/>
			<point x="58" y="94"/>
			<point x="133" y="-14"/>
			<point x="272" y="-14" type="curve" smooth="yes"/>
			<point x="381" y="-14"/>
			<point x="446" y="51"/>
			<point x="468" y="80" type="curve"/>
			<point x="432" y="117" type="line"/>
			<point x="378" y="70"/>
			<point x="337" y="55"/>
			<point x="290" y="55" type="curve" smooth="yes"/>
			<point x="197" y="55"/>
			<point x="158" y="141"/>
			<point x="152" y="205" type="curve"/>
			<point x="274" y="233" type="line" smooth="yes"/>
			<point x="364" y="254"/>
			<point x="473" y="290"/>
			<point x="473" y="404" type="curve" smooth="yes"/>
			<point x="473" y="477"/>
			<point x="422" y="532"/>
		</contour>
		<contour>
			<point x="378" y="399" type="curve" smooth="yes"/>
			<point x="378" y="332"/>
			<point x="341" y="307"/>
			<point x="265" y="290" type="curve" smooth="yes"/>
			<point x="151" y="264" type="line"/>
			<point x="158" y="391"/>
			<point x="214" y="476"/>
			<point x="306" y="476" type="curve" smooth="yes"/>
			<point x="357" y="476"/>
			<point x="378" y="444"/>
		</contour>
	</outline>
	<anchor name="bottom" x="274" y="-30"/>
	<anchor name="top" x="299" y="550"/>
</glyph>
<glyph name="i" format="2">
	<unicode hex="0069"/>
	<advance width="336"/>
	<outline>
		<contour>
			<point x="136" y="424" type="curve" smooth="yes"/>
			<point x="110" y="77" type="line" smooth="yes"/>
			<point x="106" y="29"/>
			<point x="124" y="-14"/>
			<point x="189" y="-14" type="curve" smooth="yes"/>
			<point x="252" y="-14"/>
			<point x="298" y="22"/>
			<point x="321" y="43" type="curve"/>
			<point x="294" y="82" type="line"/>
			<point x="263" y="59"/>
			<point x="241" y="49"/>
			<point x="226" y="49" type="curve" smooth="yes"/>
			<point x="202" y="49"/>
			<point x="199" y="62"/>
			<point x="201" y="92" type="curve" smooth="yes"/>
			<point x="224" y="419" type="line" smooth="yes"/>
			<point x="229" y="490"/>
			<point x="209" y="532"/>
			<point x="147" y="532" type="curve" smooth="yes"/>
			<point x="101" y="532"/>
			<point x="48" y="512"/>
			<point x="21" y="497" type="curve"/>
			<point x="39" y="449" type="line"/>
			<point x="69" y="461"/>
			<point x="91" y="465"/>
			<point x="109" y="465" type="curve" smooth="yes"/>
			<point x="132" y="465"/>
			<point x="138" y="455"/>
		</contour>
		<contour>
			<point x="106" y="686" type="curve" smooth="yes"/>
			<point x="106" y="647"/>
			<point x="135" y="620"/>
			<point x="176" y="620" type="curve" smooth="yes"/>
			<point x="216" y="620"/>
			<point x="243" y="648"/>
			<point x="243" y="687" type="curve" smooth="yes"/>
			<point x="243" y="726"/>
			<point x="215" y="753"/>
			<point x="175" y="753" type="curve" smooth="yes"/>
			<point x="134" y="753"/>
			<point x="106" y="725"/>
		</contour>
	</outline>
	<anchor name="bottom" x="186" y="-30"/>
	<guideline x="267" y="247" angle="265.6142"/>
</glyph>
<glyph name="l" format="2">
	<unicode hex="006C"/>
	<advance width="340"/>
	<outline>
		<contour>
			<point x="130" y="698" type="line"/>
			<point x="103" y="77" type="line" smooth="yes"/>
			<point x="101" y="23"/>
			<point x="117" y="-14"/>
			<point x="182" y="-14" type="curve" smooth="yes"/>
			<point x="245" y="-14"/>
			<point x="291" y="22"/>
			<point x="314" y="43" type="curve"/>
			<point x="287" y="82" type="line"/>
			<point x="256" y="59"/>
			<point x="234" y="49"/>
			<point x="219" y="49" type="curve" smooth="yes"/>
			<point x="194" y="49"/>
			<point x="193" y="62"/>
			<point x="194" y="92" type="curve" smooth="yes"/>
			<point x="218" y="756" type="line"/>
			<point x="201" y="767" type="line"/>
			<point x="35" y="767" type="line"/>
			<point x="29" y="719" type="line"/>
		</contour>
	</outline>
	<anchor name="bottom" x="190" y="-30"/>
	<anchor name="top" x="128" y="780"/>
</glyph>
<glyph name="n" format="2">
	<unicode hex="006E"/>
	<advance width="655"/>
	<outline>
		<contour>
			<point x="634" y="35" type="curve"/>
			<point x="610" y="77" type="line"/>
			<point x="589" y="62"/>
			<point x="563" y="52"/>
			<point x="548" y="52" type="curve" smooth="yes"/>
			<point x="525" y="52"/>
			<point x="519" y="62"/>
			<point x="522" y="95" type="curve" smooth="yes"/>
			<point x="545" y="359" type="line" smooth="yes"/>
			<point x="555" y="475"/>
			<point x="527" y="532"/>
			<point x="431" y="532" type="curve" smooth="yes"/>
			<point x="349" y="532"/>
			<point x="303" y="485"/>
			<point x="268" y="378" type="curve" smooth="yes"/>
			<point x="186" y="126" type="line"/>
			<point x="175" y="128" type="line"/>
			<point x="209" y="430" type="line" smooth="yes"/>
			<point x="216" y="488"/>
			<point x="203" y="532"/>
			<point x="135" y="532" type="curve" smooth="yes"/>
			<point x="92" y="532"/>
			<point x="35" y="511"/>
			<point x="12" y="499" type="curve"/>
			<point x="31" y="447" type="line"/>
			<point x="61" y="459"/>
			<point x="82" y="465"/>
			<point x="95" y="465" type="curve" smooth="yes"/>
			<point x="118" y="465"/>
			<point x="126" y="454"/>
			<point x="125" y="425" type="curve" smooth="yes"/>
			<point x="109" y="0" type="line"/>
			<point x="197" y="0" type="line"/>
			<point x="322" y="341" type="line" smooth="yes"/>
			<point x="352" y="424"/>
			<point x="368" y="458"/>
			<point x="414" y="458" type="curve" smooth="yes"/>
			<point x="454" y="458"/>
			<point x="464" y="430"/>
			<point x="458" y="365" type="curve" smooth="yes"/>
			<point x="432" y="69" type="line" smooth="yes"/>
			<point x="427" y="14"/>
			<point x="455" y="-14"/>
			<point x="510" y="-14" type="curve" smooth="yes"/>
			<point x="554" y="-14"/>
			<point x="609" y="14"/>
		</contour>
	</outline>
	<anchor name="bottom" x="323" y="-30"/>
	<anchor name="top" x="333" y="550"/>
</glyph>
<glyph name="q" format="2">
	<unicode hex="0071"/>
	<advance width="604"/>
	<outline>
		<contour>
			<point x="495" y="-119" type="curve" smooth="yes"/>
			<point x="520" y="520" type="line"/>
			<point x="500" y="530" type="line"/>
			<point x="425" y="508" type="line"/>
			<point x="383" y="524"/>
			<point x="351" y="532"/>
			<point x="307" y="532" type="curve" smooth="yes"/>
			<point x="157" y="532"/>
			<point x="58" y="399"/>
			<point x="58" y="213" type="curve" smooth="yes"/>
			<point x="58" y="93"/>
			<point x="106" y="-14"/>
			<point x="222" y="-14" type="curve" smooth="yes"/>
			<point x="328" y="-14"/>
			<point x="375" y="55"/>
			<point x="411" y="189" type="curve" smooth="yes"/>
			<point x="442" y="304" type="line"/>
			<point x="453" y="303" type="line"/>
			<point x="421" y="77" type="line"/>
			<point x="409" y="-127" type="line" smooth="yes"/>
			<point x="405" y="-198"/>
			<point x="425" y="-227"/>
			<point x="483" y="-227" type="curve" smooth="yes"/>
			<point x="524" y="-227"/>
			<point x="582" y="-199"/>
			<point x="604" y="-180" type="curve"/>
			<point x="582" y="-138" type="line"/>
			<point x="553" y="-155"/>
			<point x="536" y="-161"/>
			<point x="523" y="-161" type="curve" smooth="yes"/>
			<point x="498" y="-161"/>
			<point x="494" y="-151"/>
		</contour>
		<contour>
			<point x="237" y="55" type="curve" smooth="yes"/>
			<point x="180" y="55"/>
			<point x="150" y="114"/>
			<point x="150" y="218" type="curve" smooth="yes"/>
			<point x="150" y="373"/>
			<point x="214" y="471"/>
			<point x="315" y="471" type="curve" smooth="yes"/>
			<point x="347" y="471"/>
			<point x="407" y="461"/>
			<point x="434" y="448" type="curve"/>
			<point x="395" y="317" type="line" smooth="yes"/>
			<point x="341" y="135"/>
			<point x="314" y="55"/>
		</contour>
	</outline>
</glyph>
<glyph name="s" format="2">
	<unicode hex="0073"/>
	<advance width="478"/>
	<outline>
		<contour>
			<point x="231" y="46" type="curve" smooth="yes"/>
			<point x="175" y="46"/>
			<point x="156" y="61"/>
			<point x="156" y="98" type="curve" smooth="yes"/>
			<point x="156" y="126" type="line"/>
			<point x="146" y="132"/>
			<point x="128" y="140"/>
			<point x="109" y="140" type="curve" smooth="yes"/>
			<point x="75" y="140"/>
			<point x="49" y="119"/>
			<point x="49" y="81" type="curve" smooth="yes"/>
			<point x="49" y="26"/>
			<point x="121" y="-14"/>
			<point x="219" y="-14" type="curve" smooth="yes"/>
			<point x="343" y="-14"/>
			<point x="414" y="59"/>
			<point x="414" y="151" type="curve" smooth="yes"/>
			<point x="414" y="242"/>
			<point x="338" y="277"/>
			<point x="268" y="310" type="curve" smooth="yes"/>
			<point x="215" y="335"/>
			<point x="167" y="360"/>
			<point x="167" y="405" type="curve" smooth="yes"/>
			<point x="167" y="442"/>
			<point x="193" y="476"/>
			<point x="271" y="476" type="curve" smooth="yes"/>
			<point x="321" y="476"/>
			<point x="334" y="457"/>
			<point x="329" y="430" type="curve" smooth="yes"/>
			<point x="323" y="399" type="line"/>
			<point x="333" y="389"/>
			<point x="353" y="379"/>
			<point x="377" y="379" type="curve" smooth="yes"/>
			<point x="412" y="379"/>
			<point x="430" y="404"/>
			<point x="429" y="433" type="curve" smooth="yes"/>
			<point x="427" y="487"/>
			<point x="358" y="532"/>
			<point x="275" y="532" type="curve" smooth="yes"/>
			<point x="133" y="532"/>
			<point x="87" y="443"/>
			<point x="87" y="385" type="curve" smooth="yes"/>
			<point x="87" y="293"/>
			<point x="164" y="258"/>
			<point x="231" y="228" type="curve" smooth="yes"/>
			<point x="286" y="203"/>
			<point x="337" y="179"/>
			<point x="337" y="128" type="curve" smooth="yes"/>
			<point x="337" y="77"/>
			<point x="292" y="46"/>
		</contour>
	</outline>
	<anchor name="bottom" x="226" y="-30"/>
	<anchor name="top" x="261" y="550"/>
</glyph>
<glyph name="u" format="2">
	<unicode hex="0075"/>
	<advance width="652"/>
	<outline>
		<contour>
			<point x="24" y="483" type="curve"/>
			<point x="48" y="441" type="line"/>
			<point x="69" y="456"/>
			<point x="95" y="466"/>
			<point x="110" y="466" type="curve" smooth="yes"/>
			<point x="133" y="466"/>
			<point x="139" y="456"/>
			<point x="136" y="423" type="curve" smooth="yes"/>
			<point x="112" y="159" type="line" smooth="yes"/>
			<point x="101" y="43"/>
			<point x="127" y="-14"/>
			<point x="223" y="-14" type="curve" smooth="yes"/>
			<point x="302" y="-14"/>
			<point x="354" y="29"/>
			<point x="387" y="140" type="curve" smooth="yes"/>
			<point x="463" y="393" type="line"/>
			<point x="474" y="392" type="line"/>
			<point x="440" y="88" type="line" smooth="yes"/>
			<point x="434" y="31"/>
			<point x="445" y="-14"/>
			<point x="513" y="-14" type="curve" smooth="yes"/>
			<point x="557" y="-14"/>
			<point x="614" y="7"/>
			<point x="637" y="19" type="curve"/>
			<point x="618" y="71" type="line"/>
			<point x="588" y="59"/>
			<point x="567" y="53"/>
			<point x="554" y="53" type="curve" smooth="yes"/>
			<point x="531" y="53"/>
			<point x="523" y="64"/>
			<point x="524" y="93" type="curve" smooth="yes"/>
			<point x="540" y="519" type="line"/>
			<point x="451" y="519" type="line"/>
			<point x="334" y="180" type="line" smooth="yes"/>
			<point x="300" y="82"/>
			<point x="281" y="60"/>
			<point x="241" y="60" type="curve" smooth="yes"/>
			<point x="201" y="60"/>
			<point x="194" y="88"/>
			<point x="200" y="153" type="curve" smooth="yes"/>
			<point x="226" y="449" type="line" smooth="yes"/>
			<point x="231" y="504"/>
			<point x="203" y="532"/>
			<point x="149" y="532" type="curve" smooth="yes"/>
			<point x="104" y="532"/>
			<point x="49" y="504"/>
		</contour>
	</outline>
	<anchor name="bottom" x="331" y="-30"/>
	<anchor name="top" x="318" y="550"/>
</glyph>
<glyph name="v" format="2">
	<unicode hex="0076"/>
	<advance width="622"/>
	<outline>
		<contour>
			<point x="465" y="532" type="curve" smooth="yes"/>
			<point x="412" y="532"/>
			<point x="389" y="485"/>
			<point x="394" y="441" type="curve"/>
			<point x="431" y="428" type="line" smooth="yes"/>
			<point x="454" y="420"/>
			<point x="474" y="409"/>
			<point x="469" y="352" type="curve" smooth="yes"/>
			<point x="461" y="243"/>
			<point x="405" y="54"/>
			<point x="278" y="54" type="curve" smooth="yes"/>
			<point x="211" y="54"/>
			<point x="207" y="100"/>
			<point x="210" y="158" type="curve" smooth="yes"/>
			<point x="227" y="448" type="line" smooth="yes"/>
			<point x="230" y="497"/>
			<point x="207" y="532"/>
			<point x="147" y="532" type="curve" smooth="yes"/>
			<point x="104" y="532"/>
			<point x="48" y="512"/>
			<point x="23" y="499" type="curve"/>
			<point x="42" y="450" type="line"/>
			<point x="74" y="460" type="line" smooth="yes"/>
			<point x="116" y="473"/>
			<point x="137" y="462"/>
			<point x="136" y="430" type="curve" smooth="yes"/>
			<point x="123" y="149" type="line" smooth="yes"/>
			<point x="116" y="4"/>
			<point x="197" y="-14"/>
			<point x="265" y="-14" type="curve" smooth="yes"/>
			<point x="478" y="-14"/>
			<point x="552" y="272"/>
			<point x="552" y="421" type="curve" smooth="yes"/>
			<point x="552" y="490"/>
			<point x="520" y="532"/>
		</contour>
	</outline>
	<anchor name="top" x="328" y="550"/>
</glyph>
<glyph name="w" format="2">
	<unicode hex="0077"/>
	<advance width="894"/>
	<outline>
		<contour>
			<point x="506" y="519" type="curve"/>
			<point x="418" y="509" type="line"/>
			<point x="424" y="464"/>
			<point x="427" y="420"/>
			<point x="427" y="373" type="curve" smooth="yes"/>
			<point x="427" y="217"/>
			<point x="388" y="54"/>
			<point x="279" y="54" type="curve" smooth="yes"/>
			<point x="217" y="54"/>
			<point x="207" y="102"/>
			<point x="210" y="159" type="curve" smooth="yes"/>
			<point x="227" y="448" type="line" smooth="yes"/>
			<point x="230" y="497"/>
			<point x="207" y="532"/>
			<point x="147" y="532" type="curve" smooth="yes"/>
			<point x="103" y="532"/>
			<point x="48" y="512"/>
			<point x="23" y="499" type="curve"/>
			<point x="42" y="450" type="line"/>
			<point x="87" y="462" type="line" smooth="yes"/>
			<point x="116" y="470"/>
			<point x="137" y="461"/>
			<point x="136" y="430" type="curve" smooth="yes"/>
			<point x="123" y="149" type="line" smooth="yes"/>
			<point x="116" y="4"/>
			<point x="209" y="-14"/>
			<point x="264" y="-14" type="curve" smooth="yes"/>
			<point x="339" y="-14"/>
			<point x="392" y="22"/>
			<point x="430" y="87" type="curve"/>
			<point x="441" y="10"/>
			<point x="501" y="-14"/>
			<point x="548" y="-14" type="curve" smooth="yes"/>
			<point x="759" y="-14"/>
			<point x="824" y="272"/>
			<point x="824" y="422" type="curve" smooth="yes"/>
			<point x="824" y="491"/>
			<point x="794" y="532"/>
			<point x="733" y="532" type="curve" smooth="yes"/>
			<point x="687" y="532"/>
			<point x="661" y="486"/>
			<point x="666" y="441" type="curve"/>
			<point x="703" y="428" type="line" smooth="yes"/>
			<point x="726" y="420"/>
			<point x="746" y="410"/>
			<point x="741" y="351" type="curve" smooth="yes"/>
			<point x="733" y="242"/>
			<point x="676" y="54"/>
			<point x="567" y="54" type="curve" smooth="yes"/>
			<point x="500" y="54"/>
			<point x="488" y="96"/>
			<point x="497" y="164" type="curve" smooth="yes"/>
			<point x="506" y="230"/>
			<point x="517" y="322"/>
			<point x="517" y="393" type="curve" smooth="yes"/>
			<point x="517" y="444"/>
			<point x="514" y="486"/>
		</contour>
	</outline>
	<anchor name="top" x="449" y="550"/>
</glyph>
<glyph name="z" format="2">
	<unicode hex="007A"/>
	<advance width="549"/>
	<outline>
		<contour>
			<point x="101" y="519" type="line"/>
			<point x="89" y="508" type="line"/>
			<point x="75" y="351" type="line"/>
			<point x="130" y="354" type="line"/>
			<point x="154" y="444"/>
			<point x="165" y="451"/>
			<point x="219" y="451" type="curve" smooth="yes"/>
			<point x="389" y="451" type="line"/>
			<point x="59" y="41" type="line"/>
			<point x="97" y="-7" type="line"/>
			<point x="117" y="2"/>
			<point x="141" y="9"/>
			<point x="182" y="9" type="curve" smooth="yes"/>
			<point x="265" y="9"/>
			<point x="365" y="-22"/>
			<point x="463" y="0" type="curve"/>
			<point x="491" y="181" type="line"/>
			<point x="438" y="181" type="line"/>
			<point x="401" y="76"/>
			<point x="387" y="66"/>
			<point x="358" y="66" type="curve" smooth="yes"/>
			<point x="322" y="66"/>
			<point x="280" y="79"/>
			<point x="234" y="79" type="curve" smooth="yes"/>
			<point x="211" y="79"/>
			<point x="187" y="77"/>
			<point x="164" y="72" type="curve"/>
			<point x="497" y="482" type="line"/>
			<point x="485" y="519" type="line"/>
		</contour>
	</outline>
	<anchor name="bottom" x="261" y="-30"/>
	<anchor name="top" x="289" y="550"/>
</glyph>
<glyph name="braceright" format="2">
	<unicode hex="007D"/>
	<advance width="414"/>
	<outline>
		<contour>
			<point x="354" y="268" type="curve"/>
			<point x="357" y="346" type="line"/>
			<point x="283" y="348"/>
			<point x="258" y="361"/>
			<point x="258" y="432" type="curve" smooth="yes"/>
			<point x="258" y="504"/>
			<point x="286" y="639"/>
			<point x="286" y="700" type="curve" smooth="yes"/>
			<point x="286" y="778"/>
			<point x="237" y="822"/>
			<point x="151" y="822" type="curve" smooth="yes"/>
			<point x="125" y="822"/>
			<point x="99" y="819"/>
			<point x="75" y="813" type="curve"/>
			<point x="85" y="754" type="line"/>
			<point x="100" y="757"/>
			<point x="119" y="758"/>
			<point x="137" y="758" type="curve" smooth="yes"/>
			<point x="178" y="758"/>
			<point x="194" y="738"/>
			<point x="194" y="688" type="curve" smooth="yes"/>
			<point x="194" y="647"/>
			<point x="169" y="505"/>
			<point x="169" y="440" type="curve" smooth="yes"/>
			<point x="169" y="363"/>
			<point x="193" y="324"/>
			<point x="261" y="305" type="curve"/>
			<point x="189" y="287"/>
			<point x="157" y="246"/>
			<point x="157" y="174" type="curve" smooth="yes"/>
			<point x="157" y="104"/>
			<point x="172" y="-50"/>
			<point x="172" y="-98" type="curve" smooth="yes"/>
			<point x="172" y="-140"/>
			<point x="156" y="-163"/>
			<point x="118" y="-163" type="curve" smooth="yes"/>
			<point x="103" y="-163"/>
			<point x="85" y="-162"/>
			<point x="64" y="-159" type="curve"/>
			<point x="51" y="-218" type="line"/>
			<point x="73" y="-223"/>
			<point x="104" y="-227"/>
			<point x="126" y="-227" type="curve" smooth="yes"/>
			<point x="209" y="-227"/>
			<point x="262" y="-183"/>
			<point x="262" y="-109" type="curve" smooth="yes"/>
			<point x="262" y="-40"/>
			<point x="246" y="102"/>
			<point x="246" y="183" type="curve" smooth="yes"/>
			<point x="246" y="245"/>
			<point x="282" y="266"/>
		</contour>
	</outline>
</glyph>
<glyph name="yen" format="2">
	<unicode hex="00A5"/>
	<advance width="722"/>
	<outline>
		<contour>
			<point x="231" y="0" type="line"/>
			<point x="513" y="0" type="line"/>
			<point x="519" y="46" type="line"/>
			<point x="416" y="59" type="line"/>
			<point x="421" y="202" type="line"/>
			<point x="627" y="202" type="line"/>
			<point x="629" y="262" type="line"/>
			<point x="424" y="262" type="line"/>
			<point x="424" y="262" type="line"/>
			<point x="463" y="325" type="line"/>
			<point x="632" y="325" type="line"/>
			<point x="634" y="386" type="line"/>
			<point x="501" y="386" type="line"/>
			<point x="658" y="639" type="line"/>
			<point x="745" y="653" type="line"/>
			<point x="752" y="700" type="line"/>
			<point x="501" y="700" type="line"/>
			<point x="494" y="657" type="line"/>
			<point x="589" y="642" type="line"/>
			<point x="398" y="325" type="line"/>
			<point x="394" y="325" type="line"/>
			<point x="216" y="644" type="line"/>
			<point x="305" y="654" type="line"/>
			<point x="312" y="700" type="line"/>
			<point x="36" y="700" type="line"/>
			<point x="29" y="654" type="line"/>
			<point x="113" y="642" type="line"/>
			<point x="262" y="386" type="line"/>
			<point x="118" y="386" type="line"/>
			<point x="111" y="325" type="line"/>
			<point x="298" y="325" type="line"/>
			<point x="334" y="262" type="line"/>
			<point x="334" y="262" type="line"/>
			<point x="112" y="262" type="line"/>
			<point x="105" y="202" type="line"/>
			<point x="333" y="202" type="line"/>
			<point x="326" y="59" type="line"/>
			<point x="237" y="46" type="line"/>
		</contour>
	</outline>
</glyph>
<glyph name="section" format="2">
	<unicode hex="00A7"/>
	<advance width="678"/>
	<outline>
		<contour>
			<point x="600" y="222" type="curve" smooth="yes"/>
			<point x="600" y="386"/>
			<point x="266" y="431"/>
			<point x="266" y="559" type="curve" smooth="yes"/>
			<point x="266" y="611"/>
			<point x="295" y="653"/>
			<point x="377" y="653" type="curve" smooth="yes"/>
			<point x="434" y="653"/>
			<point x="471" y="622"/>
			<point x="448" y="578" type="curve" smooth="yes"/>
			<point x="429" y="542" type="line"/>
			<point x="446" y="528"/>
			<point x="469" y="515"/>
			<point x="499" y="515" type="curve" smooth="yes"/>
			<point x="539" y="515"/>
			<point x="562" y="543"/>
			<point x="562" y="581" type="curve" smooth="yes"/>
			<point x="562" y="655"/>
			<point x="479" y="715"/>
			<point x="382" y="715" type="curve" smooth="yes"/>
			<point x="253" y="715"/>
			<point x="182" y="629"/>
			<point x="182" y="546" type="curve" smooth="yes"/>
			<point x="182" y="341"/>
			<point x="530" y="340"/>
			<point x="530" y="162" type="curve"/>
			<point x="580" y="151" type="line"/>
			<point x="589" y="166"/>
			<point x="600" y="193"/>
		</contour>
		<contour>
			<point x="116" y="337" type="curve"/>
			<point x="116" y="173"/>
			<point x="450" y="128"/>
			<point x="450" y="0" type="curve" smooth="yes"/>
			<point x="450" y="-53"/>
			<point x="420" y="-94"/>
			<point x="339" y="-94" type="curve" smooth="yes"/>
			<point x="271" y="-94"/>
			<point x="243" y="-63"/>
			<point x="263" y="-25" type="curve" smooth="yes"/>
			<point x="283" y="13" type="line"/>
			<point x="266" y="27"/>
			<point x="243" y="40"/>
			<point x="213" y="40" type="curve" smooth="yes"/>
			<point x="175" y="40"/>
			<point x="150" y="12"/>
			<point x="150" y="-29" type="curve" smooth="yes"/>
			<point x="150" y="-106"/>
			<point x="237" y="-156"/>
			<point x="333" y="-156" type="curve" smooth="yes"/>
			<point x="463" y="-156"/>
			<point x="534" y="-70"/>
			<point x="534" y="13" type="curve" smooth="yes"/>
			<point x="534" y="218"/>
			<point x="187" y="218"/>
			<point x="186" y="397" type="curve"/>
			<point x="136" y="408" type="line"/>
			<point x="127" y="393"/>
			<point x="116" y="366"/>
		</contour>
	</outline>
</glyph>
<glyph name="copyright" format="2">
	<unicode hex="00A9"/>
	<advance width="870"/>
	<outline>
		<contour>
			<point x="441" y="-12" type="curve" smooth="yes"/>
			<point x="659" y="-12"/>
			<point x="802" y="123"/>
			<point x="802" y="323" type="curve" smooth="yes"/>
			<point x="802" y="521"/>
			<point x="657" y="647"/>
			<point x="440" y="647" type="curve" smooth="yes"/>
			<point x="243" y="647"/>
			<point x="77" y="522"/>
			<point x="77" y="313" type="curve" smooth="yes"/>
			<point x="77" y="128"/>
			<point x="198" y="-12"/>
		</contour>
		<contour>
			<point x="439" y="110" type="curve" smooth="yes"/>
			<point x="521" y="110"/>
			<point x="570" y="154"/>
			<point x="601" y="192" type="curve"/>
			<point x="571" y="222" type="line"/>
			<point x="536" y="186"/>
			<point x="498" y="162"/>
			<point x="444" y="162" type="curve" smooth="yes"/>
			<point x="367" y="162"/>
			<point x="328" y="225"/>
			<point x="328" y="314" type="curve" smooth="yes"/>
			<point x="328" y="420"/>
			<point x="374" y="471"/>
			<point x="458" y="471" type="curve" smooth="yes"/>
			<point x="513" y="471"/>
			<point x="535" y="447"/>
			<point x="522" y="413" type="curve" smooth="yes"/>
			<point x="514" y="392" type="line"/>
			<point x="525" y="381"/>
			<point x="543" y="373"/>
			<point x="563" y="373" type="curve" smooth="yes"/>
			<point x="589" y="373"/>
			<point x="606" y="391"/>
			<point x="606" y="417" type="curve" smooth="yes"/>
			<point x="606" y="475"/>
			<point x="534" y="521"/>
			<point x="457" y="521" type="curve" smooth="yes"/>
			<point x="343" y="521"/>
			<point x="246" y="451"/>
			<point x="246" y="308" type="curve" smooth="yes"/>
			<point x="246" y="200"/>
			<point x="313" y="110"/>
		</contour>
		<contour>
			<point x="443" y="45" type="curve" smooth="yes"/>
			<point x="262" y="45"/>
			<point x="147" y="153"/>
			<point x="147" y="314" type="curve" smooth="yes"/>
			<point x="147" y="481"/>
			<point x="273" y="590"/>
			<point x="440" y="590" type="curve" smooth="yes"/>
			<point x="609" y="590"/>
			<point x="732" y="492"/>
			<point x="732" y="317" type="curve" smooth="yes"/>
			<point x="732" y="152"/>
			<point x="622" y="45"/>
		</contour>
	</outline>
</glyph>
<glyph name="ordfeminine" format="2">
	<unicode hex="00AA"/>
	<advance width="494"/>
	<outline>
		<contour>
			<point x="412" y="445" type="curve" smooth="yes"/>
			<point x="421" y="735" type="line"/>
			<point x="408" y="741" type="line"/>
			<point x="345" y="724" type="line"/>
			<point x="327" y="733"/>
			<point x="292" y="742"/>
			<point x="257" y="742" type="curve" smooth="yes"/>
			<point x="155" y="742"/>
			<point x="76" y="650"/>
			<point x="76" y="516" type="curve" smooth="yes"/>
			<point x="76" y="427"/>
			<point x="117" y="362"/>
			<point x="199" y="362" type="curve" smooth="yes"/>
			<point x="274" y="362"/>
			<point x="306" y="413"/>
			<point x="334" y="509" type="curve" smooth="yes"/>
			<point x="352" y="570" type="line"/>
			<point x="358" y="570" type="line"/>
			<point x="344" y="433" type="line" smooth="yes"/>
			<point x="340" y="392"/>
			<point x="352" y="362"/>
			<point x="397" y="362" type="curve" smooth="yes"/>
			<point x="434" y="362"/>
			<point x="474" y="383"/>
			<point x="490" y="398" type="curve"/>
			<point x="468" y="431" type="line"/>
			<point x="455" y="421"/>
			<point x="441" y="415"/>
			<point x="427" y="415" type="curve" smooth="yes"/>
			<point x="416" y="415"/>
			<point x="411" y="422"/>
		</contour>
		<contour>
			<point x="208" y="416" type="curve" smooth="yes"/>
			<point x="170" y="416"/>
			<point x="150" y="444"/>
			<point x="150" y="520" type="curve" smooth="yes"/>
			<point x="150" y="624"/>
			<point x="196" y="693"/>
			<point x="264" y="693" type="curve" smooth="yes"/>
			<point x="293" y="693"/>
			<point x="324" y="685"/>
			<point x="344" y="676" type="curve"/>
			<point x="320" y="597" type="line" smooth="yes"/>
			<point x="282" y="471"/>
			<point x="265" y="416"/>
		</contour>
	</outline>
</glyph>
<glyph name="logicalnot" format="2">
	<unicode hex="00AC"/>
	<advance width="620"/>
	<outline>
		<contour>
			<point x="443" y="149" type="line"/>
			<point x="520" y="149" type="line"/>
			<point x="528" y="372" type="line"/>
			<point x="100" y="372" type="line"/>
			<point x="97" y="299" type="line"/>
			<point x="448" y="299" type="line"/>
		</contour>
	</outline>
</glyph>
<glyph name="cedilla" format="2">
	<unicode hex="00B8"/>
	<advance width="484"/>
	<outline>
		<contour>
			<point x="281" y="13" type="line"/>
			<point x="229" y="13" type="line"/>
			<point x="201" y="-76" type="line"/>
			<point x="209" y="-97" type="line"/>
			<point x="244" y="-94"/>
			<point x="283" y="-97"/>
			<point x="283" y="-133" type="curve" smooth="yes"/>
			<point x="283" y="-162"/>
			<point x="263" y="-174"/>
			<point x="232" y="-174" type="curve" smooth="yes"/>
			<point x="212" y="-174"/>
			<point x="183" y="-167"/>
			<point x="169" y="-160" type="curve"/>
			<point x="153" y="-209" type="line"/>
			<point x="175" y="-221"/>
			<point x="213" y="-229"/>
			<point x="241" y="-229" type="curve" smooth="yes"/>
			<point x="308" y="-229"/>
			<point x="359" y="-190"/>
			<point x="359" y="-130" type="curve" smooth="yes"/>
			<point x="359" y="-74"/>
			<point x="317" y="-50"/>
			<point x="260" y="-52" type="curve"/>
		</contour>
	</outline>
	<anchor name="_bottom" x="247" y="-30"/>
</glyph>
<glyph name="Ccedilla" format="2">
	<unicode hex="00C7"/>
	<advance width="681"/>
	<outline>
		<contour>
			<point x="361" y="-229" type="curve" smooth="yes"/>
			<point x="428" y="-229"/>
			<point x="479" y="-190"/>
			<point x="479" y="-130" type="curve" smooth="yes"/>
			<point x="479" y="-74"/>
			<point x="437" y="-50"/>
			<point x="380" y="-52" type="curve"/>
			<point x="392" y="-14" type="line"/>
			<point x="496" y="-9"/>
			<point x="580" y="39"/>
			<point x="640" y="128" type="curve"/>
			<point x="599" y="168" type="line"/>
			<point x="538" y="90"/>
			<point x="471" y="55"/>
			<point x="384" y="55" type="curve" smooth="yes"/>
			<point x="253" y="55"/>
			<point x="169" y="165"/>
			<point x="169" y="337" type="curve" smooth="yes"/>
			<point x="169" y="538"/>
			<point x="258" y="652"/>
			<point x="411" y="652" type="curve" smooth="yes"/>
			<point x="505" y="652"/>
			<point x="555" y="615"/>
			<point x="532" y="571" type="curve" smooth="yes"/>
			<point x="512" y="533" type="line"/>
			<point x="530" y="513"/>
			<point x="557" y="500"/>
			<point x="586" y="500" type="curve" smooth="yes"/>
			<point x="623" y="500"/>
			<point x="649" y="527"/>
			<point x="649" y="566" type="curve" smooth="yes"/>
			<point x="649" y="648"/>
			<point x="547" y="715"/>
			<point x="416" y="715" type="curve" smooth="yes"/>
			<point x="210" y="715"/>
			<point x="71" y="563"/>
			<point x="71" y="328" type="curve" smooth="yes"/>
			<point x="71" y="132"/>
			<point x="177" y="3"/>
			<point x="341" y="-13" type="curve"/>
			<point x="321" y="-76" type="line"/>
			<point x="329" y="-97" type="line"/>
			<point x="364" y="-94"/>
			<point x="403" y="-97"/>
			<point x="403" y="-133" type="curve" smooth="yes"/>
			<point x="403" y="-162"/>
			<point x="383" y="-174"/>
			<point x="352" y="-174" type="curve" smooth="yes"/>
			<point x="332" y="-174"/>
			<point x="303" y="-167"/>
			<point x="289" y="-160" type="curve"/>
			<point x="273" y="-209" type="line"/>
			<point x="295" y="-221"/>
			<point x="333" y="-229"/>
		</contour>
	</outline>
</glyph>
<glyph name="Eth" format="2">
	<unicode hex="00D0"/>
	<advance width="797"/>
	<outline>
		<contour>
			<point x="380" y="700" type="curve" smooth="yes"/>
			<point x="95" y="700" type="line"/>
			<point x="88" y="654" type="line"/>
			<point x="182" y="637" type="line"/>
			<point x="172" y="393" type="line"/>
			<point x="63" y="393" type="line"/>
			<point x="58" y="330" type="line"/>
			<point x="170" y="330" type="line"/>
			<point x="159" y="59" type="line"/>
			<point x="70" y="45" type="line"/>
			<point x="65" y="0" type="line"/>
			<point x="289" y="0" type="line" smooth="yes"/>
			<point x="577" y="0"/>
			<point x="746" y="143"/>
			<point x="746" y="390" type="curve" smooth="yes"/>
			<point x="746" y="587"/>
			<point x="612" y="700"/>
		</contour>
		<contour>
			<point x="279" y="58" type="curve" smooth="yes"/>
			<point x="249" y="58" type="line"/>
			<point x="259" y="330" type="line"/>
			<point x="454" y="330" type="line"/>
			<point x="459" y="393" type="line"/>
			<point x="261" y="393" type="line"/>
			<point x="270" y="645" type="line"/>
			<point x="371" y="645" type="line" smooth="yes"/>
			<point x="551" y="645"/>
			<point x="645" y="550"/>
			<point x="645" y="381" type="curve" smooth="yes"/>
			<point x="645" y="165"/>
			<point x="519" y="58"/>
		</contour>
	</outline>
	<anchor name="bottom" x="377" y="-30"/>
	<anchor name="top" x="389" y="730"/>
</glyph>
<glyph name="Oslash" format="2">
	<unicode hex="00D8"/>
	<advance width="783"/>
	<outline>
		<contour>
			<point x="63" y="-14" type="line"/>
			<point x="145" y="-14" type="line"/>
			<point x="195" y="46" type="line"/>
			<point x="247" y="7"/>
			<point x="313" y="-14"/>
			<point x="389" y="-14" type="curve" smooth="yes"/>
			<point x="595" y="-14"/>
			<point x="732" y="143"/>
			<point x="732" y="379" type="curve" smooth="yes"/>
			<point x="732" y="473"/>
			<point x="707" y="551"/>
			<point x="661" y="608" type="curve"/>
			<point x="750" y="715" type="line"/>
			<point x="668" y="715" type="line"/>
			<point x="616" y="653" type="line"/>
			<point x="565" y="693"/>
			<point x="498" y="715"/>
			<point x="420" y="715" type="curve" smooth="yes"/>
			<point x="206" y="715"/>
			<point x="71" y="566"/>
			<point x="71" y="331" type="curve" smooth="yes"/>
			<point x="71" y="231"/>
			<point x="99" y="149"/>
			<point x="149" y="90" type="curve"/>
		</contour>
		<contour>
			<point x="402" y="51" type="curve" smooth="yes"/>
			<point x="340" y="51"/>
			<point x="289" y="72"/>
			<point x="249" y="112" type="curve"/>
			<point x="598" y="532" type="line"/>
			<point x="620" y="487"/>
			<point x="631" y="429"/>
			<point x="631" y="361" type="curve" smooth="yes"/>
			<point x="631" y="164"/>
			<point x="548" y="51"/>
		</contour>
		<contour>
			<point x="211" y="164" type="line"/>
			<point x="184" y="213"/>
			<point x="169" y="277"/>
			<point x="169" y="352" type="curve" smooth="yes"/>
			<point x="169" y="542"/>
			<point x="256" y="653"/>
			<point x="405" y="653" type="curve" smooth="yes"/>
			<point x="471" y="653"/>
			<point x="524" y="630"/>
			<point x="562" y="588" type="curve"/>
		</contour>
	</outline>
</glyph>
<glyph name="ccedilla" format="2">
	<unicode hex="00E7"/>
	<advance width="532"/>
	<outline>
		<contour>
			<point x="269" y="-229" type="curve" smooth="yes"/>
			<point x="336" y="-229"/>
			<point x="387" y="-190"/>
			<point x="387" y="-130" type="curve" smooth="yes"/>
			<point x="387" y="-74"/>
			<point x="345" y="-50"/>
			<point x="288" y="-52" type="curve"/>
			<point x="301" y="-12" type="line"/>
			<point x="392" y="-2"/>
			<point x="446" y="50"/>
			<point x="470" y="82" type="curve"/>
			<point x="432" y="121" type="line"/>
			<point x="381" y="73"/>
			<point x="340" y="55"/>
			<point x="288" y="55" type="curve" smooth="yes"/>
			<point x="199" y="55"/>
			<point x="156" y="140"/>
			<point x="156" y="240" type="curve" smooth="yes"/>
			<point x="156" y="398"/>
			<point x="218" y="472"/>
			<point x="316" y="472" type="curve" smooth="yes"/>
			<point x="372" y="472"/>
			<point x="415" y="448"/>
			<point x="374" y="403" type="curve" smooth="yes"/>
			<point x="352" y="379" type="line"/>
			<point x="363" y="355"/>
			<point x="385" y="333"/>
			<point x="418" y="333" type="curve" smooth="yes"/>
			<point x="461" y="333"/>
			<point x="482" y="362"/>
			<point x="482" y="401" type="curve" smooth="yes"/>
			<point x="482" y="484"/>
			<point x="411" y="532"/>
			<point x="318" y="532" type="curve" smooth="yes"/>
			<point x="162" y="532"/>
			<point x="58" y="408"/>
			<point x="58" y="237" type="curve" smooth="yes"/>
			<point x="58" y="105"/>
			<point x="126" y="-3"/>
			<point x="249" y="-13" type="curve"/>
			<point x="229" y="-76" type="line"/>
			<point x="237" y="-97" type="line"/>
			<point x="272" y="-94"/>
			<point x="311" y="-97"/>
			<point x="311" y="-133" type="curve" smooth="yes"/>
			<point x="311" y="-162"/>
			<point x="291" y="-174"/>
			<point x="260" y="-174" type="curve" smooth="yes"/>
			<point x="240" y="-174"/>
			<point x="211" y="-167"/>
			<point x="197" y="-160" type="curve"/>
			<point x="181" y="-209" type="line"/>
			<point x="203" y="-221"/>
			<point x="241" y="-229"/>
		</contour>
	</outline>
</glyph>
<glyph name="eth" format="2">
	<unicode hex="00F0"/>
	<advance width="606"/>
	<outline>
		<contour>
			<point x="282" y="-14" type="curve" smooth="yes"/>
			<point x="462" y="-14"/>
			<point x="539" y="129"/>
			<point x="539" y="330" type="curve" smooth="yes"/>
			<point x="539" y="448"/>
			<point x="524" y="586"/>
			<point x="425" y="677" type="curve"/>
			<point x="528" y="728" type="line"/>
			<point x="506" y="774" type="line"/>
			<point x="380" y="711" type="line"/>
			<point x="331" y="741"/>
			<point x="271" y="764"/>
			<point x="191" y="771" type="curve"/>
			<point x="179" y="723" type="line"/>
			<point x="231" y="713"/>
			<point x="275" y="700"/>
			<point x="310" y="676" type="curve"/>
			<point x="220" y="632" type="line"/>
			<point x="242" y="586" type="line"/>
			<point x="352" y="640" type="line"/>
			<point x="402" y="599"/>
			<point x="431" y="540"/>
			<point x="446" y="471" type="curve"/>
			<point x="440" y="466" type="line"/>
			<point x="410" y="507"/>
			<point x="358" y="532"/>
			<point x="299" y="532" type="curve" smooth="yes"/>
			<point x="128" y="532"/>
			<point x="59" y="392"/>
			<point x="59" y="242" type="curve" smooth="yes"/>
			<point x="59" y="88"/>
			<point x="140" y="-14"/>
		</contour>
		<contour>
			<point x="288" y="46" type="curve" smooth="yes"/>
			<point x="204" y="46"/>
			<point x="157" y="117"/>
			<point x="157" y="239" type="curve" smooth="yes"/>
			<point x="157" y="359"/>
			<point x="186" y="472"/>
			<point x="303" y="472" type="curve" smooth="yes"/>
			<point x="391" y="472"/>
			<point x="437" y="404"/>
			<point x="437" y="278" type="curve" smooth="yes"/>
			<point x="437" y="158"/>
			<point x="404" y="46"/>
		</contour>
	</outline>
</glyph>
<glyph name="oslash" format="2">
	<unicode hex="00F8"/>
	<advance width="594"/>
	<outline>
		<contour>
			<point x="46" y="-14" type="line"/>
			<point x="128" y="-14" type="line"/>
			<point x="156" y="21" type="line"/>
			<point x="190" y="-2"/>
			<point x="232" y="-14"/>
			<point x="281" y="-14" type="curve" smooth="yes"/>
			<point x="463" y="-14"/>
			<point x="535" y="126"/>
			<point x="535" y="277" type="curve" smooth="yes"/>
			<point x="535" y="340"/>
			<point x="520" y="395"/>
			<point x="492" y="438" type="curve"/>
			<point x="569" y="533" type="line"/>
			<point x="488" y="533" type="line"/>
			<point x="450" y="486" type="line"/>
			<point x="413" y="515"/>
			<point x="366" y="532"/>
			<point x="310" y="532" type="curve" smooth="yes"/>
			<point x="128" y="532"/>
			<point x="59" y="391"/>
			<point x="59" y="242" type="curve" smooth="yes"/>
			<point x="59" y="170"/>
			<point x="77" y="110"/>
			<point x="110" y="65" type="curve"/>
		</contour>
		<contour>
			<point x="287" y="46" type="curve" smooth="yes"/>
			<point x="253" y="46"/>
			<point x="225" y="58"/>
			<point x="204" y="80" type="curve"/>
			<point x="429" y="359" type="line"/>
			<point x="434" y="335"/>
			<point x="437" y="308"/>
			<point x="437" y="277" type="curve" smooth="yes"/>
			<point x="437" y="158"/>
			<point x="404" y="46"/>
		</contour>
		<contour>
			<point x="170" y="140" type="line"/>
			<point x="162" y="168"/>
			<point x="157" y="201"/>
			<point x="157" y="239" type="curve" smooth="yes"/>
			<point x="157" y="359"/>
			<point x="186" y="472"/>
			<point x="302" y="472" type="curve" smooth="yes"/>
			<point x="345" y="472"/>
			<point x="378" y="456"/>
			<point x="401" y="425" type="curve"/>
		</contour>
	</outline>
</glyph>
<glyph name="thorn" format="2">
	<unicode hex="00FE"/>
	<advance width="629"/>
	<outline>
		<contour>
			<point x="104" y="-226" type="line"/>
			<point x="261" y="-223" type="line"/>
			<point x="266" y="-175" type="line"/>
			<point x="173" y="-165" type="line"/>
			<point x="187" y="12" type="line"/>
			<point x="210" y="0"/>
			<point x="262" y="-14"/>
			<point x="309" y="-14" type="curve" smooth="yes"/>
			<point x="460" y="-14"/>
			<point x="567" y="110"/>
			<point x="567" y="319" type="curve" smooth="yes"/>
			<point x="567" y="459"/>
			<point x="511" y="532"/>
			<point x="404" y="532" type="curve" smooth="yes"/>
			<point x="309" y="532"/>
			<point x="257" y="473"/>
			<point x="222" y="337" type="curve" smooth="yes"/>
			<point x="184" y="190" type="line"/>
			<point x="175" y="192" type="line"/>
			<point x="208" y="462" type="line"/>
			<point x="218" y="756" type="line"/>
			<point x="201" y="767" type="line"/>
			<point x="35" y="767" type="line"/>
			<point x="29" y="719" type="line"/>
			<point x="130" y="698" type="line"/>
			<point x="108" y="62" type="line"/>
			<point x="88" y="-214" type="line"/>
		</contour>
		<contour>
			<point x="393" y="461" type="curve" smooth="yes"/>
			<point x="462" y="461"/>
			<point x="474" y="394"/>
			<point x="474" y="312" type="curve" smooth="yes"/>
			<point x="474" y="163"/>
			<point x="408" y="48"/>
			<point x="308" y="48" type="curve" smooth="yes"/>
			<point x="265" y="48"/>
			<point x="226" y="61"/>
			<point x="202" y="72" type="curve"/>
			<point x="236" y="197" type="line" smooth="yes"/>
			<point x="300" y="432"/>
			<point x="338" y="461"/>
		</contour>
	</outline>
</glyph>
<glyph name="aogonek" format="2">
	<unicode hex="0105"/>
	<advance width="631"/>
	<outline>
		<contour>
			<point x="229" y="-14" type="curve" smooth="yes"/>
			<point x="333" y="-14"/>
			<point x="376" y="58"/>
			<point x="415" y="188" type="curve" smooth="yes"/>
			<point x="444" y="285" type="line"/>
			<point x="453" y="284" type="line"/>
			<point x="429" y="86" type="line" smooth="yes"/>
			<point x="421" y="22"/>
			<point x="443" y="-11"/>
			<point x="494" y="-14" type="curve"/>
			<point x="436" y="-69"/>
			<point x="397" y="-100"/>
			<point x="397" y="-155" type="curve" smooth="yes"/>
			<point x="397" y="-204"/>
			<point x="435" y="-229"/>
			<point x="484" y="-229" type="curve" smooth="yes"/>
			<point x="535" y="-229"/>
			<point x="584" y="-197"/>
			<point x="611" y="-158" type="curve"/>
			<point x="579" y="-128" type="line"/>
			<point x="560" y="-147"/>
			<point x="537" y="-160"/>
			<point x="518" y="-160" type="curve" smooth="yes"/>
			<point x="495" y="-160"/>
			<point x="484" y="-149"/>
			<point x="484" y="-128" type="curve" smooth="yes"/>
			<point x="484" y="-80"/>
			<point x="546" y="-26"/>
			<point x="623" y="34" type="curve"/>
			<point x="598" y="73" type="line"/>
			<point x="577" y="57"/>
			<point x="550" y="49"/>
			<point x="536" y="49" type="curve" smooth="yes"/>
			<point x="515" y="49"/>
			<point x="508" y="59"/>
			<point x="509" y="90" type="curve" smooth="yes"/>
			<point x="521" y="522" type="line"/>
			<point x="505" y="530" type="line"/>
			<point x="429" y="507" type="line"/>
			<point x="403" y="519"/>
			<point x="357" y="532"/>
			<point x="306" y="532" type="curve" smooth="yes"/>
			<point x="166" y="532"/>
			<point x="61" y="403"/>
			<point x="61" y="208" type="curve" smooth="yes"/>
			<point x="61" y="82"/>
			<point x="113" y="-14"/>
		</contour>
		<contour>
			<point x="241" y="55" type="curve" smooth="yes"/>
			<point x="182" y="55"/>
			<point x="155" y="105"/>
			<point x="155" y="212" type="curve" smooth="yes"/>
			<point x="155" y="370"/>
			<point x="221" y="471"/>
			<point x="316" y="471" type="curve" smooth="yes"/>
			<point x="354" y="471"/>
			<point x="409" y="460"/>
			<point x="436" y="447" type="curve"/>
			<point x="399" y="317" type="line" smooth="yes"/>
			<point x="341" y="114"/>
			<point x="315" y="55"/>
		</contour>
	</outline>
</glyph>
<glyph name="Eogonek" format="2">
	<unicode hex="0118"/>
	<advance width="649"/>
	<outline>
		<contour>
			<point x="65" y="0" type="line"/>
			<point x="496" y="0" type="line"/>
			<point x="425" y="-45"/>
			<point x="370" y="-92"/>
			<point x="370" y="-155" type="curve" smooth="yes"/>
			<point x="370" y="-204"/>
			<point x="408" y="-229"/>
			<point x="450" y="-229" type="curve" smooth="yes"/>
			<point x="508" y="-229"/>
			<point x="557" y="-197"/>
			<point x="584" y="-158" type="curve"/>
			<point x="552" y="-128" type="line"/>
			<point x="533" y="-147"/>
			<point x="510" y="-160"/>
			<point x="491" y="-160" type="curve" smooth="yes"/>
			<point x="468" y="-160"/>
			<point x="457" y="-149"/>
			<point x="457" y="-128" type="curve" smooth="yes"/>
			<point x="457" y="-66"/>
			<point x="517" y="-28"/>
			<point x="581" y="0" type="curve"/>
			<point x="606" y="184" type="line"/>
			<point x="548" y="184" type="line"/>
			<point x="533" y="143" type="line" smooth="yes"/>
			<point x="506" y="69"/>
			<point x="479" y="58"/>
			<point x="423" y="58" type="curve" smooth="yes"/>
			<point x="250" y="58" type="line"/>
			<point x="260" y="328" type="line"/>
			<point x="528" y="328" type="line"/>
			<point x="533" y="391" type="line"/>
			<point x="261" y="391" type="line"/>
			<point x="271" y="643" type="line"/>
			<point x="425" y="643" type="line" smooth="yes"/>
			<point x="488" y="643"/>
			<point x="507" y="628"/>
			<point x="530" y="559" type="curve" smooth="yes"/>
			<point x="542" y="523" type="line"/>
			<point x="600" y="532" type="line"/>
			<point x="584" y="700" type="line"/>
			<point x="96" y="700" type="line"/>
			<point x="89" y="654" type="line"/>
			<point x="183" y="637" type="line"/>
			<point x="160" y="59" type="line"/>
			<point x="71" y="46" type="line"/>
		</contour>
	</outline>
</glyph>
<glyph name="hbar" format="2">
	<unicode hex="0127"/>
	<advance width="651"/>
	<outline>
		<contour>
			<point x="505" y="-13" type="curve" smooth="yes"/>
			<point x="550" y="-13"/>
			<point x="606" y="15"/>
			<point x="630" y="36" type="curve"/>
			<point x="605" y="76" type="line"/>
			<point x="584" y="61"/>
			<point x="560" y="52"/>
			<point x="544" y="52" type="curve" smooth="yes"/>
			<point x="521" y="52"/>
			<point x="515" y="63"/>
			<point x="518" y="95" type="curve" smooth="yes"/>
			<point x="541" y="359" type="line" smooth="yes"/>
			<point x="549" y="446"/>
			<point x="541" y="532"/>
			<point x="428" y="532" type="curve" smooth="yes"/>
			<point x="346" y="532"/>
			<point x="303" y="494"/>
			<point x="265" y="378" type="curve" smooth="yes"/>
			<point x="183" y="127" type="line"/>
			<point x="173" y="129" type="line"/>
			<point x="204" y="409" type="line"/>
			<point x="211" y="581" type="line"/>
			<point x="369" y="581" type="line"/>
			<point x="373" y="638" type="line"/>
			<point x="213" y="638" type="line"/>
			<point x="218" y="756" type="line"/>
			<point x="201" y="767" type="line"/>
			<point x="35" y="767" type="line"/>
			<point x="29" y="719" type="line"/>
			<point x="130" y="698" type="line"/>
			<point x="128" y="638" type="line"/>
			<point x="25" y="638" type="line"/>
			<point x="20" y="581" type="line"/>
			<point x="126" y="581" type="line"/>
			<point x="105" y="0" type="line"/>
			<point x="193" y="0" type="line"/>
			<point x="318" y="341" type="line" smooth="yes"/>
			<point x="347" y="420"/>
			<point x="362" y="458"/>
			<point x="410" y="458" type="curve" smooth="yes"/>
			<point x="445" y="458"/>
			<point x="460" y="437"/>
			<point x="454" y="365" type="curve" smooth="yes"/>
			<point x="428" y="72" type="line" smooth="yes"/>
			<point x="424" y="24"/>
			<point x="442" y="-13"/>
		</contour>
	</outline>
</glyph>
<glyph name="Iogonek" format="2">
	<unicode hex="012E"/>
	<advance width="399"/>
	<outline>
		<contour>
			<point x="65" y="0" type="line"/>
			<point x="207" y="0" type="line"/>
			<point x="155" y="-37"/>
			<point x="91" y="-92"/>
			<point x="91" y="-155" type="curve" smooth="yes"/>
			<point x="91" y="-204"/>
			<point x="129" y="-229"/>
			<point x="171" y="-229" type="curve" smooth="yes"/>
			<point x="229" y="-229"/>
			<point x="278" y="-197"/>
			<point x="305" y="-158" type="curve"/>
			<point x="273" y="-128" type="line"/>
			<point x="254" y="-147"/>
			<point x="231" y="-160"/>
			<point x="212" y="-160" type="curve" smooth="yes"/>
			<point x="189" y="-160"/>
			<point x="178" y="-149"/>
			<point x="178" y="-128" type="curve" smooth="yes"/>
			<point x="178" y="-81"/>
			<point x="223" y="-33"/>
			<point x="266" y="0" type="curve"/>
			<point x="347" y="0" type="line"/>
			<point x="353" y="46" type="line"/>
			<point x="250" y="59" type="line"/>
			<point x="271" y="637" type="line"/>
			<point x="363" y="654" type="line"/>
			<point x="370" y="700" type="line"/>
			<point x="98" y="700" type="line"/>
			<point x="92" y="654" type="line"/>
			<point x="185" y="637" type="line"/>
			<point x="160" y="59" type="line"/>
			<point x="71" y="46" type="line"/>
		</contour>
	</outline>
</glyph>
<glyph name="Lslash" format="2">
	<unicode hex="0141"/>
	<advance width="638"/>
	<outline>
		<contour>
			<point x="65" y="0" type="line"/>
			<point x="570" y="0" type="line"/>
			<point x="595" y="184" type="line"/>
			<point x="537" y="184" type="line"/>
			<point x="522" y="143" type="line" smooth="yes"/>
			<point x="495" y="69"/>
			<point x="467" y="58"/>
			<point x="412" y="58" type="curve" smooth="yes"/>
			<point x="250" y="58" type="line"/>
			<point x="260" y="328" type="line"/>
			<point x="459" y="434" type="line"/>
			<point x="466" y="504" type="line"/>
			<point x="262" y="395" type="line"/>
			<point x="271" y="637" type="line"/>
			<point x="385" y="654" type="line"/>
			<point x="391" y="700" type="line"/>
			<point x="96" y="700" type="line"/>
			<point x="89" y="654" type="line"/>
			<point x="183" y="637" type="line"/>
			<point x="172" y="361" type="line"/>
			<point x="51" y="297" type="line"/>
			<point x="44" y="227" type="line"/>
			<point x="169" y="294" type="line"/>
			<point x="160" y="59" type="line"/>
			<point x="71" y="46" type="line"/>
		</contour>
	</outline>
</glyph>
<glyph name="OE" format="2">
	<unicode hex="0152"/>
	<advance width="1112"/>
	<outline>
		<contour>
			<point x="71" y="331" type="curve" smooth="yes"/>
			<point x="71" y="120"/>
			<point x="197" y="-14"/>
			<point x="389" y="-14" type="curve" smooth="yes"/>
			<point x="425" y="-14"/>
			<point x="459" y="-9"/>
			<point x="490" y="0" type="curve"/>
			<point x="1044" y="0" type="line"/>
			<point x="1069" y="184" type="line"/>
			<point x="1011" y="184" type="line"/>
			<point x="996" y="143" type="line" smooth="yes"/>
			<point x="969" y="69"/>
			<point x="941" y="58"/>
			<point x="886" y="58" type="curve" smooth="yes"/>
			<point x="601" y="58" type="line"/>
			<point x="673" y="118"/>
			<point x="719" y="211"/>
			<point x="730" y="328" type="curve"/>
			<point x="991" y="328" type="line"/>
			<point x="996" y="391" type="line"/>
			<point x="732" y="391" type="line"/>
			<point x="729" y="500"/>
			<point x="692" y="587"/>
			<point x="628" y="643" type="curve"/>
			<point x="888" y="643" type="line" smooth="yes"/>
			<point x="951" y="643"/>
			<point x="970" y="628"/>
			<point x="993" y="559" type="curve" smooth="yes"/>
			<point x="1005" y="523" type="line"/>
			<point x="1063" y="532" type="line"/>
			<point x="1047" y="700" type="line"/>
			<point x="525" y="700" type="line"/>
			<point x="493" y="710"/>
			<point x="458" y="715"/>
			<point x="420" y="715" type="curve" smooth="yes"/>
			<point x="206" y="715"/>
			<point x="71" y="566"/>
		</contour>
		<contour>
			<point x="169" y="352" type="curve" smooth="yes"/>
			<point x="169" y="542"/>
			<point x="256" y="653"/>
			<point x="405" y="653" type="curve" smooth="yes"/>
			<point x="547" y="653"/>
			<point x="631" y="547"/>
			<point x="631" y="361" type="curve" smooth="yes"/>
			<point x="631" y="164"/>
			<point x="548" y="51"/>
			<point x="402" y="51" type="curve" smooth="yes"/>
			<point x="260" y="51"/>
			<point x="169" y="165"/>
		</contour>
	</outline>
</glyph>
<glyph name="Scedilla" format="2">
	<unicode hex="015E"/>
	<advance width="560"/>
	<outline>
		<contour>
			<point x="276" y="-231" type="curve" smooth="yes"/>
			<point x="343" y="-231"/>
			<point x="394" y="-192"/>
			<point x="394" y="-132" type="curve" smooth="yes"/>
			<point x="394" y="-76"/>
			<point x="352" y="-52"/>
			<point x="295" y="-54" type="curve"/>
			<point x="309" y="-11" type="line"/>
			<point x="434" y="3"/>
			<point x="517" y="77"/>
			<point x="517" y="187" type="curve" smooth="yes"/>
			<point x="517" y="273"/>
			<point x="482" y="319"/>
			<point x="349" y="386" type="curve" smooth="yes"/>
			<point x="198" y="462"/>
			<point x="170" y="490"/>
			<point x="170" y="551" type="curve" smooth="yes"/>
			<point x="170" y="615"/>
			<point x="228" y="653"/>
			<point x="319" y="653" type="curve" smooth="yes"/>
			<point x="394" y="653"/>
			<point x="432" y="621"/>
			<point x="409" y="579" type="curve" smooth="yes"/>
			<point x="389" y="542" type="line"/>
			<point x="406" y="528"/>
			<point x="429" y="515"/>
			<point x="459" y="515" type="curve" smooth="yes"/>
			<point x="499" y="515"/>
			<point x="522" y="544"/>
			<point x="522" y="582" type="curve" smooth="yes"/>
			<point x="522" y="656"/>
			<point x="436" y="715"/>
			<point x="327" y="715" type="curve" smooth="yes"/>
			<point x="186" y="715"/>
			<point x="86" y="637"/>
			<point x="86" y="527" type="curve" smooth="yes"/>
			<point x="86" y="434"/>
			<point x="138" y="385"/>
			<point x="282" y="316" type="curve" smooth="yes"/>
			<point x="401" y="259"/>
			<point x="434" y="221"/>
			<point x="434" y="171" type="curve" smooth="yes"/>
			<point x="434" y="94"/>
			<point x="368" y="49"/>
			<point x="268" y="49" type="curve" smooth="yes"/>
			<point x="189" y="49"/>
			<point x="151" y="81"/>
			<point x="175" y="128" type="curve" smooth="yes"/>
			<point x="192" y="161" type="line"/>
			<point x="175" y="177"/>
			<point x="153" y="190"/>
			<point x="127" y="190" type="curve" smooth="yes"/>
			<point x="83" y="190"/>
			<point x="55" y="158"/>
			<point x="55" y="115" type="curve" smooth="yes"/>
			<point x="55" y="41"/>
			<point x="140" y="-12"/>
			<point x="256" y="-14" type="curve"/>
			<point x="236" y="-78" type="line"/>
			<point x="244" y="-99" type="line"/>
			<point x="279" y="-96"/>
			<point x="318" y="-99"/>
			<point x="318" y="-135" type="curve" smooth="yes"/>
			<point x="318" y="-164"/>
			<point x="298" y="-176"/>
			<point x="267" y="-176" type="curve" smooth="yes"/>
			<point x="247" y="-176"/>
			<point x="218" y="-169"/>
			<point x="204" y="-162" type="curve"/>
			<point x="188" y="-211" type="line"/>
			<point x="210" y="-223"/>
			<point x="248" y="-231"/>
		</contour>
	</outline>
</glyph>
<glyph name="scedilla" format="2">
	<unicode hex="015F"/>
	<advance width="478"/>
	<outline>
		<contour>
			<point x="220" y="-229" type="curve" smooth="yes"/>
			<point x="287" y="-229"/>
			<point x="338" y="-190"/>
			<point x="338" y="-130" type="curve" smooth="yes"/>
			<point x="338" y="-74"/>
			<point x="296" y="-50"/>
			<point x="239" y="-52" type="curve"/>
			<point x="252" y="-12" type="line"/>
			<point x="355" y="0"/>
			<point x="414" y="67"/>
			<point x="414" y="151" type="curve" smooth="yes"/>
			<point x="414" y="242"/>
			<point x="338" y="277"/>
			<point x="268" y="310" type="curve" smooth="yes"/>
			<point x="215" y="335"/>
			<point x="167" y="360"/>
			<point x="167" y="405" type="curve" smooth="yes"/>
			<point x="167" y="442"/>
			<point x="193" y="476"/>
			<point x="271" y="476" type="curve" smooth="yes"/>
			<point x="321" y="476"/>
			<point x="334" y="457"/>
			<point x="329" y="430" type="curve" smooth="yes"/>
			<point x="323" y="399" type="line"/>
			<point x="333" y="389"/>
			<point x="353" y="379"/>
			<point x="377" y="379" type="curve" smooth="yes"/>
			<point x="412" y="379"/>
			<point x="430" y="404"/>
			<point x="429" y="433" type="curve" smooth="yes"/>
			<point x="427" y="487"/>
			<point x="358" y="532"/>
			<point x="275" y="532" type="curve" smooth="yes"/>
			<point x="133" y="532"/>
			<point x="87" y="443"/>
			<point x="87" y="385" type="curve" smooth="yes"/>
			<point x="87" y="293"/>
			<point x="164" y="258"/>
			<point x="231" y="228" type="curve" smooth="yes"/>
			<point x="286" y="203"/>
			<point x="337" y="179"/>
			<point x="337" y="128" type="curve" smooth="yes"/>
			<point x="337" y="77"/>
			<point x="292" y="46"/>
			<point x="231" y="46" type="curve" smooth="yes"/>
			<point x="175" y="46"/>
			<point x="156" y="61"/>
			<point x="156" y="98" type="curve" smooth="yes"/>
			<point x="156" y="126" type="line"/>
			<point x="146" y="132"/>
			<point x="128" y="140"/>
			<point x="109" y="140" type="curve" smooth="yes"/>
			<point x="75" y="140"/>
			<point x="49" y="119"/>
			<point x="49" y="81" type="curve" smooth="yes"/>
			<point x="49" y="30"/>
			<point x="112" y="-9"/>
			<point x="200" y="-13" type="curve"/>
			<point x="180" y="-76" type="line"/>
			<point x="188" y="-97" type="line"/>
			<point x="223" y="-94"/>
			<point x="262" y="-97"/>
			<point x="262" y="-133" type="curve" smooth="yes"/>
			<point x="262" y="-162"/>
			<point x="242" y="-174"/>
			<point x="211" y="-174" type="curve" smooth="yes"/>
			<point x="191" y="-174"/>
			<point x="162" y="-167"/>
			<point x="148" y="-160" type="curve"/>
			<point x="132" y="-209" type="line"/>
			<point x="154" y="-221"/>
			<point x="192" y="-229"/>
		</contour>
	</outline>
</glyph>
<glyph name="Tcedilla" format="2">
	<unicode hex="0162"/>
	<advance width="681"/>
	<outline>
		<contour>
			<point x="336" y="-229" type="curve" smooth="yes"/>
			<point x="403" y="-229"/>
			<point x="454" y="-190"/>
			<point x="454" y="-130" type="curve" smooth="yes"/>
			<point x="454" y="-74"/>
			<point x="412" y="-50"/>
			<point x="355" y="-52" type="curve"/>
			<point x="372" y="0" type="line"/>
			<point x="498" y="0" type="line"/>
			<point x="504" y="46" type="line"/>
			<point x="388" y="58" type="line"/>
			<point x="407" y="643" type="line"/>
			<point x="506" y="643" type="line" smooth="yes"/>
			<point x="567" y="643"/>
			<point x="585" y="628"/>
			<point x="609" y="562" type="curve" smooth="yes"/>
			<point x="623" y="523" type="line"/>
			<point x="680" y="533" type="line"/>
			<point x="665" y="700" type="line"/>
			<point x="70" y="700" type="line"/>
			<point x="45" y="534" type="line"/>
			<point x="104" y="523" type="line"/>
			<point x="118" y="562" type="line" smooth="yes"/>
			<point x="142" y="630"/>
			<point x="162" y="643"/>
			<point x="224" y="643" type="curve" smooth="yes"/>
			<point x="320" y="643" type="line"/>
			<point x="299" y="59" type="line"/>
			<point x="188" y="46" type="line"/>
			<point x="182" y="0" type="line"/>
			<point x="320" y="0" type="line"/>
			<point x="296" y="-76" type="line"/>
			<point x="304" y="-97" type="line"/>
			<point x="339" y="-94"/>
			<point x="378" y="-97"/>
			<point x="378" y="-133" type="curve" smooth="yes"/>
			<point x="378" y="-162"/>
			<point x="358" y="-174"/>
			<point x="327" y="-174" type="curve" smooth="yes"/>
			<point x="307" y="-174"/>
			<point x="278" y="-167"/>
			<point x="264" y="-160" type="curve"/>
			<point x="248" y="-209" type="line"/>
			<point x="270" y="-221"/>
			<point x="308" y="-229"/>
		</contour>
	</outline>
</glyph>
<glyph name="tbar" format="2">
	<unicode hex="0167"/>
	<advance width="459"/>
	<outline>
		<contour>
			<point x="260" y="-14" type="curve" smooth="yes"/>
			<point x="328" y="-14"/>
			<point x="387" y="23"/>
			<point x="424" y="70" type="curve"/>
			<point x="388" y="108" type="line"/>
			<point x="355" y="78"/>
			<point x="321" y="56"/>
			<point x="280" y="56" type="curve" smooth="yes"/>
			<point x="226" y="56"/>
			<point x="207" y="88"/>
			<point x="209" y="141" type="curve" smooth="yes"/>
			<point x="214" y="262" type="line"/>
			<point x="385" y="262" type="line"/>
			<point x="390" y="325" type="line"/>
			<point x="217" y="325" type="line"/>
			<point x="223" y="457" type="line"/>
			<point x="393" y="457" type="line"/>
			<point x="397" y="519" type="line"/>
			<point x="226" y="519" type="line"/>
			<point x="237" y="674" type="line"/>
			<point x="181" y="674" type="line"/>
			<point x="138" y="521" type="line"/>
			<point x="55" y="513" type="line"/>
			<point x="48" y="457" type="line"/>
			<point x="131" y="457" type="line"/>
			<point x="127" y="325" type="line"/>
			<point x="45" y="325" type="line"/>
			<point x="37" y="262" type="line"/>
			<point x="125" y="262" type="line"/>
			<point x="121" y="133" type="line" smooth="yes"/>
			<point x="118" y="43"/>
			<point x="155" y="-14"/>
		</contour>
	</outline>
</glyph>
<glyph name="Schwa" format="2">
	<unicode hex="018F"/>
	<advance width="718"/>
	<outline>
		<contour>
			<point x="319" y="-14" type="curve" smooth="yes"/>
			<point x="530" y="-14"/>
			<point x="667" y="145"/>
			<point x="667" y="379" type="curve" smooth="yes"/>
			<point x="667" y="584"/>
			<point x="560" y="714"/>
			<point x="383" y="714" type="curve" smooth="yes"/>
			<point x="265" y="714"/>
			<point x="168" y="668"/>
			<point x="83" y="569" type="curve"/>
			<point x="123" y="532" type="line"/>
			<point x="207" y="607"/>
			<point x="269" y="646"/>
			<point x="366" y="646" type="curve" smooth="yes"/>
			<point x="484" y="646"/>
			<point x="571" y="580"/>
			<point x="571" y="360" type="curve"/>
			<point x="91" y="360" type="line"/>
			<point x="75" y="314"/>
			<point x="67" y="268"/>
			<point x="67" y="224" type="curve" smooth="yes"/>
			<point x="67" y="84"/>
			<point x="157" y="-14"/>
		</contour>
		<contour>
			<point x="330" y="51" type="curve" smooth="yes"/>
			<point x="217" y="51"/>
			<point x="157" y="108"/>
			<point x="157" y="211" type="curve" smooth="yes"/>
			<point x="157" y="238"/>
			<point x="160" y="265"/>
			<point x="166" y="293" type="curve"/>
			<point x="567" y="293" type="line"/>
			<point x="546" y="142"/>
			<point x="473" y="51"/>
		</contour>
	</outline>
</glyph>
<glyph name="Ohorn" format="2">
	<unicode hex="01A0"/>
	<advance width="874"/>
	<outline>
		<contour>
			<point x="389" y="-14" type="curve" smooth="yes"/>
			<point x="595" y="-14"/>
			<point x="732" y="143"/>
			<point x="732" y="379" type="curve" smooth="yes"/>
			<point x="732" y="410"/>
			<point x="729" y="438"/>
			<point x="724" y="465" type="curve"/>
			<point x="836" y="502"/>
			<point x="889" y="596"/>
			<point x="889" y="679" type="curve" smooth="yes"/>
			<point x="889" y="729"/>
			<point x="859" y="762"/>
			<point x="816" y="762" type="curve" smooth="yes"/>
			<point x="770" y="762"/>
			<point x="746" y="731"/>
			<point x="746" y="693" type="curve" smooth="yes"/>
			<point x="746" y="679"/>
			<point x="750" y="666"/>
			<point x="757" y="655" type="curve"/>
			<point x="787" y="651" type="line" smooth="yes"/>
			<point x="803" y="649"/>
			<point x="809" y="641"/>
			<point x="809" y="626" type="curve" smooth="yes"/>
			<point x="809" y="573"/>
			<point x="753" y="535"/>
			<point x="710" y="519" type="curve"/>
			<point x="666" y="643"/>
			<point x="562" y="715"/>
			<point x="420" y="715" type="curve" smooth="yes"/>
			<point x="206" y="715"/>
			<point x="71" y="566"/>
			<point x="71" y="331" type="curve" smooth="yes"/>
			<point x="71" y="120"/>
			<point x="197" y="-14"/>
		</contour>
		<contour>
			<point x="402" y="51" type="curve" smooth="yes"/>
			<point x="260" y="51"/>
			<point x="169" y="165"/>
			<point x="169" y="352" type="curve" smooth="yes"/>
			<point x="169" y="542"/>
			<point x="256" y="653"/>
			<point x="405" y="653" type="curve" smooth="yes"/>
			<point x="547" y="653"/>
			<point x="631" y="547"/>
			<point x="631" y="361" type="curve" smooth="yes"/>
			<point x="631" y="164"/>
			<point x="548" y="51"/>
		</contour>
	</outline>
</glyph>
<glyph name="Oogonek" format="2">
	<unicode hex="01EA"/>
	<advance width="783"/>
	<outline>
		<contour>
			<point x="404" y="-229" type="curve" smooth="yes"/>
			<point x="462" y="-229"/>
			<point x="511" y="-197"/>
			<point x="538" y="-158" type="curve"/>
			<point x="506" y="-128" type="line"/>
			<point x="487" y="-147"/>
			<point x="464" y="-160"/>
			<point x="445" y="-160" type="curve" smooth="yes"/>
			<point x="422" y="-160"/>
			<point x="411" y="-149"/>
			<point x="411" y="-128" type="curve" smooth="yes"/>
			<point x="411" y="-79"/>
			<point x="460" y="-29"/>
			<point x="505" y="5" type="curve"/>
			<point x="645" y="53"/>
			<point x="732" y="191"/>
			<point x="732" y="379" type="curve" smooth="yes"/>
			<point x="732" y="586"/>
			<point x="610" y="715"/>
			<point x="420" y="715" type="curve" smooth="yes"/>
			<point x="206" y="715"/>
			<point x="71" y="566"/>
			<point x="71" y="331" type="curve" smooth="yes"/>
			<point x="71" y="120"/>
			<point x="197" y="-14"/>
			<point x="389" y="-14" type="curve" smooth="yes"/>
			<point x="400" y="-14"/>
			<point x="412" y="-14"/>
			<point x="422" y="-13" type="curve"/>
			<point x="375" y="-49"/>
			<point x="324" y="-99"/>
			<point x="324" y="-155" type="curve" smooth="yes"/>
			<point x="324" y="-204"/>
			<point x="362" y="-229"/>
		</contour>
		<contour>
			<point x="402" y="51" type="curve" smooth="yes"/>
			<point x="260" y="51"/>
			<point x="169" y="165"/>
			<point x="169" y="352" type="curve" smooth="yes"/>
			<point x="169" y="542"/>
			<point x="256" y="653"/>
			<point x="405" y="653" type="curve" smooth="yes"/>
			<point x="547" y="653"/>
			<point x="631" y="547"/>
			<point x="631" y="361" type="curve" smooth="yes"/>
			<point x="631" y="164"/>
			<point x="548" y="51"/>
		</contour>
	</outline>
</glyph>
<glyph name="oogonek" format="2">
	<unicode hex="01EB"/>
	<advance width="594"/>
	<outline>
		<contour>
			<point x="281" y="-229" type="curve" smooth="yes"/>
			<point x="339" y="-229"/>
			<point x="388" y="-197"/>
			<point x="415" y="-158" type="curve"/>
			<point x="383" y="-128" type="line"/>
			<point x="364" y="-147"/>
			<point x="341" y="-160"/>
			<point x="322" y="-160" type="curve" smooth="yes"/>
			<point x="299" y="-160"/>
			<point x="288" y="-149"/>
			<point x="288" y="-128" type="curve" smooth="yes"/>
			<point x="288" y="-80"/>
			<point x="335" y="-31"/>
			<point x="379" y="2" type="curve"/>
			<point x="489" y="44"/>
			<point x="535" y="157"/>
			<point x="535" y="277" type="curve" smooth="yes"/>
			<point x="535" y="428"/>
			<point x="450" y="532"/>
			<point x="310" y="532" type="curve" smooth="yes"/>
			<point x="128" y="532"/>
			<point x="59" y="391"/>
			<point x="59" y="242" type="curve" smooth="yes"/>
			<point x="59" y="89"/>
			<point x="140" y="-14"/>
			<point x="281" y="-14" type="curve" smooth="yes"/>
			<point x="287" y="-14"/>
			<point x="292" y="-14"/>
			<point x="298" y="-14" type="curve"/>
			<point x="251" y="-50"/>
			<point x="201" y="-100"/>
			<point x="201" y="-155" type="curve" smooth="yes"/>
			<point x="201" y="-204"/>
			<point x="239" y="-229"/>
		</contour>
		<contour>
			<point x="287" y="46" type="curve" smooth="yes"/>
			<point x="204" y="46"/>
			<point x="157" y="117"/>
			<point x="157" y="239" type="curve" smooth="yes"/>
			<point x="157" y="359"/>
			<point x="186" y="472"/>
			<point x="302" y="472" type="curve" smooth="yes"/>
			<point x="391" y="472"/>
			<point x="437" y="404"/>
			<point x="437" y="277" type="curve" smooth="yes"/>
			<point x="437" y="158"/>
			<point x="404" y="46"/>
		</contour>
	</outline>
</glyph>
<glyph name="jdotless" format="2">
	<unicode hex="0237"/>
	<advance width="274"/>
	<outline>
		<contour>
			<point x="198" y="122" type="curve" smooth="yes"/>
			<point x="209" y="419" type="line"/>
			<point x="214" y="497"/>
			<point x="189" y="532"/>
			<point x="132" y="532" type="curve" smooth="yes"/>
			<point x="86" y="532"/>
			<point x="33" y="512"/>
			<point x="6" y="497" type="curve"/>
			<point x="24" y="449" type="line"/>
			<point x="54" y="461"/>
			<point x="76" y="465"/>
			<point x="94" y="465" type="curve" smooth="yes"/>
			<point x="117" y="465"/>
			<point x="122" y="456"/>
			<point x="121" y="424" type="curve" smooth="yes"/>
			<point x="105" y="23" type="line" smooth="yes"/>
			<point x="103" y="-29"/>
			<point x="102" y="-49"/>
			<point x="98" y="-82" type="curve" smooth="yes"/>
			<point x="92" y="-133"/>
			<point x="56" y="-139"/>
			<point x="20" y="-125" type="curve" smooth="yes"/>
			<point x="-24" y="-108" type="line"/>
			<point x="-43" y="-128"/>
			<point x="-53" y="-145"/>
			<point x="-53" y="-170" type="curve" smooth="yes"/>
			<point x="-53" y="-203"/>
			<point x="-28" y="-229"/>
			<point x="23" y="-229" type="curve" smooth="yes"/>
			<point x="51" y="-229"/>
			<point x="86" y="-213"/>
			<point x="112" y="-183" type="curve" smooth="yes"/>
			<point x="162" y="-125"/>
			<point x="194" y="11"/>
		</contour>
	</outline>
	<anchor name="top" x="123" y="550"/>
</glyph>
<glyph name="commaturnedmod" format="2">
	<unicode hex="02BB"/>
	<outline>
		<contour>
			<point x="50" y="794" type="line"/>
			<point x="-19" y="750"/>
			<point x="-54" y="697"/>
			<point x="-54" y="644" type="curve" smooth="yes"/>
			<point x="-54" y="610"/>
			<point x="-31" y="578"/>
			<point x="13" y="578" type="curve" smooth="yes"/>
			<point x="64" y="578"/>
			<point x="86" y="627"/>
			<point x="72" y="660" type="curve"/>
			<point x="42" y="670" type="line" smooth="yes"/>
			<point x="31" y="674"/>
			<point x="26" y="678"/>
			<point x="26" y="689" type="curve" smooth="yes"/>
			<point x="26" y="715"/>
			<point x="54" y="743"/>
			<point x="77" y="760" type="curve"/>
		</contour>
	</outline>
	<anchor name="_top" x="10" y="550"/>
</glyph>
<glyph name="caron" format="2">
	<unicode hex="02C7"/>
	<advance width="503"/>
	<outline>
		<contour>
			<point x="115" y="758" type="line"/>
			<point x="245" y="594" type="line"/>
			<point x="255" y="591"/>
			<point x="262" y="590"/>
			<point x="274" y="590" type="curve" smooth="yes"/>
			<point x="290" y="590"/>
			<point x="304" y="599"/>
			<point x="322" y="621" type="curve" smooth="yes"/>
			<point x="435" y="758" type="line"/>
			<point x="409" y="785" type="line"/>
			<point x="277" y="685" type="line"/>
			<point x="144" y="787" type="line"/>
		</contour>
	</outline>
	<anchor name="_top" x="270" y="550"/>
</glyph>
<glyph name="dotaccent" format="2">
	<unicode hex="02D9"/>
	<advance width="486"/>
	<outline>
		<contour>
			<point x="196" y="686" type="curve" smooth="yes"/>
			<point x="196" y="647"/>
			<point x="225" y="620"/>
			<point x="266" y="620" type="curve" smooth="yes"/>
			<point x="306" y="620"/>
			<point x="333" y="648"/>
			<point x="333" y="687" type="curve" smooth="yes"/>
			<point x="333" y="726"/>
			<point x="305" y="753"/>
			<point x="265" y="753" type="curve" smooth="yes"/>
			<point x="224" y="753"/>
			<point x="196" y="725"/>
		</contour>
	</outline>
	<anchor name="_top" x="263" y="550"/>
</glyph>
<glyph name="ring" format="2">
	<unicode hex="02DA"/>
	<advance width="476"/>
	<outline>
		<contour>
			<point x="249" y="593" type="curve" smooth="yes"/>
			<point x="324" y="593"/>
			<point x="367" y="640"/>
			<point x="367" y="708" type="curve" smooth="yes"/>
			<point x="367" y="774"/>
			<point x="333" y="812"/>
			<point x="259" y="812" type="curve" smooth="yes"/>
			<point x="180" y="812"/>
			<point x="139" y="762"/>
			<point x="139" y="700" type="curve" smooth="yes"/>
			<point x="139" y="632"/>
			<point x="170" y="593"/>
		</contour>
		<contour>
			<point x="253" y="644" type="curve" smooth="yes"/>
			<point x="214" y="644"/>
			<point x="203" y="669"/>
			<point x="203" y="701" type="curve" smooth="yes"/>
			<point x="203" y="733"/>
			<point x="218" y="762"/>
			<point x="255" y="762" type="curve" smooth="yes"/>
			<point x="291" y="762"/>
			<point x="304" y="738"/>
			<point x="304" y="705" type="curve" smooth="yes"/>
			<point x="304" y="671"/>
			<point x="291" y="644"/>
		</contour>
	</outline>
	<anchor name="_top" x="245" y="550"/>
</glyph>
<glyph name="ogonek" format="2">
	<unicode hex="02DB"/>
	<advance width="487"/>
	<outline>
		<contour>
			<point x="337" y="9" type="curve"/>
			<point x="279" y="9" type="line"/>
			<point x="225" y="-27"/>
			<point x="150" y="-87"/>
			<point x="150" y="-155" type="curve" smooth="yes"/>
			<point x="150" y="-204"/>
			<point x="188" y="-229"/>
			<point x="230" y="-229" type="curve" smooth="yes"/>
			<point x="288" y="-229"/>
			<point x="337" y="-197"/>
			<point x="364" y="-158" type="curve"/>
			<point x="332" y="-128" type="line"/>
			<point x="313" y="-147"/>
			<point x="290" y="-160"/>
			<point x="271" y="-160" type="curve" smooth="yes"/>
			<point x="248" y="-160"/>
			<point x="237" y="-149"/>
			<point x="237" y="-128" type="curve" smooth="yes"/>
			<point x="237" y="-77"/>
			<point x="291" y="-24"/>
		</contour>
	</outline>
	<anchor name="_bottom" x="248" y="-30"/>
</glyph>
<glyph name="tilde" format="2">
	<unicode hex="02DC"/>
	<advance width="488"/>
	<outline>
		<contour>
			<point x="334" y="620" type="curve" smooth="yes"/>
			<point x="374" y="620"/>
			<point x="404" y="640"/>
			<point x="438" y="713" type="curve"/>
			<point x="400" y="736" type="line"/>
			<point x="380" y="706"/>
			<point x="368" y="697"/>
			<point x="349" y="697" type="curve" smooth="yes"/>
			<point x="334" y="697"/>
			<point x="313" y="703"/>
			<point x="279" y="718" type="curve" smooth="yes"/>
			<point x="224" y="742"/>
			<point x="210" y="746"/>
			<point x="190" y="746" type="curve" smooth="yes"/>
			<point x="153" y="746"/>
			<point x="128" y="730"/>
			<point x="94" y="657" type="curve"/>
			<point x="132" y="634" type="line"/>
			<point x="153" y="665"/>
			<point x="162" y="670"/>
			<point x="175" y="670" type="curve" smooth="yes"/>
			<point x="185" y="670"/>
			<point x="208" y="662"/>
			<point x="245" y="644" type="curve" smooth="yes"/>
			<point x="284" y="625"/>
			<point x="311" y="620"/>
		</contour>
	</outline>
	<anchor name="_top" x="247" y="550"/>
</glyph>
<glyph name="horncomb" format="2">
	<unicode hex="031B"/>
	<outline>
		<contour>
			<point x="-105" y="421" type="curve"/>
			<point x="-107" y="363" type="line"/>
			<point x="21" y="393"/>
			<point x="81" y="494"/>
			<point x="81" y="583" type="curve" smooth="yes"/>
			<point x="81" y="633"/>
			<point x="51" y="666"/>
			<point x="8" y="666" type="curve" smooth="yes"/>
			<point x="-38" y="666"/>
			<point x="-62" y="635"/>
			<point x="-62" y="597" type="curve" smooth="yes"/>
			<point x="-62" y="583"/>
			<point x="-58" y="570"/>
			<point x="-51" y="559" type="curve"/>
			<point x="-21" y="555" type="line" smooth="yes"/>
			<point x="-5" y="553"/>
			<point x="1" y="545"/>
			<point x="1" y="530" type="curve" smooth="yes"/>
			<point x="1" y="474"/>
			<point x="-61" y="435"/>
		</contour>
	</outline>
</glyph>
<glyph name="commaaccentcomb" format="2">
	<unicode hex="0326"/>
	<outline>
		<contour>
			<point x="-49" y="-272" type="line"/>
			<point x="20" y="-228"/>
			<point x="55" y="-175"/>
			<point x="55" y="-122" type="curve" smooth="yes"/>
			<point x="55" y="-88"/>
			<point x="32" y="-56"/>
			<point x="-12" y="-56" type="curve" smooth="yes"/>
			<point x="-63" y="-56"/>
			<point x="-85" y="-105"/>
			<point x="-71" y="-138" type="curve"/>
			<point x="-41" y="-148" type="line" smooth="yes"/>
			<point x="-30" y="-152"/>
			<point x="-25" y="-156"/>
			<point x="-25" y="-167" type="curve" smooth="yes"/>
			<point x="-25" y="-193"/>
			<point x="-53" y="-221"/>
			<point x="-76" y="-238" type="curve"/>
		</contour>
	</outline>
	<anchor name="_bottom" x="-10" y="-30"/>
</glyph>
<glyph name="numeral-greek" format="2">
	<unicode hex="0374"/>
	<advance width="338"/>
	<outline>
		<contour>
			<point x="97" y="510" type="line"/>
			<point x="257" y="693" type="line"/>
			<point x="258" y="708" type="line"/>
			<point x="241" y="747"/>
			<point x="225" y="761"/>
			<point x="196" y="761" type="curve" smooth="yes"/>
			<point x="171" y="761"/>
			<point x="157" y="749"/>
			<point x="142" y="716" type="curve" smooth="yes"/>
			<point x="62" y="529" type="line"/>
		</contour>
	</outline>
</glyph>
<glyph name="dieresistonos" format="2">
	<unicode hex="0385"/>
	<advance width="583"/>
	<outline>
		<contour>
			<point x="266" y="574" type="line"/>
			<point x="411" y="751" type="line"/>
			<point x="411" y="766" type="line"/>
			<point x="392" y="800"/>
			<point x="375" y="814"/>
			<point x="349" y="814" type="curve" smooth="yes"/>
			<point x="320" y="814"/>
			<point x="307" y="802"/>
			<point x="294" y="764" type="curve" smooth="yes"/>
			<point x="230" y="590" type="line"/>
		</contour>
		<contour>
			<point x="96" y="680" type="curve" smooth="yes"/>
			<point x="96" y="644"/>
			<point x="120" y="620"/>
			<point x="154" y="620" type="curve" smooth="yes"/>
			<point x="193" y="620"/>
			<point x="220" y="647"/>
			<point x="220" y="685" type="curve" smooth="yes"/>
			<point x="220" y="721"/>
			<point x="196" y="745"/>
			<point x="160" y="745" type="curve" smooth="yes"/>
			<point x="123" y="745"/>
			<point x="96" y="718"/>
		</contour>
		<contour>
			<point x="413" y="680" type="curve" smooth="yes"/>
			<point x="413" y="645"/>
			<point x="437" y="620"/>
			<point x="470" y="620" type="curve" smooth="yes"/>
			<point x="510" y="620"/>
			<point x="537" y="647"/>
			<point x="537" y="685" type="curve" smooth="yes"/>
			<point x="537" y="721"/>
			<point x="513" y="745"/>
			<point x="477" y="745" type="curve" smooth="yes"/>
			<point x="440" y="745"/>
			<point x="413" y="718"/>
		</contour>
	</outline>
	<anchor name="_top" x="268" y="550"/>
</glyph>
<glyph name="Lambda" format="2">
	<unicode hex="039B"/>
	<advance width="739"/>
	<outline>
		<contour>
			<point x="24" y="0" type="line"/>
			<point x="276" y="0" type="line"/>
			<point x="282" y="46" type="line"/>
			<point x="184" y="58" type="line"/>
			<point x="383" y="619" type="line"/>
			<point x="386" y="619" type="line"/>
			<point x="540" y="58" type="line"/>
			<point x="452" y="46" type="line"/>
			<point x="446" y="0" type="line"/>
			<point x="730" y="0" type="line"/>
			<point x="737" y="46" type="line"/>
			<point x="643" y="57" type="line"/>
			<point x="454" y="706" type="line"/>
			<point x="351" y="695" type="line"/>
			<point x="117" y="58" type="line"/>
			<point x="30" y="46" type="line"/>
		</contour>
	</outline>
</glyph>
<glyph name="Phi" format="2">
	<unicode hex="03A6"/>
	<advance width="857"/>
	<outline>
		<contour>
			<point x="286" y="-20" type="line"/>
			<point x="568" y="-20" type="line"/>
			<point x="574" y="26" type="line"/>
			<point x="471" y="39" type="line"/>
			<point x="472" y="80" type="line"/>
			<point x="679" y="93"/>
			<point x="806" y="202"/>
			<point x="806" y="368" type="curve" smooth="yes"/>
			<point x="806" y="527"/>
			<point x="698" y="617"/>
			<point x="494" y="630" type="curve"/>
			<point x="495" y="667" type="line"/>
			<point x="587" y="684" type="line"/>
			<point x="593" y="730" type="line"/>
			<point x="322" y="730" type="line"/>
			<point x="316" y="684" type="line"/>
			<point x="409" y="667" type="line"/>
			<point x="407" y="630" type="line"/>
			<point x="189" y="617"/>
			<point x="71" y="515"/>
			<point x="71" y="339" type="curve" smooth="yes"/>
			<point x="71" y="189"/>
			<point x="189" y="92"/>
			<point x="383" y="81" type="curve"/>
			<point x="381" y="39" type="line"/>
			<point x="292" y="26" type="line"/>
		</contour>
		<contour>
			<point x="385" y="137" type="line"/>
			<point x="246" y="151"/>
			<point x="169" y="228"/>
			<point x="169" y="352" type="curve" smooth="yes"/>
			<point x="169" y="503"/>
			<point x="245" y="576"/>
			<point x="405" y="579" type="curve"/>
		</contour>
		<contour>
			<point x="474" y="133" type="curve"/>
			<point x="490" y="575" type="line"/>
			<point x="635" y="561"/>
			<point x="706" y="489"/>
			<point x="706" y="358" type="curve" smooth="yes"/>
			<point x="706" y="214"/>
			<point x="627" y="137"/>
		</contour>
	</outline>
</glyph>
<glyph name="Omega" format="2">
	<unicode hex="03A9"/>
	<advance width="746"/>
	<outline>
		<contour>
			<point x="50" y="0" type="line"/>
			<point x="316" y="0" type="line"/>
			<point x="324" y="176" type="line"/>
			<point x="227" y="198"/>
			<point x="175" y="275"/>
			<point x="175" y="397" type="curve" smooth="yes"/>
			<point x="175" y="565"/>
			<point x="247" y="654"/>
			<point x="384" y="654" type="curve" smooth="yes"/>
			<point x="508" y="654"/>
			<point x="590" y="565"/>
			<point x="590" y="429" type="curve" smooth="yes"/>
			<point x="590" y="295"/>
			<point x="540" y="212"/>
			<point x="440" y="179" type="curve"/>
			<point x="432" y="0" type="line"/>
			<point x="677" y="0" type="line"/>
			<point x="704" y="204" type="line"/>
			<point x="646" y="204" type="line"/>
			<point x="630" y="154" type="line" smooth="yes"/>
			<point x="612" y="97"/>
			<point x="591" y="84"/>
			<point x="520" y="84" type="curve" smooth="yes"/>
			<point x="504" y="84" type="line"/>
			<point x="507" y="135" type="line"/>
			<point x="626" y="191"/>
			<point x="690" y="298"/>
			<point x="690" y="440" type="curve" smooth="yes"/>
			<point x="690" y="601"/>
			<point x="567" y="715"/>
			<point x="393" y="715" type="curve" smooth="yes"/>
			<point x="197" y="715"/>
			<point x="77" y="591"/>
			<point x="77" y="389" type="curve" smooth="yes"/>
			<point x="77" y="259"/>
			<point x="144" y="157"/>
			<point x="254" y="120" type="curve"/>
			<point x="252" y="84" type="line"/>
			<point x="209" y="84" type="line" smooth="yes"/>
			<point x="142" y="84"/>
			<point x="126" y="95"/>
			<point x="110" y="154" type="curve" smooth="yes"/>
			<point x="96" y="204" type="line"/>
			<point x="38" y="204" type="line"/>
		</contour>
	</outline>
	<anchor name="bottom" x="369" y="-45"/>
	<anchor name="side" x="765" y="217"/>
	<anchor name="topleft" x="57" y="700"/>
</glyph>
<glyph name="alpha" format="2">
	<unicode hex="03B1"/>
	<advance width="697"/>
	<outline>
		<contour>
			<point x="254" y="-14" type="curve" smooth="yes"/>
			<point x="334" y="-14"/>
			<point x="384" y="27"/>
			<point x="428" y="128" type="curve"/>
			<point x="429" y="128" type="line"/>
			<point x="430" y="36"/>
			<point x="465" y="-14"/>
			<point x="528" y="-14" type="curve" smooth="yes"/>
			<point x="565" y="-14"/>
			<point x="609" y="4"/>
			<point x="646" y="34" type="curve"/>
			<point x="621" y="73" type="line"/>
			<point x="599" y="57"/>
			<point x="577" y="49"/>
			<point x="559" y="49" type="curve" smooth="yes"/>
			<point x="515" y="49"/>
			<point x="498" y="82"/>
			<point x="489" y="186" type="curve" smooth="yes"/>
			<point x="490" y="209" type="line"/>
			<point x="528" y="298"/>
			<point x="580" y="421"/>
			<point x="625" y="522" type="curve"/>
			<point x="614" y="527" type="line"/>
			<point x="512" y="519" type="line"/>
			<point x="490" y="435"/>
			<point x="478" y="398"/>
			<point x="462" y="347" type="curve"/>
			<point x="461" y="347" type="line"/>
			<point x="446" y="466"/>
			<point x="384" y="532"/>
			<point x="287" y="532" type="curve" smooth="yes"/>
			<point x="155" y="532"/>
			<point x="65" y="414"/>
			<point x="65" y="240" type="curve" smooth="yes"/>
			<point x="65" y="84"/>
			<point x="138" y="-14"/>
		</contour>
		<contour>
			<point x="264" y="46" type="curve" smooth="yes"/>
			<point x="194" y="46"/>
			<point x="162" y="108"/>
			<point x="162" y="242" type="curve" smooth="yes"/>
			<point x="162" y="389"/>
			<point x="208" y="473"/>
			<point x="290" y="473" type="curve" smooth="yes"/>
			<point x="365" y="473"/>
			<point x="407" y="403"/>
			<point x="415" y="267" type="curve" smooth="yes"/>
			<point x="417" y="233" type="line"/>
			<point x="366" y="102"/>
			<point x="320" y="46"/>
		</contour>
	</outline>
	<anchor name="bottom" x="255" y="-30"/>
	<anchor name="top" x="292" y="551"/>
</glyph>
<glyph name="gamma" format="2">
	<unicode hex="03B3"/>
	<advance width="615"/>
	<outline>
		<contour>
			<point x="209" y="-186" type="curve" smooth="yes"/>
			<point x="222" y="-186"/>
			<point x="238" y="-184"/>
			<point x="262" y="-178" type="curve"/>
			<point x="267" y="-160"/>
			<point x="269" y="-137"/>
			<point x="269" y="-104" type="curve" smooth="yes"/>
			<point x="269" y="-84"/>
			<point x="267" y="-31"/>
			<point x="265" y="2" type="curve"/>
			<point x="433" y="142"/>
			<point x="552" y="315"/>
			<point x="552" y="420" type="curve" smooth="yes"/>
			<point x="552" y="492"/>
			<point x="520" y="532"/>
			<point x="463" y="532" type="curve" smooth="yes"/>
			<point x="418" y="532"/>
			<point x="389" y="493"/>
			<point x="394" y="441" type="curve"/>
			<point x="438" y="425" type="line" smooth="yes"/>
			<point x="460" y="417"/>
			<point x="470" y="402"/>
			<point x="470" y="375" type="curve" smooth="yes"/>
			<point x="470" y="298"/>
			<point x="382" y="168"/>
			<point x="263" y="68" type="curve"/>
			<point x="263" y="151"/>
			<point x="260" y="249"/>
			<point x="255" y="302" type="curve" smooth="yes"/>
			<point x="241" y="489"/>
			<point x="221" y="532"/>
			<point x="148" y="532" type="curve" smooth="yes"/>
			<point x="113" y="532"/>
			<point x="52" y="508"/>
			<point x="23" y="483" type="curve"/>
			<point x="47" y="441" type="line"/>
			<point x="70" y="458"/>
			<point x="92" y="466"/>
			<point x="113" y="466" type="curve" smooth="yes"/>
			<point x="142" y="466"/>
			<point x="151" y="436"/>
			<point x="166" y="291" type="curve" smooth="yes"/>
			<point x="184" y="116"/>
			<point x="185" y="96"/>
			<point x="190" y="-2" type="curve"/>
			<point x="173" y="-27"/>
			<point x="163" y="-65"/>
			<point x="163" y="-102" type="curve" smooth="yes"/>
			<point x="163" y="-157"/>
			<point x="179" y="-186"/>
		</contour>
	</outline>
</glyph>
<glyph name="delta" format="2">
	<unicode hex="03B4"/>
	<advance width="579"/>
	<outline>
		<contour>
			<point x="271" y="-14" type="curve" smooth="yes"/>
			<point x="414" y="-14"/>
			<point x="513" y="87"/>
			<point x="513" y="233" type="curve" smooth="yes"/>
			<point x="513" y="339"/>
			<point x="472" y="407"/>
			<point x="349" y="504" type="curve" smooth="yes"/>
			<point x="235" y="594"/>
			<point x="222" y="609"/>
			<point x="222" y="653" type="curve" smooth="yes"/>
			<point x="222" y="702"/>
			<point x="265" y="734"/>
			<point x="332" y="734" type="curve" smooth="yes"/>
			<point x="398" y="734"/>
			<point x="435" y="713"/>
			<point x="435" y="675" type="curve" smooth="yes"/>
			<point x="435" y="664"/>
			<point x="430" y="646"/>
			<point x="418" y="617" type="curve"/>
			<point x="431" y="601"/>
			<point x="453" y="591"/>
			<point x="474" y="591" type="curve" smooth="yes"/>
			<point x="512" y="591"/>
			<point x="539" y="618"/>
			<point x="539" y="655" type="curve" smooth="yes"/>
			<point x="539" y="733"/>
			<point x="462" y="782"/>
			<point x="340" y="782" type="curve" smooth="yes"/>
			<point x="224" y="782"/>
			<point x="145" y="722"/>
			<point x="145" y="634" type="curve" smooth="yes"/>
			<point x="145" y="582"/>
			<point x="168" y="551"/>
			<point x="269" y="466" type="curve"/>
			<point x="124" y="420"/>
			<point x="47" y="325"/>
			<point x="47" y="193" type="curve" smooth="yes"/>
			<point x="47" y="68"/>
			<point x="136" y="-14"/>
		</contour>
		<contour>
			<point x="272" y="46" type="curve" smooth="yes"/>
			<point x="187" y="46"/>
			<point x="137" y="105"/>
			<point x="137" y="205" type="curve" smooth="yes"/>
			<point x="137" y="307"/>
			<point x="204" y="401"/>
			<point x="302" y="438" type="curve"/>
			<point x="387" y="373"/>
			<point x="422" y="312"/>
			<point x="422" y="228" type="curve" smooth="yes"/>
			<point x="422" y="114"/>
			<point x="366" y="46"/>
		</contour>
	</outline>
</glyph>
<glyph name="epsilon" format="2">
	<unicode hex="03B5"/>
	<advance width="582"/>
	<outline>
		<contour>
			<point x="285" y="-14" type="curve" smooth="yes"/>
			<point x="374" y="-14"/>
			<point x="455" y="26"/>
			<point x="506" y="95" type="curve"/>
			<point x="469" y="132" type="line"/>
			<point x="408" y="75"/>
			<point x="357" y="53"/>
			<point x="284" y="53" type="curve" smooth="yes"/>
			<point x="210" y="53"/>
			<point x="158" y="90"/>
			<point x="158" y="142" type="curve" smooth="yes"/>
			<point x="158" y="190"/>
			<point x="193" y="232"/>
			<point x="245" y="247" type="curve"/>
			<point x="268" y="226"/>
			<point x="296" y="214"/>
			<point x="321" y="214" type="curve" smooth="yes"/>
			<point x="357" y="214"/>
			<point x="385" y="239"/>
			<point x="385" y="272" type="curve" smooth="yes"/>
			<point x="385" y="300"/>
			<point x="357" y="321"/>
			<point x="321" y="321" type="curve" smooth="yes"/>
			<point x="297" y="321"/>
			<point x="267" y="307"/>
			<point x="246" y="286" type="curve"/>
			<point x="205" y="297"/>
			<point x="180" y="331"/>
			<point x="180" y="374" type="curve" smooth="yes"/>
			<point x="180" y="440"/>
			<point x="237" y="482"/>
			<point x="324" y="482" type="curve" smooth="yes"/>
			<point x="392" y="482"/>
			<point x="437" y="464"/>
			<point x="437" y="437" type="curve" smooth="yes"/>
			<point x="437" y="425"/>
			<point x="428" y="412"/>
			<point x="397" y="380" type="curve"/>
			<point x="409" y="351"/>
			<point x="433" y="334"/>
			<point x="464" y="334" type="curve" smooth="yes"/>
			<point x="500" y="334"/>
			<point x="527" y="363"/>
			<point x="527" y="403" type="curve" smooth="yes"/>
			<point x="527" y="481"/>
			<point x="443" y="532"/>
			<point x="314" y="532" type="curve" smooth="yes"/>
			<point x="182" y="532"/>
			<point x="87" y="469"/>
			<point x="87" y="380" type="curve" smooth="yes"/>
			<point x="87" y="321"/>
			<point x="116" y="287"/>
			<point x="186" y="265" type="curve"/>
			<point x="186" y="263" type="line"/>
			<point x="106" y="242"/>
			<point x="60" y="194"/>
			<point x="60" y="132" type="curve" smooth="yes"/>
			<point x="60" y="40"/>
			<point x="143" y="-14"/>
		</contour>
	</outline>
	<anchor name="top" x="314" y="550"/>
</glyph>
<glyph name="theta" format="2">
	<unicode hex="03B8"/>
	<advance width="676"/>
	<outline>
		<contour>
			<point x="339" y="-14" type="curve" smooth="yes"/>
			<point x="511" y="-14"/>
			<point x="613" y="164"/>
			<point x="613" y="463" type="curve" smooth="yes"/>
			<point x="613" y="673"/>
			<point x="529" y="782"/>
			<point x="366" y="782" type="curve" smooth="yes"/>
			<point x="252" y="782"/>
			<point x="170" y="704"/>
			<point x="170" y="595" type="curve" smooth="yes"/>
			<point x="170" y="449"/>
			<point x="297" y="356"/>
			<point x="521" y="337" type="curve"/>
			<point x="512" y="166"/>
			<point x="441" y="46"/>
			<point x="348" y="46" type="curve" smooth="yes"/>
			<point x="289" y="46"/>
			<point x="256" y="72"/>
			<point x="256" y="120" type="curve" smooth="yes"/>
			<point x="256" y="170"/>
			<point x="275" y="240"/>
			<point x="275" y="272" type="curve" smooth="yes"/>
			<point x="275" y="318"/>
			<point x="247" y="343"/>
			<point x="195" y="343" type="curve" smooth="yes"/>
			<point x="159" y="343"/>
			<point x="114" y="331"/>
			<point x="71" y="310" type="curve"/>
			<point x="90" y="261" type="line"/>
			<point x="114" y="272"/>
			<point x="136" y="277"/>
			<point x="158" y="277" type="curve" smooth="yes"/>
			<point x="177" y="277"/>
			<point x="185" y="267"/>
			<point x="185" y="243" type="curve" smooth="yes"/>
			<point x="185" y="217"/>
			<point x="167" y="163"/>
			<point x="167" y="119" type="curve" smooth="yes"/>
			<point x="167" y="36"/>
			<point x="231" y="-14"/>
		</contour>
		<contour>
			<point x="523" y="381" type="curve"/>
			<point x="356" y="403"/>
			<point x="262" y="484"/>
			<point x="262" y="604" type="curve" smooth="yes"/>
			<point x="262" y="683"/>
			<point x="305" y="734"/>
			<point x="372" y="734" type="curve" smooth="yes"/>
			<point x="469" y="734"/>
			<point x="526" y="630"/>
			<point x="526" y="453" type="curve" smooth="yes"/>
			<point x="526" y="433"/>
			<point x="525" y="412"/>
		</contour>
	</outline>
</glyph>
<glyph name="iota" format="2">
	<unicode hex="03B9"/>
	<advance width="319"/>
	<outline>
		<contour>
			<point x="162" y="-14" type="curve" smooth="yes"/>
			<point x="208" y="-14"/>
			<point x="248" y="2"/>
			<point x="278" y="32" type="curve"/>
			<point x="256" y="73" type="line"/>
			<point x="232" y="60"/>
			<point x="214" y="54"/>
			<point x="193" y="54" type="curve" smooth="yes"/>
			<point x="150" y="54"/>
			<point x="135" y="73"/>
			<point x="135" y="124" type="curve" smooth="yes"/>
			<point x="135" y="198"/>
			<point x="153" y="350"/>
			<point x="182" y="522" type="curve"/>
			<point x="170" y="527" type="line"/>
			<point x="74" y="519" type="line"/>
			<point x="0" y="-1103"/>
			<point x="55" y="121"/>
			<point x="55" y="94" type="curve" smooth="yes"/>
			<point x="55" y="25"/>
			<point x="93" y="-14"/>
		</contour>
	</outline>
	<anchor name="top" x="137" y="550"/>
</glyph>
<glyph name="kappa" format="2">
	<unicode hex="03BA"/>
	<advance width="683"/>
	<outline>
		<contour>
			<point x="485" y="-14" type="curve" smooth="yes"/>
			<point x="526" y="-14"/>
			<point x="581" y="7"/>
			<point x="613" y="34" type="curve"/>
			<point x="588" y="73" type="line"/>
			<point x="571" y="59"/>
			<point x="545" y="49"/>
			<point x="526" y="49" type="curve" smooth="yes"/>
			<point x="471" y="49"/>
			<point x="429" y="131"/>
			<point x="429" y="237" type="curve" smooth="yes"/>
			<point x="429" y="302"/>
			<point x="439" y="354"/>
			<point x="459" y="392" type="curve"/>
			<point x="515" y="422"/>
			<point x="566" y="437"/>
			<point x="627" y="440" type="curve"/>
			<point x="632" y="451" type="line"/>
			<point x="605" y="526" type="line"/>
			<point x="455" y="532"/>
			<point x="345" y="438"/>
			<point x="216" y="192" type="curve"/>
			<point x="213" y="193" type="line"/>
			<point x="252" y="335"/>
			<point x="273" y="431"/>
			<point x="273" y="463" type="curve" smooth="yes"/>
			<point x="273" y="506"/>
			<point x="244" y="532"/>
			<point x="195" y="532" type="curve" smooth="yes"/>
			<point x="159" y="532"/>
			<point x="111" y="519"/>
			<point x="69" y="499" type="curve"/>
			<point x="88" y="450" type="line"/>
			<point x="113" y="460"/>
			<point x="136" y="466"/>
			<point x="152" y="466" type="curve" smooth="yes"/>
			<point x="170" y="466"/>
			<point x="182" y="455"/>
			<point x="182" y="438" type="curve" smooth="yes"/>
			<point x="182" y="419"/>
			<point x="147" y="236"/>
			<point x="99" y="0" type="curve"/>
			<point x="175" y="0" type="line"/>
			<point x="249" y="174"/>
			<point x="285" y="229"/>
			<point x="395" y="342" type="curve"/>
			<point x="362" y="276"/>
			<point x="346" y="214"/>
			<point x="346" y="153" type="curve" smooth="yes"/>
			<point x="346" y="48"/>
			<point x="397" y="-14"/>
		</contour>
	</outline>
</glyph>
<glyph name="mu" format="2">
	<unicode hex="03BC"/>
	<advance width="645"/>
	<outline>
		<contour>
			<point x="75" y="-230" type="line"/>
			<point x="167" y="-210" type="line"/>
			<point x="153" y="-148"/>
			<point x="143" y="-50"/>
			<point x="143" y="25" type="curve"/>
			<point x="144" y="25" type="line"/>
			<point x="168" y="4"/>
			<point x="209" y="-11"/>
			<point x="241" y="-11" type="curve" smooth="yes"/>
			<point x="289" y="-11"/>
			<point x="347" y="29"/>
			<point x="385" y="89" type="curve"/>
			<point x="386" y="89" type="line"/>
			<point x="385" y="31"/>
			<point x="426" y="-14"/>
			<point x="480" y="-14" type="curve" smooth="yes"/>
			<point x="510" y="-14"/>
			<point x="553" y="-2"/>
			<point x="599" y="19" type="curve"/>
			<point x="580" y="71" type="line"/>
			<point x="560" y="62"/>
			<point x="528" y="53"/>
			<point x="513" y="53" type="curve" smooth="yes"/>
			<point x="477" y="53"/>
			<point x="457" y="81"/>
			<point x="457" y="133" type="curve" smooth="yes"/>
			<point x="457" y="193"/>
			<point x="478" y="405"/>
			<point x="495" y="522" type="curve"/>
			<point x="484" y="527" type="line"/>
			<point x="393" y="519" type="line"/>
			<point x="376" y="228" type="line" smooth="yes"/>
			<point x="370" y="124"/>
			<point x="317" y="65"/>
			<point x="230" y="65" type="curve" smooth="yes"/>
			<point x="207" y="65"/>
			<point x="168" y="77"/>
			<point x="146" y="91" type="curve"/>
			<point x="146" y="186"/>
			<point x="160" y="338"/>
			<point x="185" y="522" type="curve"/>
			<point x="174" y="527" type="line"/>
			<point x="83" y="519" type="line"/>
			<point x="65" y="249"/>
			<point x="57" y="63"/>
			<point x="57" y="-67" type="curve" smooth="yes"/>
			<point x="57" y="-141"/>
			<point x="59" y="-193"/>
			<point x="64" y="-225" type="curve"/>
		</contour>
	</outline>
</glyph>
<glyph name="nu" format="2">
	<unicode hex="03BD"/>
	<advance width="615"/>
	<outline>
		<contour>
			<point x="234" y="-23" type="line"/>
			<point x="429" y="139"/>
			<point x="552" y="310"/>
			<point x="552" y="420" type="curve" smooth="yes"/>
			<point x="552" y="492"/>
			<point x="520" y="532"/>
			<point x="463" y="532" type="curve" smooth="yes"/>
			<point x="418" y="532"/>
			<point x="389" y="493"/>
			<point x="394" y="441" type="curve"/>
			<point x="438" y="425" type="line" smooth="yes"/>
			<point x="460" y="417"/>
			<point x="470" y="402"/>
			<point x="470" y="375" type="curve" smooth="yes"/>
			<point x="470" y="298"/>
			<point x="382" y="168"/>
			<point x="263" y="68" type="curve"/>
			<point x="263" y="151"/>
			<point x="260" y="249"/>
			<point x="255" y="302" type="curve" smooth="yes"/>
			<point x="241" y="496"/>
			<point x="223" y="532"/>
			<point x="141" y="532" type="curve" smooth="yes"/>
			<point x="114" y="532"/>
			<point x="60" y="517"/>
			<point x="23" y="499" type="curve"/>
			<point x="42" y="450" type="line"/>
			<point x="64" y="460"/>
			<point x="87" y="466"/>
			<point x="104" y="466" type="curve" smooth="yes"/>
			<point x="141" y="466"/>
			<point x="151" y="438"/>
			<point x="166" y="291" type="curve" smooth="yes"/>
			<point x="184" y="116"/>
			<point x="185" y="96"/>
			<point x="190" y="-2" type="curve"/>
		</contour>
	</outline>
</glyph>
<glyph name="omicron" format="2">
	<unicode hex="03BF"/>
	<advance width="573"/>
	<outline>
		<contour>
			<point x="258" y="-14" type="curve" smooth="yes"/>
			<point x="422" y="-14"/>
			<point x="515" y="94"/>
			<point x="515" y="284" type="curve" smooth="yes"/>
			<point x="515" y="442"/>
			<point x="442" y="532"/>
			<point x="312" y="532" type="curve" smooth="yes"/>
			<point x="152" y="532"/>
			<point x="58" y="421"/>
			<point x="58" y="234" type="curve" smooth="yes"/>
			<point x="58" y="76"/>
			<point x="130" y="-14"/>
		</contour>
		<contour>
			<point x="270" y="46" type="curve" smooth="yes"/>
			<point x="194" y="46"/>
			<point x="155" y="108"/>
			<point x="155" y="229" type="curve" smooth="yes"/>
			<point x="155" y="382"/>
			<point x="210" y="473"/>
			<point x="303" y="473" type="curve" smooth="yes"/>
			<point x="379" y="473"/>
			<point x="418" y="412"/>
			<point x="418" y="294" type="curve" smooth="yes"/>
			<point x="418" y="136"/>
			<point x="364" y="46"/>
		</contour>
	</outline>
	<anchor name="top" x="314" y="550"/>
</glyph>
<glyph name="sigmafinal" format="2">
	<unicode hex="03C2"/>
	<advance width="533"/>
	<outline>
		<contour>
			<point x="329" y="-234" type="line"/>
			<point x="383" y="-180"/>
			<point x="414" y="-121"/>
			<point x="414" y="-73" type="curve" smooth="yes"/>
			<point x="414" y="-17"/>
			<point x="374" y="24"/>
			<point x="283" y="62" type="curve" smooth="yes"/>
			<point x="195" y="98"/>
			<point x="157" y="157"/>
			<point x="157" y="259" type="curve" smooth="yes"/>
			<point x="157" y="392"/>
			<point x="218" y="472"/>
			<point x="318" y="472" type="curve" smooth="yes"/>
			<point x="362" y="472"/>
			<point x="392" y="457"/>
			<point x="392" y="436" type="curve" smooth="yes"/>
			<point x="392" y="426"/>
			<point x="387" y="416"/>
			<point x="375" y="403" type="curve" smooth="yes"/>
			<point x="353" y="379" type="line"/>
			<point x="364" y="352"/>
			<point x="391" y="333"/>
			<point x="419" y="333" type="curve" smooth="yes"/>
			<point x="459" y="333"/>
			<point x="483" y="358"/>
			<point x="483" y="400" type="curve" smooth="yes"/>
			<point x="483" y="480"/>
			<point x="417" y="532"/>
			<point x="317" y="532" type="curve" smooth="yes"/>
			<point x="166" y="532"/>
			<point x="59" y="413"/>
			<point x="59" y="247" type="curve" smooth="yes"/>
			<point x="59" y="119"/>
			<point x="119" y="36"/>
			<point x="252" y="-20" type="curve" smooth="yes"/>
			<point x="312" y="-45"/>
			<point x="343" y="-74"/>
			<point x="343" y="-106" type="curve" smooth="yes"/>
			<point x="343" y="-131"/>
			<point x="325" y="-168"/>
			<point x="292" y="-210" type="curve"/>
		</contour>
	</outline>
</glyph>
<glyph name="tau" format="2">
	<unicode hex="03C4"/>
	<advance width="581"/>
	<outline>
		<contour>
			<point x="310" y="-14" type="curve" smooth="yes"/>
			<point x="371" y="-14"/>
			<point x="432" y="18"/>
			<point x="474" y="72" type="curve"/>
			<point x="440" y="107" type="line"/>
			<point x="398" y="70"/>
			<point x="367" y="53"/>
			<point x="336" y="53" type="curve" smooth="yes"/>
			<point x="290" y="53"/>
			<point x="270" y="77"/>
			<point x="270" y="133" type="curve" smooth="yes"/>
			<point x="270" y="184"/>
			<point x="284" y="316"/>
			<point x="303" y="442" type="curve"/>
			<point x="374" y="438"/>
			<point x="446" y="432"/>
			<point x="468" y="432" type="curve" smooth="yes"/>
			<point x="508" y="432"/>
			<point x="536" y="458"/>
			<point x="536" y="497" type="curve" smooth="yes"/>
			<point x="536" y="514"/>
			<point x="527" y="529"/>
			<point x="507" y="544" type="curve"/>
			<point x="386" y="516" type="line"/>
			<point x="104" y="531" type="line"/>
			<point x="58" y="531"/>
			<point x="26" y="499"/>
			<point x="26" y="453" type="curve" smooth="yes"/>
			<point x="26" y="410"/>
			<point x="60" y="386"/>
			<point x="118" y="388" type="curve"/>
			<point x="130" y="420" type="line" smooth="yes"/>
			<point x="138" y="440"/>
			<point x="150" y="449"/>
			<point x="170" y="449" type="curve" smooth="yes"/>
			<point x="191" y="449"/>
			<point x="219" y="448"/>
			<point x="244" y="446" type="curve"/>
			<point x="202" y="273"/>
			<point x="182" y="170"/>
			<point x="182" y="118" type="curve" smooth="yes"/>
			<point x="182" y="30"/>
			<point x="224" y="-14"/>
		</contour>
	</outline>
</glyph>
<glyph name="phi" format="2">
	<unicode hex="03C6"/>
	<advance width="773"/>
	<outline>
		<contour>
			<point x="295" y="-230" type="line"/>
			<point x="338" y="-218" type="line"/>
			<point x="378" y="-9" type="line"/>
			<point x="574" y="5"/>
			<point x="716" y="148"/>
			<point x="716" y="330" type="curve" smooth="yes"/>
			<point x="716" y="457"/>
			<point x="649" y="532"/>
			<point x="535" y="532" type="curve" smooth="yes"/>
			<point x="441" y="532"/>
			<point x="391" y="479"/>
			<point x="371" y="358" type="curve" smooth="yes"/>
			<point x="324" y="46" type="line"/>
			<point x="209" y="56"/>
			<point x="154" y="115"/>
			<point x="154" y="231" type="curve" smooth="yes"/>
			<point x="154" y="357"/>
			<point x="209" y="454"/>
			<point x="302" y="494" type="curve"/>
			<point x="278" y="531" type="line"/>
			<point x="148" y="502"/>
			<point x="58" y="378"/>
			<point x="58" y="228" type="curve" smooth="yes"/>
			<point x="58" y="79"/>
			<point x="147" y="-3"/>
			<point x="316" y="-10" type="curve"/>
			<point x="284" y="-225" type="line"/>
		</contour>
		<contour>
			<point x="387" y="46" type="curve"/>
			<point x="452" y="390" type="line" smooth="yes"/>
			<point x="463" y="446"/>
			<point x="492" y="478"/>
			<point x="532" y="478" type="curve" smooth="yes"/>
			<point x="585" y="478"/>
			<point x="620" y="427"/>
			<point x="620" y="349" type="curve" smooth="yes"/>
			<point x="620" y="179"/>
			<point x="529" y="61"/>
		</contour>
	</outline>
</glyph>
<glyph name="psi" format="2">
	<unicode hex="03C8"/>
	<advance width="800"/>
	<outline>
		<contour>
			<point x="285" y="-230" type="line"/>
			<point x="365" y="-215" type="line"/>
			<point x="395" y="-15" type="line"/>
			<point x="597" y="0"/>
			<point x="736" y="175"/>
			<point x="736" y="420" type="curve" smooth="yes"/>
			<point x="736" y="491"/>
			<point x="704" y="532"/>
			<point x="649" y="532" type="curve" smooth="yes"/>
			<point x="603" y="532"/>
			<point x="572" y="493"/>
			<point x="578" y="441" type="curve"/>
			<point x="621" y="426" type="line" smooth="yes"/>
			<point x="662" y="412"/>
			<point x="674" y="400"/>
			<point x="674" y="375" type="curve" smooth="yes"/>
			<point x="674" y="203"/>
			<point x="562" y="73"/>
			<point x="405" y="58" type="curve"/>
			<point x="500" y="699" type="line"/>
			<point x="449" y="699" type="line"/>
			<point x="328" y="57" type="line"/>
			<point x="234" y="64"/>
			<point x="196" y="94"/>
			<point x="196" y="159" type="curve" smooth="yes"/>
			<point x="196" y="228"/>
			<point x="241" y="390"/>
			<point x="241" y="459" type="curve" smooth="yes"/>
			<point x="241" y="509"/>
			<point x="216" y="532"/>
			<point x="162" y="532" type="curve" smooth="yes"/>
			<point x="125" y="532"/>
			<point x="67" y="509"/>
			<point x="39" y="483" type="curve"/>
			<point x="63" y="441" type="line"/>
			<point x="83" y="456"/>
			<point x="109" y="466"/>
			<point x="126" y="466" type="curve" smooth="yes"/>
			<point x="144" y="466"/>
			<point x="151" y="459"/>
			<point x="151" y="442" type="curve" smooth="yes"/>
			<point x="151" y="375"/>
			<point x="106" y="225"/>
			<point x="106" y="144" type="curve" smooth="yes"/>
			<point x="106" y="49"/>
			<point x="177" y="-4"/>
			<point x="315" y="-14" type="curve"/>
			<point x="275" y="-225" type="line"/>
		</contour>
	</outline>
</glyph>
<glyph name="stigma" format="2">
	<unicode hex="03DB"/>
	<advance width="524"/>
	<outline>
		<contour>
			<point x="329" y="-234" type="line"/>
			<point x="383" y="-180"/>
			<point x="414" y="-121"/>
			<point x="414" y="-73" type="curve" smooth="yes"/>
			<point x="414" y="-17"/>
			<point x="374" y="24"/>
			<point x="283" y="62" type="curve" smooth="yes"/>
			<point x="191" y="100"/>
			<point x="148" y="161"/>
			<point x="148" y="255" type="curve" smooth="yes"/>
			<point x="148" y="384"/>
			<point x="219" y="456"/>
			<point x="345" y="454" type="curve" smooth="yes"/>
			<point x="441" y="451"/>
			<point x="479" y="479"/>
			<point x="479" y="555" type="curve" smooth="yes"/>
			<point x="479" y="589"/>
			<point x="468" y="622"/>
			<point x="447" y="651" type="curve"/>
			<point x="401" y="639" type="line"/>
			<point x="406" y="625"/>
			<point x="408" y="614"/>
			<point x="408" y="600" type="curve" smooth="yes"/>
			<point x="408" y="546"/>
			<point x="398" y="534"/>
			<point x="352" y="534" type="curve" smooth="yes"/>
			<point x="173" y="534"/>
			<point x="59" y="421"/>
			<point x="59" y="242" type="curve" smooth="yes"/>
			<point x="59" y="111"/>
			<point x="112" y="39"/>
			<point x="252" y="-20" type="curve" smooth="yes"/>
			<point x="312" y="-45"/>
			<point x="343" y="-74"/>
			<point x="343" y="-106" type="curve" smooth="yes"/>
			<point x="343" y="-131"/>
			<point x="325" y="-168"/>
			<point x="292" y="-210" type="curve"/>
		</contour>
	</outline>
</glyph>
<glyph name="digamma" format="2">
	<unicode hex="03DD"/>
	<advance width="372"/>
	<outline>
		<contour>
			<point x="82" y="0" type="line"/>
			<point x="162" y="0" type="line"/>
			<point x="181" y="457" type="line"/>
			<point x="335" y="457" type="line"/>
			<point x="339" y="519" type="line"/>
			<point x="180" y="519" type="line"/>
			<point x="185" y="592" type="line" smooth="yes"/>
			<point x="191" y="680"/>
			<point x="230" y="722"/>
			<point x="304" y="722" type="curve" smooth="yes"/>
			<point x="352" y="722"/>
			<point x="369" y="697"/>
			<point x="351" y="654" type="curve" smooth="yes"/>
			<point x="340" y="627" type="line"/>
			<point x="356" y="608"/>
			<point x="375" y="598"/>
			<point x="396" y="598" type="curve" smooth="yes"/>
			<point x="434" y="598"/>
			<point x="458" y="625"/>
			<point x="458" y="667" type="curve" smooth="yes"/>
			<point x="458" y="735"/>
			<point x="398" y="782"/>
			<point x="310" y="782" type="curve" smooth="yes"/>
			<point x="181" y="782"/>
			<point x="104" y="702"/>
			<point x="93" y="559" type="curve" smooth="yes"/>
			<point x="90" y="520" type="line"/>
			<point x="2" y="512" type="line"/>
			<point x="-5" y="457" type="line"/>
			<point x="88" y="457" type="line"/>
			<point x="71" y="5" type="line"/>
		</contour>
	</outline>
</glyph>
<glyph name="Koppa" format="2">
	<unicode hex="03DE"/>
	<advance width="593"/>
	<outline>
		<contour>
			<point x="330" y="-89" type="curve" smooth="yes"/>
			<point x="365" y="-89"/>
			<point x="403" y="-73"/>
			<point x="427" y="-49" type="curve"/>
			<point x="420" y="-13" type="line"/>
			<point x="397" y="-19"/>
			<point x="382" y="-22"/>
			<point x="369" y="-22" type="curve" smooth="yes"/>
			<point x="344" y="-22"/>
			<point x="332" y="-11"/>
			<point x="332" y="11" type="curve" smooth="yes"/>
			<point x="332" y="45"/>
			<point x="358" y="94"/>
			<point x="432" y="194" type="curve" smooth="yes"/>
			<point x="541" y="344" type="line"/>
			<point x="506" y="399" type="line"/>
			<point x="171" y="235" type="line"/>
			<point x="326" y="422"/>
			<point x="353" y="464"/>
			<point x="353" y="517" type="curve" smooth="yes"/>
			<point x="353" y="569"/>
			<point x="320" y="600"/>
			<point x="263" y="600" type="curve" smooth="yes"/>
			<point x="228" y="600"/>
			<point x="190" y="584"/>
			<point x="166" y="560" type="curve"/>
			<point x="173" y="524" type="line"/>
			<point x="196" y="530"/>
			<point x="212" y="533"/>
			<point x="224" y="533" type="curve" smooth="yes"/>
			<point x="249" y="533"/>
			<point x="261" y="522"/>
			<point x="261" y="500" type="curve" smooth="yes"/>
			<point x="261" y="466"/>
			<point x="235" y="417"/>
			<point x="161" y="317" type="curve" smooth="yes"/>
			<point x="52" y="167" type="line"/>
			<point x="87" y="112" type="line"/>
			<point x="428" y="286" type="line"/>
			<point x="267" y="90"/>
			<point x="240" y="46"/>
			<point x="240" y="-11" type="curve" smooth="yes"/>
			<point x="240" y="-59"/>
			<point x="274" y="-89"/>
		</contour>
	</outline>
</glyph>
<glyph name="sampi" format="2">
	<unicode hex="03E1"/>
	<advance width="600"/>
	<outline>
		<contour>
			<point x="459" y="-267" type="line"/>
			<point x="512" y="-168"/>
			<point x="545" y="-36"/>
			<point x="545" y="77" type="curve" smooth="yes"/>
			<point x="545" y="333"/>
			<point x="417" y="495"/>
			<point x="182" y="536" type="curve"/>
			<point x="155" y="465" type="line"/>
			<point x="242" y="441"/>
			<point x="313" y="394"/>
			<point x="363" y="327" type="curve"/>
			<point x="102" y="225" type="line" smooth="yes"/>
			<point x="82" y="217"/>
			<point x="76" y="218"/>
			<point x="71" y="230" type="curve"/>
			<point x="57" y="256" type="line"/>
			<point x="13" y="240" type="line"/>
			<point x="73" y="69" type="line"/>
			<point x="116" y="83" type="line"/>
			<point x="111" y="115" type="line" smooth="yes"/>
			<point x="109" y="128"/>
			<point x="114" y="134"/>
			<point x="130" y="141" type="curve"/>
			<point x="407" y="250" type="line"/>
			<point x="422" y="215"/>
			<point x="433" y="177"/>
			<point x="440" y="137" type="curve"/>
			<point x="170" y="31" type="line" smooth="yes"/>
			<point x="150" y="23"/>
			<point x="144" y="24"/>
			<point x="139" y="36" type="curve"/>
			<point x="125" y="62" type="line"/>
			<point x="80" y="46" type="line"/>
			<point x="140" y="-125" type="line"/>
			<point x="184" y="-111" type="line"/>
			<point x="179" y="-79" type="line"/>
			<point x="176" y="-67"/>
			<point x="181" y="-60"/>
			<point x="198" y="-53" type="curve" smooth="yes"/>
			<point x="446" y="44" type="line"/>
			<point x="445" y="-48"/>
			<point x="421" y="-150"/>
			<point x="377" y="-247" type="curve"/>
		</contour>
	</outline>
</glyph>
<glyph name="Be-cy" format="2">
	<unicode hex="0411"/>
	<advance width="674"/>
	<outline>
		<contour>
			<point x="74" y="46" type="line"/>
			<point x="68" y="0" type="line"/>
			<point x="327" y="0" type="line" smooth="yes"/>
			<point x="530" y="0"/>
			<point x="640" y="91"/>
			<point x="640" y="228" type="curve" smooth="yes"/>
			<point x="640" y="329"/>
			<point x="563" y="399"/>
			<point x="427" y="399" type="curve" smooth="yes"/>
			<point x="391" y="399"/>
			<point x="363" y="398"/>
			<point x="305" y="390" type="curve"/>
			<point x="303" y="340" type="line"/>
			<point x="329" y="345"/>
			<point x="352" y="347"/>
			<point x="379" y="347" type="curve" smooth="yes"/>
			<point x="497" y="347"/>
			<point x="540" y="298"/>
			<point x="540" y="222" type="curve" smooth="yes"/>
			<point x="540" y="122"/>
			<point x="480" y="54"/>
			<point x="338" y="54" type="curve" smooth="yes"/>
			<point x="253" y="54" type="line"/>
			<point x="275" y="643" type="line"/>
			<point x="412" y="643" type="line" smooth="yes"/>
			<point x="472" y="643"/>
			<point x="492" y="628"/>
			<point x="516" y="562" type="curve" smooth="yes"/>
			<point x="530" y="523" type="line"/>
			<point x="587" y="533" type="line"/>
			<point x="571" y="700" type="line"/>
			<point x="101" y="700" type="line"/>
			<point x="95" y="654" type="line"/>
			<point x="188" y="637" type="line"/>
			<point x="163" y="59" type="line"/>
		</contour>
	</outline>
</glyph>
<glyph name="Ze-cy" format="2">
	<unicode hex="0417"/>
	<advance width="609"/>
	<outline>
		<contour>
			<point x="95" y="576" type="curve"/>
			<point x="146" y="543" type="line"/>
			<point x="185" y="610"/>
			<point x="240" y="650"/>
			<point x="327" y="650" type="curve" smooth="yes"/>
			<point x="412" y="650"/>
			<point x="450" y="609"/>
			<point x="450" y="547" type="curve" smooth="yes"/>
			<point x="450" y="463"/>
			<point x="382" y="419"/>
			<point x="303" y="404" type="curve" smooth="yes"/>
			<point x="276" y="399"/>
			<point x="207" y="393"/>
			<point x="179" y="391" type="curve"/>
			<point x="172" y="331" type="line"/>
			<point x="191" y="332"/>
			<point x="258" y="334"/>
			<point x="304" y="334" type="curve" smooth="yes"/>
			<point x="408" y="334"/>
			<point x="472" y="291"/>
			<point x="472" y="207" type="curve" smooth="yes"/>
			<point x="472" y="117"/>
			<point x="397" y="44"/>
			<point x="285" y="44" type="curve" smooth="yes"/>
			<point x="183" y="44"/>
			<point x="157" y="81"/>
			<point x="169" y="117" type="curve" smooth="yes"/>
			<point x="186" y="168" type="line"/>
			<point x="157" y="186"/>
			<point x="137" y="193"/>
			<point x="114" y="193" type="curve" smooth="yes"/>
			<point x="72" y="193"/>
			<point x="50" y="158"/>
			<point x="50" y="123" type="curve" smooth="yes"/>
			<point x="50" y="48"/>
			<point x="141" y="-11"/>
			<point x="272" y="-11" type="curve" smooth="yes"/>
			<point x="470" y="-11"/>
			<point x="572" y="104"/>
			<point x="572" y="224" type="curve" smooth="yes"/>
			<point x="572" y="320"/>
			<point x="499" y="369"/>
			<point x="362" y="375" type="curve"/>
			<point x="362" y="383" type="line"/>
			<point x="468" y="401"/>
			<point x="551" y="462"/>
			<point x="551" y="567" type="curve" smooth="yes"/>
			<point x="551" y="656"/>
			<point x="482" y="715"/>
			<point x="347" y="715" type="curve" smooth="yes"/>
			<point x="243" y="715"/>
			<point x="145" y="675"/>
		</contour>
	</outline>
</glyph>
<glyph name="Pe-cy" format="2">
	<unicode hex="041F"/>
	<advance width="842"/>
	<outline>
		<contour>
			<point x="71" y="0" type="line"/>
			<point x="353" y="0" type="line"/>
			<point x="359" y="46" type="line"/>
			<point x="256" y="59" type="line"/>
			<point x="278" y="637" type="line"/>
			<point x="622" y="637" type="line"/>
			<point x="600" y="59" type="line"/>
			<point x="511" y="46" type="line"/>
			<point x="505" y="0" type="line"/>
			<point x="786" y="0" type="line"/>
			<point x="792" y="46" type="line"/>
			<point x="689" y="59" type="line"/>
			<point x="711" y="637" type="line"/>
			<point x="803" y="654" type="line"/>
			<point x="809" y="700" type="line"/>
			<point x="102" y="700" type="line"/>
			<point x="95" y="654" type="line"/>
			<point x="189" y="637" type="line"/>
			<point x="166" y="59" type="line"/>
			<point x="77" y="46" type="line"/>
		</contour>
	</outline>
</glyph>
<glyph name="Ef-cy" format="2">
	<unicode hex="0424"/>
	<advance width="834"/>
	<outline>
		<contour>
			<point x="281" y="0" type="line"/>
			<point x="562" y="0" type="line"/>
			<point x="569" y="46" type="line"/>
			<point x="464" y="59" type="line"/>
			<point x="468" y="169" type="line"/>
			<point x="492" y="162"/>
			<point x="525" y="157"/>
			<point x="550" y="157" type="curve" smooth="yes"/>
			<point x="709" y="157"/>
			<point x="806" y="266"/>
			<point x="806" y="408" type="curve" smooth="yes"/>
			<point x="806" y="547"/>
			<point x="705" y="615"/>
			<point x="581" y="615" type="curve" smooth="yes"/>
			<point x="544" y="615"/>
			<point x="511" y="608"/>
			<point x="484" y="601" type="curve"/>
			<point x="487" y="670" type="line"/>
			<point x="579" y="687" type="line"/>
			<point x="585" y="733" type="line"/>
			<point x="313" y="733" type="line"/>
			<point x="307" y="687" type="line"/>
			<point x="400" y="670" type="line"/>
			<point x="397" y="602" type="line"/>
			<point x="374" y="608"/>
			<point x="343" y="615"/>
			<point x="308" y="615" type="curve" smooth="yes"/>
			<point x="138" y="615"/>
			<point x="57" y="505"/>
			<point x="57" y="379" type="curve" smooth="yes"/>
			<point x="57" y="256"/>
			<point x="137" y="157"/>
			<point x="279" y="157" type="curve" smooth="yes"/>
			<point x="316" y="157"/>
			<point x="353" y="162"/>
			<point x="380" y="169" type="curve"/>
			<point x="375" y="59" type="line"/>
			<point x="287" y="46" type="line"/>
		</contour>
		<contour>
			<point x="297" y="210" type="curve" smooth="yes"/>
			<point x="195" y="210"/>
			<point x="152" y="288"/>
			<point x="152" y="372" type="curve" smooth="yes"/>
			<point x="152" y="474"/>
			<point x="192" y="561"/>
			<point x="322" y="561" type="curve" smooth="yes"/>
			<point x="347" y="561"/>
			<point x="370" y="558"/>
			<point x="395" y="551" type="curve"/>
			<point x="382" y="221" type="line"/>
			<point x="357" y="214"/>
			<point x="328" y="210"/>
		</contour>
		<contour>
			<point x="470" y="220" type="curve"/>
			<point x="484" y="551" type="line"/>
			<point x="512" y="558"/>
			<point x="534" y="560"/>
			<point x="570" y="560" type="curve" smooth="yes"/>
			<point x="661" y="560"/>
			<point x="711" y="507"/>
			<point x="711" y="410" type="curve" smooth="yes"/>
			<point x="711" y="278"/>
			<point x="656" y="210"/>
			<point x="546" y="210" type="curve" smooth="yes"/>
			<point x="520" y="210"/>
			<point x="494" y="214"/>
		</contour>
	</outline>
	<guideline x="828" y="855" angle="0"/>
</glyph>
<glyph name="Shcha-cy" format="2">
	<unicode hex="0429"/>
	<advance width="1220"/>
	<outline>
		<contour>
			<point x="256" y="63" type="line"/>
			<point x="277" y="637" type="line"/>
			<point x="369" y="654" type="line"/>
			<point x="376" y="700" type="line"/>
			<point x="102" y="700" type="line"/>
			<point x="95" y="654" type="line"/>
			<point x="189" y="637" type="line"/>
			<point x="166" y="59" type="line"/>
			<point x="77" y="46" type="line"/>
			<point x="71" y="0" type="line"/>
			<point x="1041" y="0" type="line" smooth="yes"/>
			<point x="1097" y="0"/>
			<point x="1114" y="-21"/>
			<point x="1114" y="-81" type="curve" smooth="yes"/>
			<point x="1114" y="-157" type="line"/>
			<point x="1168" y="-160" type="line"/>
			<point x="1200" y="63" type="line"/>
			<point x="1057" y="63" type="line"/>
			<point x="1079" y="637" type="line"/>
			<point x="1171" y="654" type="line"/>
			<point x="1177" y="700" type="line"/>
			<point x="904" y="700" type="line"/>
			<point x="898" y="654" type="line"/>
			<point x="991" y="637" type="line"/>
			<point x="969" y="63" type="line"/>
			<point x="657" y="63" type="line"/>
			<point x="678" y="637" type="line"/>
			<point x="770" y="654" type="line"/>
			<point x="776" y="700" type="line"/>
			<point x="503" y="700" type="line"/>
			<point x="497" y="654" type="line"/>
			<point x="590" y="637" type="line"/>
			<point x="568" y="63" type="line"/>
		</contour>
	</outline>
</glyph>
<glyph name="Hardsign-cy" format="2">
	<unicode hex="042A"/>
	<advance width="769"/>
	<outline>
		<contour>
			<point x="285" y="643" type="line"/>
			<point x="260" y="59" type="line"/>
			<point x="171" y="46" type="line"/>
			<point x="165" y="0" type="line"/>
			<point x="424" y="0" type="line" smooth="yes"/>
			<point x="627" y="0"/>
			<point x="737" y="91"/>
			<point x="737" y="228" type="curve" smooth="yes"/>
			<point x="737" y="329"/>
			<point x="660" y="399"/>
			<point x="524" y="399" type="curve" smooth="yes"/>
			<point x="488" y="399"/>
			<point x="460" y="398"/>
			<point x="402" y="390" type="curve"/>
			<point x="400" y="340" type="line"/>
			<point x="426" y="345"/>
			<point x="449" y="347"/>
			<point x="476" y="347" type="curve" smooth="yes"/>
			<point x="594" y="347"/>
			<point x="637" y="298"/>
			<point x="637" y="222" type="curve" smooth="yes"/>
			<point x="637" y="122"/>
			<point x="577" y="54"/>
			<point x="435" y="54" type="curve" smooth="yes"/>
			<point x="350" y="54" type="line"/>
			<point x="371" y="637" type="line"/>
			<point x="463" y="654" type="line"/>
			<point x="470" y="700" type="line"/>
			<point x="74" y="700" type="line"/>
			<point x="46" y="530" type="line"/>
			<point x="103" y="519" type="line"/>
			<point x="120" y="562" type="line" smooth="yes"/>
			<point x="147" y="629"/>
			<point x="163" y="643"/>
			<point x="226" y="643" type="curve" smooth="yes"/>
		</contour>
	</outline>
	<anchor name="top" x="278" y="730"/>
</glyph>
<glyph name="Yeru-cy" format="2">
	<unicode hex="042B"/>
	<advance width="982"/>
	<outline>
		<contour>
			<point x="185" y="637" type="line"/>
			<point x="160" y="59" type="line"/>
			<point x="71" y="46" type="line"/>
			<point x="65" y="0" type="line"/>
			<point x="324" y="0" type="line" smooth="yes"/>
			<point x="527" y="0"/>
			<point x="627" y="91"/>
			<point x="627" y="228" type="curve" smooth="yes"/>
			<point x="627" y="331"/>
			<point x="540" y="399"/>
			<point x="414" y="399" type="curve" smooth="yes"/>
			<point x="388" y="399"/>
			<point x="360" y="398"/>
			<point x="302" y="390" type="curve"/>
			<point x="300" y="340" type="line"/>
			<point x="326" y="345"/>
			<point x="349" y="347"/>
			<point x="380" y="347" type="curve" smooth="yes"/>
			<point x="476" y="347"/>
			<point x="527" y="300"/>
			<point x="527" y="221" type="curve" smooth="yes"/>
			<point x="527" y="122"/>
			<point x="477" y="54"/>
			<point x="335" y="54" type="curve" smooth="yes"/>
			<point x="250" y="54" type="line"/>
			<point x="271" y="637" type="line"/>
			<point x="363" y="654" type="line"/>
			<point x="370" y="700" type="line"/>
			<point x="98" y="700" type="line"/>
			<point x="92" y="654" type="line"/>
		</contour>
		<contour>
			<point x="768" y="637" type="line"/>
			<point x="743" y="59" type="line"/>
			<point x="654" y="46" type="line"/>
			<point x="648" y="0" type="line"/>
			<point x="930" y="0" type="line"/>
			<point x="936" y="46" type="line"/>
			<point x="833" y="59" type="line"/>
			<point x="854" y="637" type="line"/>
			<point x="946" y="654" type="line"/>
			<point x="953" y="700" type="line"/>
			<point x="681" y="700" type="line"/>
			<point x="675" y="654" type="line"/>
		</contour>
	</outline>
	<anchor name="top" x="525" y="730"/>
</glyph>
<glyph name="Softsign-cy" format="2">
	<unicode hex="042C"/>
	<advance width="672"/>
	<outline>
		<contour>
			<point x="188" y="637" type="line"/>
			<point x="163" y="59" type="line"/>
			<point x="74" y="46" type="line"/>
			<point x="68" y="0" type="line"/>
			<point x="327" y="0" type="line" smooth="yes"/>
			<point x="530" y="0"/>
			<point x="640" y="91"/>
			<point x="640" y="228" type="curve" smooth="yes"/>
			<point x="640" y="329"/>
			<point x="563" y="399"/>
			<point x="427" y="399" type="curve" smooth="yes"/>
			<point x="391" y="399"/>
			<point x="363" y="398"/>
			<point x="305" y="390" type="curve"/>
			<point x="303" y="340" type="line"/>
			<point x="329" y="345"/>
			<point x="352" y="347"/>
			<point x="379" y="347" type="curve" smooth="yes"/>
			<point x="497" y="347"/>
			<point x="540" y="298"/>
			<point x="540" y="222" type="curve" smooth="yes"/>
			<point x="540" y="122"/>
			<point x="480" y="54"/>
			<point x="338" y="54" type="curve" smooth="yes"/>
			<point x="253" y="54" type="line"/>
			<point x="274" y="637" type="line"/>
			<point x="366" y="654" type="line"/>
			<point x="373" y="700" type="line"/>
			<point x="101" y="700" type="line"/>
			<point x="95" y="654" type="line"/>
		</contour>
	</outline>
</glyph>
<glyph name="Iu-cy" format="2">
	<unicode hex="042E"/>
	<advance width="1128"/>
	<outline>
		<contour>
			<point x="266" y="328" type="line"/>
			<point x="437" y="328" type="line"/>
			<point x="443" y="122"/>
			<point x="568" y="-14"/>
			<point x="745" y="-14" type="curve" smooth="yes"/>
			<point x="938" y="-14"/>
			<point x="1078" y="143"/>
			<point x="1078" y="379" type="curve" smooth="yes"/>
			<point x="1078" y="586"/>
			<point x="955" y="715"/>
			<point x="776" y="715" type="curve" smooth="yes"/>
			<point x="586" y="715"/>
			<point x="461" y="586"/>
			<point x="440" y="391" type="curve"/>
			<point x="267" y="391" type="line"/>
			<point x="277" y="637" type="line"/>
			<point x="369" y="654" type="line"/>
			<point x="376" y="700" type="line"/>
			<point x="102" y="700" type="line"/>
			<point x="95" y="654" type="line"/>
			<point x="189" y="637" type="line"/>
			<point x="166" y="59" type="line"/>
			<point x="77" y="46" type="line"/>
			<point x="71" y="0" type="line"/>
			<point x="353" y="0" type="line"/>
			<point x="359" y="46" type="line"/>
			<point x="256" y="59" type="line"/>
		</contour>
		<contour>
			<point x="535" y="352" type="curve" smooth="yes"/>
			<point x="535" y="530"/>
			<point x="618" y="653"/>
			<point x="761" y="653" type="curve" smooth="yes"/>
			<point x="903" y="653"/>
			<point x="977" y="541"/>
			<point x="977" y="361" type="curve" smooth="yes"/>
			<point x="977" y="164"/>
			<point x="888" y="51"/>
			<point x="758" y="51" type="curve" smooth="yes"/>
			<point x="626" y="51"/>
			<point x="535" y="164"/>
		</contour>
	</outline>
	<anchor name="top" x="766" y="730"/>
</glyph>
<glyph name="be-cy" format="2">
	<unicode hex="0431"/>
	<advance width="562"/>
	<outline>
		<contour>
			<point x="256" y="-14" type="curve" smooth="yes"/>
			<point x="398" y="-14"/>
			<point x="515" y="125"/>
			<point x="515" y="322" type="curve" smooth="yes"/>
			<point x="515" y="456"/>
			<point x="466" y="532"/>
			<point x="355" y="532" type="curve" smooth="yes"/>
			<point x="276" y="532"/>
			<point x="193" y="489"/>
			<point x="155" y="351" type="curve" smooth="yes"/>
			<point x="128" y="254" type="line"/>
			<point x="119" y="256" type="line"/>
			<point x="119" y="374"/>
			<point x="160" y="533"/>
			<point x="233" y="585" type="curve" smooth="yes"/>
			<point x="262" y="606"/>
			<point x="295" y="615"/>
			<point x="430" y="627" type="curve" smooth="yes"/>
			<point x="487" y="632"/>
			<point x="513" y="666"/>
			<point x="526" y="768" type="curve"/>
			<point x="478" y="778" type="line"/>
			<point x="469" y="729"/>
			<point x="459" y="714"/>
			<point x="429" y="710" type="curve" smooth="yes"/>
			<point x="277" y="690"/>
			<point x="220" y="673"/>
			<point x="181" y="638" type="curve" smooth="yes"/>
			<point x="102" y="567"/>
			<point x="60" y="400"/>
			<point x="60" y="255" type="curve" smooth="yes"/>
			<point x="60" y="33"/>
			<point x="178" y="-14"/>
		</contour>
		<contour>
			<point x="342" y="462" type="curve" smooth="yes"/>
			<point x="403" y="462"/>
			<point x="422" y="402"/>
			<point x="422" y="325" type="curve" smooth="yes"/>
			<point x="422" y="169"/>
			<point x="354" y="48"/>
			<point x="264" y="48" type="curve" smooth="yes"/>
			<point x="192" y="48"/>
			<point x="160" y="129"/>
			<point x="165" y="204" type="curve"/>
			<point x="206" y="366"/>
			<point x="254" y="462"/>
		</contour>
	</outline>
</glyph>
<glyph name="ge-cy" format="2">
	<unicode hex="0433"/>
	<advance width="465"/>
	<outline>
		<contour>
			<point x="65" y="457" type="curve"/>
			<point x="90" y="409" type="line"/>
			<point x="137" y="436"/>
			<point x="207" y="464"/>
			<point x="242" y="464" type="curve" smooth="yes"/>
			<point x="272" y="464"/>
			<point x="295" y="438"/>
			<point x="295" y="405" type="curve" smooth="yes"/>
			<point x="295" y="367"/>
			<point x="261" y="332"/>
			<point x="203" y="286" type="curve" smooth="yes"/>
			<point x="141" y="237"/>
			<point x="59" y="170"/>
			<point x="59" y="122" type="curve" smooth="yes"/>
			<point x="59" y="64"/>
			<point x="108" y="-14"/>
			<point x="187" y="-14" type="curve" smooth="yes"/>
			<point x="242" y="-14"/>
			<point x="321" y="14"/>
			<point x="405" y="63" type="curve"/>
			<point x="386" y="111" type="line"/>
			<point x="299" y="74"/>
			<point x="244" y="56"/>
			<point x="217" y="56" type="curve" smooth="yes"/>
			<point x="178" y="56"/>
			<point x="153" y="89"/>
			<point x="153" y="126" type="curve" smooth="yes"/>
			<point x="153" y="163"/>
			<point x="209" y="213"/>
			<point x="275" y="264" type="curve" smooth="yes"/>
			<point x="326" y="303"/>
			<point x="392" y="364"/>
			<point x="392" y="408" type="curve" smooth="yes"/>
			<point x="392" y="484"/>
			<point x="332" y="532"/>
			<point x="268" y="532" type="curve" smooth="yes"/>
			<point x="211" y="532"/>
			<point x="117" y="495"/>
		</contour>
	</outline>
	<anchor name="top" x="248" y="550"/>
</glyph>
<glyph name="de-cy" format="2">
	<unicode hex="0434"/>
	<advance width="557"/>
	<outline>
		<contour>
			<point x="138" y="719" type="curve"/>
			<point x="160" y="668" type="line"/>
			<point x="213" y="693"/>
			<point x="256" y="706"/>
			<point x="308" y="706" type="curve" smooth="yes"/>
			<point x="359" y="706"/>
			<point x="389" y="695"/>
			<point x="404" y="591" type="curve" smooth="yes"/>
			<point x="408" y="563"/>
			<point x="409" y="535"/>
			<point x="409" y="501" type="curve"/>
			<point x="382" y="517"/>
			<point x="341" y="532"/>
			<point x="290" y="532" type="curve" smooth="yes"/>
			<point x="137" y="532"/>
			<point x="58" y="414"/>
			<point x="58" y="223" type="curve" smooth="yes"/>
			<point x="58" y="62"/>
			<point x="143" y="-14"/>
			<point x="253" y="-14" type="curve" smooth="yes"/>
			<point x="444" y="-14"/>
			<point x="501" y="198"/>
			<point x="501" y="484" type="curve" smooth="yes"/>
			<point x="501" y="684"/>
			<point x="445" y="769"/>
			<point x="333" y="769" type="curve" smooth="yes"/>
			<point x="264" y="769"/>
			<point x="197" y="747"/>
		</contour>
		<contour>
			<point x="261" y="40" type="curve" smooth="yes"/>
			<point x="193" y="40"/>
			<point x="151" y="103"/>
			<point x="151" y="220" type="curve" smooth="yes"/>
			<point x="151" y="356"/>
			<point x="196" y="471"/>
			<point x="291" y="471" type="curve" smooth="yes"/>
			<point x="332" y="471"/>
			<point x="369" y="461"/>
			<point x="408" y="441" type="curve"/>
			<point x="408" y="424"/>
			<point x="408" y="385"/>
			<point x="404" y="345" type="curve" smooth="yes"/>
			<point x="387" y="153"/>
			<point x="345" y="40"/>
		</contour>
	</outline>
</glyph>
<glyph name="ze-cy" format="2">
	<unicode hex="0437"/>
	<advance width="494"/>
	<outline>
		<contour>
			<point x="209" y="-14" type="curve" smooth="yes"/>
			<point x="363" y="-14"/>
			<point x="443" y="77"/>
			<point x="443" y="161" type="curve" smooth="yes"/>
			<point x="443" y="234"/>
			<point x="398" y="285"/>
			<point x="274" y="276" type="curve"/>
			<point x="274" y="281" type="line"/>
			<point x="356" y="295"/>
			<point x="423" y="348"/>
			<point x="423" y="425" type="curve" smooth="yes"/>
			<point x="423" y="485"/>
			<point x="375" y="532"/>
			<point x="274" y="532" type="curve" smooth="yes"/>
			<point x="192" y="532"/>
			<point x="117" y="502"/>
			<point x="70" y="418" type="curve"/>
			<point x="115" y="391" type="line"/>
			<point x="145" y="449"/>
			<point x="207" y="471"/>
			<point x="250" y="471" type="curve" smooth="yes"/>
			<point x="298" y="471"/>
			<point x="332" y="453"/>
			<point x="332" y="410" type="curve" smooth="yes"/>
			<point x="332" y="353"/>
			<point x="284" y="309"/>
			<point x="177" y="299" type="curve" smooth="yes"/>
			<point x="125" y="294" type="line"/>
			<point x="123" y="239" type="line"/>
			<point x="201" y="239" type="line" smooth="yes"/>
			<point x="257" y="239"/>
			<point x="350" y="232"/>
			<point x="350" y="155" type="curve" smooth="yes"/>
			<point x="350" y="95"/>
			<point x="306" y="37"/>
			<point x="224" y="37" type="curve" smooth="yes"/>
			<point x="174" y="37"/>
			<point x="141" y="55"/>
			<point x="148" y="88" type="curve" smooth="yes"/>
			<point x="160" y="147" type="line"/>
			<point x="142" y="153"/>
			<point x="122" y="157"/>
			<point x="106" y="157" type="curve" smooth="yes"/>
			<point x="68" y="157"/>
			<point x="46" y="129"/>
			<point x="46" y="92" type="curve" smooth="yes"/>
			<point x="46" y="30"/>
			<point x="110" y="-14"/>
		</contour>
	</outline>
</glyph>
<glyph name="em-cy" format="2">
	<unicode hex="043C"/>
	<advance width="792"/>
	<outline>
		<contour>
			<point x="384" y="-11" type="line"/>
			<point x="574" y="392" type="line"/>
			<point x="580" y="392" type="line"/>
			<point x="582" y="88" type="line" smooth="yes"/>
			<point x="582" y="18"/>
			<point x="600" y="-14"/>
			<point x="657" y="-14" type="curve" smooth="yes"/>
			<point x="687" y="-14"/>
			<point x="739" y="0"/>
			<point x="774" y="19" type="curve"/>
			<point x="757" y="65" type="line"/>
			<point x="725" y="52"/>
			<point x="711" y="48"/>
			<point x="698" y="48" type="curve" smooth="yes"/>
			<point x="677" y="48"/>
			<point x="669" y="56"/>
			<point x="669" y="88" type="curve" smooth="yes"/>
			<point x="664" y="519" type="line"/>
			<point x="580" y="519" type="line"/>
			<point x="405" y="152" type="line"/>
			<point x="400" y="152" type="line"/>
			<point x="324" y="453" type="line" smooth="yes"/>
			<point x="311" y="506"/>
			<point x="290" y="532"/>
			<point x="232" y="532" type="curve" smooth="yes"/>
			<point x="199" y="532"/>
			<point x="144" y="510"/>
			<point x="99" y="478" type="curve"/>
			<point x="126" y="431" type="line"/>
			<point x="163" y="452"/>
			<point x="185" y="461"/>
			<point x="201" y="461" type="curve" smooth="yes"/>
			<point x="215" y="461"/>
			<point x="225" y="454"/>
			<point x="233" y="435" type="curve"/>
			<point x="181" y="357"/>
			<point x="151" y="311"/>
			<point x="121" y="258" type="curve" smooth="yes"/>
			<point x="71" y="170"/>
			<point x="51" y="117"/>
			<point x="51" y="75" type="curve" smooth="yes"/>
			<point x="51" y="22"/>
			<point x="82" y="-14"/>
			<point x="127" y="-14" type="curve" smooth="yes"/>
			<point x="182" y="-14"/>
			<point x="212" y="30"/>
			<point x="197" y="87" type="curve"/>
			<point x="164" y="84" type="line" smooth="yes"/>
			<point x="144" y="82"/>
			<point x="128" y="93"/>
			<point x="128" y="121" type="curve" smooth="yes"/>
			<point x="128" y="164"/>
			<point x="166" y="243"/>
			<point x="249" y="365" type="curve"/>
			<point x="254" y="365" type="line"/>
			<point x="348" y="-11" type="line"/>
		</contour>
	</outline>
</glyph>
<glyph name="en-cy" format="2">
	<unicode hex="043D"/>
	<advance width="635"/>
	<outline>
		<contour>
			<point x="423" y="244" type="line"/>
			<point x="411" y="88" type="line" smooth="yes"/>
			<point x="406" y="18"/>
			<point x="429" y="-14"/>
			<point x="486" y="-14" type="curve" smooth="yes"/>
			<point x="517" y="-14"/>
			<point x="570" y="2"/>
			<point x="608" y="22" type="curve"/>
			<point x="590" y="69" type="line"/>
			<point x="560" y="57"/>
			<point x="540" y="51"/>
			<point x="525" y="51" type="curve" smooth="yes"/>
			<point x="501" y="51"/>
			<point x="494" y="63"/>
			<point x="496" y="91" type="curve" smooth="yes"/>
			<point x="530" y="519" type="line"/>
			<point x="446" y="519" type="line"/>
			<point x="427" y="298" type="line"/>
			<point x="210" y="298" type="line"/>
			<point x="214" y="335"/>
			<point x="218" y="382"/>
			<point x="221" y="430" type="curve" smooth="yes"/>
			<point x="225" y="499"/>
			<point x="203" y="532"/>
			<point x="146" y="532" type="curve" smooth="yes"/>
			<point x="112" y="532"/>
			<point x="55" y="515"/>
			<point x="23" y="499" type="curve"/>
			<point x="42" y="447" type="line"/>
			<point x="71" y="459"/>
			<point x="93" y="465"/>
			<point x="106" y="465" type="curve" smooth="yes"/>
			<point x="129" y="465"/>
			<point x="139" y="454"/>
			<point x="137" y="425" type="curve" smooth="yes"/>
			<point x="104" y="0" type="line"/>
			<point x="189" y="0" type="line"/>
			<point x="206" y="232" type="line"/>
		</contour>
	</outline>
</glyph>
<glyph name="tse-cy" format="2">
	<unicode hex="0446"/>
	<advance width="669"/>
	<outline>
		<contour>
			<point x="22" y="483" type="curve"/>
			<point x="46" y="441" type="line"/>
			<point x="67" y="456"/>
			<point x="93" y="466"/>
			<point x="108" y="466" type="curve" smooth="yes"/>
			<point x="132" y="466"/>
			<point x="137" y="454"/>
			<point x="134" y="423" type="curve" smooth="yes"/>
			<point x="108" y="153" type="line" smooth="yes"/>
			<point x="97" y="43"/>
			<point x="132" y="-14"/>
			<point x="218" y="-14" type="curve" smooth="yes"/>
			<point x="297" y="-14"/>
			<point x="345" y="30"/>
			<point x="382" y="140" type="curve" smooth="yes"/>
			<point x="464" y="384" type="line"/>
			<point x="473" y="382" type="line"/>
			<point x="435" y="88" type="line" smooth="yes"/>
			<point x="428" y="30"/>
			<point x="441" y="-14"/>
			<point x="494" y="-14" type="curve" smooth="yes"/>
			<point x="519" y="-14"/>
			<point x="537" y="-1"/>
			<point x="551" y="15" type="curve"/>
			<point x="556" y="14" type="line"/>
			<point x="550" y="-41"/>
			<point x="516" y="-116"/>
			<point x="480" y="-163" type="curve"/>
			<point x="519" y="-195" type="line"/>
			<point x="579" y="-143"/>
			<point x="650" y="-5"/>
			<point x="654" y="68" type="curve"/>
			<point x="595" y="84" type="line"/>
			<point x="578" y="66"/>
			<point x="560" y="53"/>
			<point x="542" y="53" type="curve" smooth="yes"/>
			<point x="526" y="53"/>
			<point x="517" y="64"/>
			<point x="519" y="93" type="curve" smooth="yes"/>
			<point x="542" y="519" type="line"/>
			<point x="459" y="519" type="line"/>
			<point x="335" y="180" type="line" smooth="yes"/>
			<point x="299" y="83"/>
			<point x="276" y="60"/>
			<point x="236" y="60" type="curve" smooth="yes"/>
			<point x="196" y="60"/>
			<point x="189" y="88"/>
			<point x="195" y="153" type="curve" smooth="yes"/>
			<point x="224" y="449" type="line" smooth="yes"/>
			<point x="229" y="504"/>
			<point x="202" y="532"/>
			<point x="147" y="532" type="curve" smooth="yes"/>
			<point x="102" y="532"/>
			<point x="47" y="504"/>
		</contour>
	</outline>
</glyph>
<glyph name="shcha-cy" format="2">
	<unicode hex="0449"/>
	<advance width="988"/>
	<outline>
		<contour>
			<point x="29" y="499" type="curve"/>
			<point x="48" y="447" type="line"/>
			<point x="78" y="459"/>
			<point x="99" y="465"/>
			<point x="112" y="465" type="curve" smooth="yes"/>
			<point x="135" y="465"/>
			<point x="141" y="454"/>
			<point x="138" y="425" type="curve" smooth="yes"/>
			<point x="115" y="159" type="line" smooth="yes"/>
			<point x="105" y="44"/>
			<point x="134" y="-14"/>
			<point x="225" y="-14" type="curve" smooth="yes"/>
			<point x="309" y="-14"/>
			<point x="347" y="35"/>
			<point x="382" y="140" type="curve" smooth="yes"/>
			<point x="467" y="392" type="line"/>
			<point x="475" y="390" type="line"/>
			<point x="463" y="310"/>
			<point x="451" y="230"/>
			<point x="443" y="150" type="curve" smooth="yes"/>
			<point x="432" y="42"/>
			<point x="458" y="-14"/>
			<point x="547" y="-14" type="curve" smooth="yes"/>
			<point x="623" y="-14"/>
			<point x="656" y="29"/>
			<point x="694" y="140" type="curve" smooth="yes"/>
			<point x="780" y="392" type="line"/>
			<point x="788" y="390" type="line"/>
			<point x="776" y="282"/>
			<point x="763" y="175"/>
			<point x="751" y="67" type="curve" smooth="yes"/>
			<point x="745" y="18"/>
			<point x="773" y="-14"/>
			<point x="809" y="-14" type="curve" smooth="yes"/>
			<point x="837" y="-14"/>
			<point x="856" y="-1"/>
			<point x="870" y="15" type="curve"/>
			<point x="875" y="14" type="line"/>
			<point x="869" y="-41"/>
			<point x="834" y="-117"/>
			<point x="799" y="-163" type="curve"/>
			<point x="838" y="-195" type="line"/>
			<point x="899" y="-141"/>
			<point x="969" y="-5"/>
			<point x="973" y="68" type="curve"/>
			<point x="913" y="84" type="line"/>
			<point x="901" y="67"/>
			<point x="882" y="52"/>
			<point x="862" y="52" type="curve" smooth="yes"/>
			<point x="843" y="52"/>
			<point x="836" y="62"/>
			<point x="837" y="93" type="curve" smooth="yes"/>
			<point x="857" y="518" type="line"/>
			<point x="770" y="518" type="line"/>
			<point x="641" y="177" type="line" smooth="yes"/>
			<point x="603" y="76"/>
			<point x="597" y="60"/>
			<point x="564" y="60" type="curve" smooth="yes"/>
			<point x="529" y="60"/>
			<point x="512" y="82"/>
			<point x="518" y="153" type="curve" smooth="yes"/>
			<point x="549" y="518" type="line"/>
			<point x="462" y="518" type="line"/>
			<point x="329" y="177" type="line" smooth="yes"/>
			<point x="295" y="89"/>
			<point x="281" y="60"/>
			<point x="244" y="60" type="curve" smooth="yes"/>
			<point x="207" y="60"/>
			<point x="197" y="82"/>
			<point x="203" y="153" type="curve" smooth="yes"/>
			<point x="227" y="439" type="line" smooth="yes"/>
			<point x="232" y="494"/>
			<point x="218" y="532"/>
			<point x="152" y="532" type="curve" smooth="yes"/>
			<point x="109" y="532"/>
			<point x="52" y="511"/>
		</contour>
	</outline>
</glyph>
<glyph name="yeru-cy" format="2">
	<unicode hex="044B"/>
	<advance width="761"/>
	<outline>
		<contour>
			<point x="251" y="-14" type="curve" smooth="yes"/>
			<point x="377" y="-14"/>
			<point x="466" y="78"/>
			<point x="466" y="201" type="curve" smooth="yes"/>
			<point x="466" y="282"/>
			<point x="418" y="327"/>
			<point x="348" y="327" type="curve" smooth="yes"/>
			<point x="298" y="327"/>
			<point x="246" y="312"/>
			<point x="200" y="292" type="curve"/>
			<point x="213" y="365"/>
			<point x="223" y="427"/>
			<point x="223" y="456" type="curve" smooth="yes"/>
			<point x="223" y="490"/>
			<point x="214" y="532"/>
			<point x="148" y="532" type="curve" smooth="yes"/>
			<point x="105" y="532"/>
			<point x="46" y="511"/>
			<point x="23" y="499" type="curve"/>
			<point x="42" y="447" type="line"/>
			<point x="72" y="459"/>
			<point x="93" y="465"/>
			<point x="106" y="465" type="curve" smooth="yes"/>
			<point x="129" y="465"/>
			<point x="139" y="450"/>
			<point x="135" y="425" type="curve" smooth="yes"/>
			<point x="118" y="316"/>
			<point x="97" y="175"/>
			<point x="97" y="136" type="curve" smooth="yes"/>
			<point x="97" y="42"/>
			<point x="148" y="-14"/>
		</contour>
		<contour>
			<point x="262" y="40" type="curve" smooth="yes"/>
			<point x="210" y="40"/>
			<point x="184" y="71"/>
			<point x="184" y="136" type="curve" smooth="yes"/>
			<point x="184" y="167"/>
			<point x="190" y="211"/>
			<point x="194" y="240" type="curve"/>
			<point x="237" y="258"/>
			<point x="275" y="268"/>
			<point x="305" y="268" type="curve" smooth="yes"/>
			<point x="355" y="268"/>
			<point x="372" y="244"/>
			<point x="372" y="188" type="curve" smooth="yes"/>
			<point x="372" y="102"/>
			<point x="332" y="40"/>
		</contour>
		<contour>
			<point x="612" y="-14" type="curve" smooth="yes"/>
			<point x="644" y="-14"/>
			<point x="702" y="1"/>
			<point x="733" y="19" type="curve"/>
			<point x="715" y="68" type="line"/>
			<point x="680" y="55"/>
			<point x="662" y="51"/>
			<point x="651" y="51" type="curve" smooth="yes"/>
			<point x="627" y="51"/>
			<point x="619" y="63"/>
			<point x="621" y="91" type="curve" smooth="yes"/>
			<point x="656" y="519" type="line"/>
			<point x="572" y="519" type="line"/>
			<point x="537" y="88" type="line" smooth="yes"/>
			<point x="531" y="15"/>
			<point x="557" y="-14"/>
		</contour>
	</outline>
	<anchor name="top" x="388" y="550"/>
</glyph>
<glyph name="softsign-cy" format="2">
	<unicode hex="044C"/>
	<advance width="517"/>
	<outline>
		<contour>
			<point x="201" y="291" type="curve"/>
			<point x="214" y="364"/>
			<point x="224" y="427"/>
			<point x="224" y="456" type="curve" smooth="yes"/>
			<point x="224" y="490"/>
			<point x="214" y="532"/>
			<point x="148" y="532" type="curve" smooth="yes"/>
			<point x="105" y="532"/>
			<point x="46" y="511"/>
			<point x="23" y="499" type="curve"/>
			<point x="42" y="447" type="line"/>
			<point x="72" y="459"/>
			<point x="93" y="465"/>
			<point x="106" y="465" type="curve" smooth="yes"/>
			<point x="129" y="465"/>
			<point x="139" y="450"/>
			<point x="135" y="425" type="curve" smooth="yes"/>
			<point x="117" y="316"/>
			<point x="98" y="175"/>
			<point x="98" y="136" type="curve" smooth="yes"/>
			<point x="98" y="42"/>
			<point x="149" y="-14"/>
			<point x="252" y="-14" type="curve" smooth="yes"/>
			<point x="378" y="-14"/>
			<point x="481" y="78"/>
			<point x="481" y="201" type="curve" smooth="yes"/>
			<point x="481" y="282"/>
			<point x="439" y="327"/>
			<point x="352" y="327" type="curve" smooth="yes"/>
			<point x="309" y="327"/>
			<point x="247" y="309"/>
		</contour>
		<contour>
			<point x="195" y="240" type="curve"/>
			<point x="238" y="258"/>
			<point x="286" y="269"/>
			<point x="313" y="269" type="curve" smooth="yes"/>
			<point x="368" y="269"/>
			<point x="387" y="244"/>
			<point x="387" y="188" type="curve" smooth="yes"/>
			<point x="387" y="102"/>
			<point x="335" y="40"/>
			<point x="263" y="40" type="curve" smooth="yes"/>
			<point x="211" y="40"/>
			<point x="185" y="71"/>
			<point x="185" y="136" type="curve" smooth="yes"/>
			<point x="185" y="167"/>
			<point x="191" y="211"/>
		</contour>
	</outline>
</glyph>
<glyph name="ereversed-cy" format="2">
	<unicode hex="044D"/>
	<advance width="527"/>
	<outline>
		<contour>
			<point x="150" y="99" type="curve" smooth="yes"/>
			<point x="159" y="145" type="line"/>
			<point x="143" y="153"/>
			<point x="125" y="158"/>
			<point x="105" y="158" type="curve" smooth="yes"/>
			<point x="71" y="158"/>
			<point x="45" y="136"/>
			<point x="45" y="98" type="curve" smooth="yes"/>
			<point x="45" y="29"/>
			<point x="116" y="-14"/>
			<point x="209" y="-14" type="curve" smooth="yes"/>
			<point x="365" y="-14"/>
			<point x="469" y="110"/>
			<point x="469" y="281" type="curve" smooth="yes"/>
			<point x="469" y="420"/>
			<point x="394" y="532"/>
			<point x="258" y="532" type="curve" smooth="yes"/>
			<point x="149" y="532"/>
			<point x="90" y="467"/>
			<point x="63" y="415" type="curve"/>
			<point x="109" y="387" type="line"/>
			<point x="144" y="440"/>
			<point x="187" y="463"/>
			<point x="239" y="463" type="curve" smooth="yes"/>
			<point x="323" y="463"/>
			<point x="367" y="392"/>
			<point x="371" y="296" type="curve"/>
			<point x="127" y="296" type="line"/>
			<point x="122" y="233" type="line"/>
			<point x="370" y="242" type="line"/>
			<point x="361" y="109"/>
			<point x="301" y="39"/>
			<point x="211" y="39" type="curve" smooth="yes"/>
			<point x="161" y="39"/>
			<point x="143" y="61"/>
		</contour>
	</outline>
	<anchor name="top" x="260" y="550"/>
</glyph>
<glyph name="ia-cy" format="2">
	<unicode hex="044F"/>
	<advance width="568"/>
	<outline>
		<contour>
			<point x="356" y="241" type="curve"/>
			<point x="345" y="88" type="line" smooth="yes"/>
			<point x="340" y="19"/>
			<point x="364" y="-14"/>
			<point x="423" y="-14" type="curve" smooth="yes"/>
			<point x="457" y="-14"/>
			<point x="500" y="5"/>
			<point x="541" y="34" type="curve"/>
			<point x="515" y="77" type="line"/>
			<point x="492" y="62"/>
			<point x="474" y="53"/>
			<point x="459" y="53" type="curve" smooth="yes"/>
			<point x="441" y="53"/>
			<point x="430" y="62"/>
			<point x="432" y="91" type="curve" smooth="yes"/>
			<point x="461" y="524" type="line"/>
			<point x="444" y="532" type="line"/>
			<point x="381" y="514" type="line"/>
			<point x="344" y="527"/>
			<point x="321" y="532"/>
			<point x="287" y="532" type="curve" smooth="yes"/>
			<point x="166" y="532"/>
			<point x="79" y="456"/>
			<point x="79" y="359" type="curve" smooth="yes"/>
			<point x="79" y="276"/>
			<point x="149" y="237"/>
			<point x="220" y="228" type="curve"/>
			<point x="212" y="223" type="line"/>
			<point x="92" y="155"/>
			<point x="49" y="104"/>
			<point x="49" y="48" type="curve" smooth="yes"/>
			<point x="49" y="13"/>
			<point x="72" y="-14"/>
			<point x="118" y="-14" type="curve" smooth="yes"/>
			<point x="158" y="-14"/>
			<point x="185" y="17"/>
			<point x="192" y="58" type="curve"/>
			<point x="165" y="68" type="line" smooth="yes"/>
			<point x="154" y="72"/>
			<point x="148" y="83"/>
			<point x="148" y="92" type="curve" smooth="yes"/>
			<point x="148" y="124"/>
			<point x="209" y="170"/>
		</contour>
		<contour>
			<point x="370" y="464" type="curve"/>
			<point x="360" y="306" type="line"/>
			<point x="320" y="282"/>
			<point x="297" y="271"/>
			<point x="277" y="271" type="curve" smooth="yes"/>
			<point x="223" y="271"/>
			<point x="173" y="304"/>
			<point x="173" y="368" type="curve" smooth="yes"/>
			<point x="173" y="437"/>
			<point x="219" y="478"/>
			<point x="291" y="478" type="curve" smooth="yes"/>
			<point x="319" y="478"/>
			<point x="332" y="476"/>
		</contour>
	</outline>
	<anchor name="top" x="300" y="550"/>
</glyph>
<glyph name="e-cy" format="2">
	<unicode hex="0454"/>
	<advance width="544"/>
	<outline>
		<contour>
			<point x="318" y="532" type="curve" smooth="yes"/>
			<point x="162" y="532"/>
			<point x="58" y="408"/>
			<point x="58" y="237" type="curve" smooth="yes"/>
			<point x="58" y="98"/>
			<point x="133" y="-14"/>
			<point x="269" y="-14" type="curve" smooth="yes"/>
			<point x="380" y="-14"/>
			<point x="443" y="46"/>
			<point x="470" y="82" type="curve"/>
			<point x="432" y="121" type="line"/>
			<point x="381" y="73"/>
			<point x="340" y="55"/>
			<point x="288" y="55" type="curve" smooth="yes"/>
			<point x="203" y="55"/>
			<point x="160" y="132"/>
			<point x="156" y="225" type="curve"/>
			<point x="392" y="225" type="line"/>
			<point x="397" y="288" type="line"/>
			<point x="157" y="280" type="line"/>
			<point x="167" y="410"/>
			<point x="227" y="472"/>
			<point x="316" y="472" type="curve" smooth="yes"/>
			<point x="372" y="472"/>
			<point x="415" y="448"/>
			<point x="374" y="403" type="curve" smooth="yes"/>
			<point x="352" y="379" type="line"/>
			<point x="363" y="355"/>
			<point x="385" y="333"/>
			<point x="418" y="333" type="curve" smooth="yes"/>
			<point x="461" y="333"/>
			<point x="482" y="362"/>
			<point x="482" y="401" type="curve" smooth="yes"/>
			<point x="482" y="484"/>
			<point x="411" y="532"/>
		</contour>
	</outline>
</glyph>
<glyph name="nje-cy" format="2">
	<unicode hex="045A"/>
	<advance width="823"/>
	<outline>
		<contour>
			<point x="520" y="519" type="line"/>
			<point x="435" y="519" type="line"/>
			<point x="416" y="298" type="line"/>
			<point x="210" y="298" type="line"/>
			<point x="214" y="335"/>
			<point x="218" y="382"/>
			<point x="221" y="430" type="curve" smooth="yes"/>
			<point x="225" y="499"/>
			<point x="203" y="532"/>
			<point x="146" y="532" type="curve" smooth="yes"/>
			<point x="112" y="532"/>
			<point x="55" y="515"/>
			<point x="23" y="499" type="curve"/>
			<point x="42" y="449" type="line"/>
			<point x="71" y="461"/>
			<point x="93" y="467"/>
			<point x="106" y="467" type="curve" smooth="yes"/>
			<point x="129" y="467"/>
			<point x="139" y="456"/>
			<point x="137" y="427" type="curve" smooth="yes"/>
			<point x="104" y="0" type="line"/>
			<point x="189" y="0" type="line"/>
			<point x="206" y="232" type="line"/>
			<point x="411" y="243" type="line"/>
			<point x="407" y="192"/>
			<point x="404" y="151"/>
			<point x="404" y="134" type="curve" smooth="yes"/>
			<point x="404" y="42"/>
			<point x="455" y="-14"/>
			<point x="558" y="-14" type="curve" smooth="yes"/>
			<point x="684" y="-14"/>
			<point x="787" y="78"/>
			<point x="787" y="201" type="curve" smooth="yes"/>
			<point x="787" y="282"/>
			<point x="745" y="327"/>
			<point x="658" y="327" type="curve" smooth="yes"/>
			<point x="612" y="327"/>
			<point x="546" y="310"/>
			<point x="500" y="292" type="curve"/>
		</contour>
		<contour>
			<point x="495" y="240" type="curve"/>
			<point x="537" y="258"/>
			<point x="587" y="269"/>
			<point x="619" y="269" type="curve" smooth="yes"/>
			<point x="674" y="269"/>
			<point x="693" y="244"/>
			<point x="693" y="188" type="curve" smooth="yes"/>
			<point x="693" y="102"/>
			<point x="641" y="40"/>
			<point x="570" y="40" type="curve" smooth="yes"/>
			<point x="515" y="40"/>
			<point x="488" y="74"/>
			<point x="488" y="135" type="curve" smooth="yes"/>
			<point x="488" y="170"/>
			<point x="492" y="211"/>
		</contour>
	</outline>
</glyph>
<glyph name="tshe-cy" format="2">
	<unicode hex="045B"/>
	<advance width="663"/>
	<outline>
		<contour>
			<point x="399" y="579" type="line"/>
			<point x="404" y="636" type="line"/>
			<point x="221" y="636" type="line"/>
			<point x="226" y="756" type="line"/>
			<point x="209" y="767" type="line"/>
			<point x="43" y="767" type="line"/>
			<point x="37" y="719" type="line"/>
			<point x="138" y="698" type="line"/>
			<point x="135" y="636" type="line"/>
			<point x="37" y="636" type="line"/>
			<point x="33" y="579" type="line"/>
			<point x="133" y="579" type="line"/>
			<point x="113" y="0" type="line"/>
			<point x="196" y="0" type="line"/>
			<point x="323" y="330" type="line" smooth="yes"/>
			<point x="357" y="419"/>
			<point x="373" y="447"/>
			<point x="418" y="447" type="curve" smooth="yes"/>
			<point x="455" y="447"/>
			<point x="468" y="421"/>
			<point x="462" y="354" type="curve" smooth="yes"/>
			<point x="436" y="69" type="line" smooth="yes"/>
			<point x="431" y="14"/>
			<point x="457" y="-14"/>
			<point x="513" y="-14" type="curve" smooth="yes"/>
			<point x="550" y="-14"/>
			<point x="607" y="9"/>
			<point x="638" y="35" type="curve"/>
			<point x="613" y="71" type="line"/>
			<point x="595" y="56"/>
			<point x="569" y="47"/>
			<point x="551" y="47" type="curve" smooth="yes"/>
			<point x="528" y="47"/>
			<point x="523" y="57"/>
			<point x="526" y="90" type="curve" smooth="yes"/>
			<point x="549" y="348" type="line" smooth="yes"/>
			<point x="560" y="469"/>
			<point x="529" y="521"/>
			<point x="439" y="521" type="curve" smooth="yes"/>
			<point x="360" y="521"/>
			<point x="315" y="479"/>
			<point x="274" y="367" type="curve" smooth="yes"/>
			<point x="195" y="150" type="line"/>
			<point x="187" y="152" type="line"/>
			<point x="212" y="409" type="line"/>
			<point x="219" y="579" type="line"/>
		</contour>
	</outline>
</glyph>
<glyph name="Yat-cy" format="2">
	<unicode hex="0462"/>
	<advance width="778"/>
	<outline>
		<contour>
			<point x="290" y="556" type="line"/>
			<point x="269" y="59" type="line"/>
			<point x="180" y="46" type="line"/>
			<point x="174" y="0" type="line"/>
			<point x="433" y="0" type="line" smooth="yes"/>
			<point x="636" y="0"/>
			<point x="746" y="91"/>
			<point x="746" y="228" type="curve" smooth="yes"/>
			<point x="746" y="329"/>
			<point x="669" y="399"/>
			<point x="533" y="399" type="curve" smooth="yes"/>
			<point x="497" y="399"/>
			<point x="469" y="398"/>
			<point x="411" y="390" type="curve"/>
			<point x="409" y="340" type="line"/>
			<point x="435" y="345"/>
			<point x="458" y="347"/>
			<point x="485" y="347" type="curve" smooth="yes"/>
			<point x="603" y="347"/>
			<point x="646" y="298"/>
			<point x="646" y="222" type="curve" smooth="yes"/>
			<point x="646" y="122"/>
			<point x="586" y="54"/>
			<point x="444" y="54" type="curve" smooth="yes"/>
			<point x="359" y="54" type="line"/>
			<point x="377" y="556" type="line"/>
			<point x="472" y="556" type="line" smooth="yes"/>
			<point x="532" y="556"/>
			<point x="553" y="533"/>
			<point x="572" y="483" type="curve" smooth="yes"/>
			<point x="587" y="444" type="line"/>
			<point x="644" y="454" type="line"/>
			<point x="631" y="613" type="line"/>
			<point x="379" y="613" type="line"/>
			<point x="381" y="677" type="line"/>
			<point x="473" y="694" type="line"/>
			<point x="480" y="740" type="line"/>
			<point x="208" y="740" type="line"/>
			<point x="202" y="694" type="line"/>
			<point x="295" y="677" type="line"/>
			<point x="292" y="613" type="line"/>
			<point x="70" y="613" type="line"/>
			<point x="45" y="447" type="line"/>
			<point x="104" y="436" type="line"/>
			<point x="118" y="475" type="line" smooth="yes"/>
			<point x="142" y="543"/>
			<point x="161" y="556"/>
			<point x="224" y="556" type="curve" smooth="yes"/>
		</contour>
	</outline>
</glyph>
<glyph name="yusbig-cy" format="2">
	<unicode hex="046B"/>
	<advance width="729"/>
	<outline>
		<contour>
			<point x="643" y="478" type="line"/>
			<point x="646" y="518" type="line"/>
			<point x="120" y="518" type="line"/>
			<point x="106" y="477" type="line"/>
			<point x="169" y="460" type="line"/>
			<point x="275" y="276" type="line"/>
			<point x="257" y="267"/>
			<point x="202" y="237"/>
			<point x="161" y="213" type="curve" smooth="yes"/>
			<point x="72" y="161"/>
			<point x="29" y="108"/>
			<point x="29" y="56" type="curve" smooth="yes"/>
			<point x="29" y="14"/>
			<point x="59" y="-14"/>
			<point x="101" y="-14" type="curve" smooth="yes"/>
			<point x="140" y="-14"/>
			<point x="172" y="19"/>
			<point x="175" y="59" type="curve"/>
			<point x="145" y="75" type="line" smooth="yes"/>
			<point x="132" y="82"/>
			<point x="127" y="88"/>
			<point x="127" y="100" type="curve" smooth="yes"/>
			<point x="127" y="127"/>
			<point x="171" y="163"/>
			<point x="305" y="233" type="curve"/>
			<point x="290" y="0" type="line"/>
			<point x="375" y="0" type="line"/>
			<point x="391" y="208" type="line"/>
			<point x="419" y="244" type="line"/>
			<point x="446" y="202"/>
			<point x="471" y="161"/>
			<point x="501" y="114" type="curve" smooth="yes"/>
			<point x="570" y="6"/>
			<point x="585" y="-14"/>
			<point x="618" y="-14" type="curve" smooth="yes"/>
			<point x="645" y="-14"/>
			<point x="686" y="9"/>
			<point x="729" y="62" type="curve"/>
			<point x="697" y="99" type="line"/>
			<point x="678" y="80"/>
			<point x="661" y="70"/>
			<point x="649" y="70" type="curve" smooth="yes"/>
			<point x="635" y="70"/>
			<point x="622" y="86"/>
			<point x="581" y="153" type="curve" smooth="yes"/>
			<point x="537" y="225"/>
			<point x="501" y="278"/>
			<point x="472" y="318" type="curve"/>
			<point x="581" y="463" type="line"/>
		</contour>
		<contour>
			<point x="374" y="273" type="line"/>
			<point x="262" y="465" type="line"/>
			<point x="518" y="465" type="line"/>
			<point x="379" y="273" type="line"/>
		</contour>
	</outline>
</glyph>
<glyph name="ghestroke-cy" format="2">
	<unicode hex="0493"/>
	<advance width="492"/>
	<outline>
		<contour>
			<point x="429" y="239" type="line"/>
			<point x="434" y="289" type="line"/>
			<point x="326" y="289" type="line"/>
			<point x="369" y="326"/>
			<point x="412" y="373"/>
			<point x="412" y="408" type="curve" smooth="yes"/>
			<point x="412" y="484"/>
			<point x="352" y="532"/>
			<point x="288" y="532" type="curve" smooth="yes"/>
			<point x="231" y="532"/>
			<point x="137" y="495"/>
			<point x="85" y="457" type="curve"/>
			<point x="110" y="409" type="line"/>
			<point x="157" y="436"/>
			<point x="227" y="464"/>
			<point x="262" y="464" type="curve" smooth="yes"/>
			<point x="292" y="464"/>
			<point x="315" y="438"/>
			<point x="315" y="405" type="curve" smooth="yes"/>
			<point x="315" y="368"/>
			<point x="282" y="334"/>
			<point x="227" y="289" type="curve"/>
			<point x="73" y="289" type="line"/>
			<point x="66" y="239" type="line"/>
			<point x="166" y="239" type="line"/>
			<point x="120" y="199"/>
			<point x="79" y="156"/>
			<point x="79" y="122" type="curve" smooth="yes"/>
			<point x="79" y="64"/>
			<point x="128" y="-14"/>
			<point x="207" y="-14" type="curve" smooth="yes"/>
			<point x="262" y="-14"/>
			<point x="341" y="14"/>
			<point x="425" y="63" type="curve"/>
			<point x="406" y="111" type="line"/>
			<point x="319" y="74"/>
			<point x="264" y="56"/>
			<point x="237" y="56" type="curve" smooth="yes"/>
			<point x="198" y="56"/>
			<point x="173" y="89"/>
			<point x="173" y="126" type="curve" smooth="yes"/>
			<point x="173" y="157"/>
			<point x="212" y="197"/>
			<point x="263" y="239" type="curve"/>
		</contour>
	</outline>
</glyph>
<glyph name="zhedescender-cy" format="2">
	<unicode hex="0497"/>
	<advance width="856"/>
	<outline>
		<contour>
			<point x="434" y="212" type="line"/>
			<point x="469" y="519" type="line"/>
			<point x="382" y="519" type="line"/>
			<point x="368" y="358" type="line"/>
			<point x="295" y="305" type="line"/>
			<point x="271" y="359"/>
			<point x="252" y="410"/>
			<point x="225" y="464" type="curve" smooth="yes"/>
			<point x="195" y="525"/>
			<point x="185" y="532"/>
			<point x="155" y="532" type="curve" smooth="yes"/>
			<point x="124" y="532"/>
			<point x="77" y="506"/>
			<point x="29" y="457" type="curve"/>
			<point x="60" y="423" type="line"/>
			<point x="92" y="449"/>
			<point x="104" y="455"/>
			<point x="117" y="455" type="curve" smooth="yes"/>
			<point x="132" y="455"/>
			<point x="142" y="444"/>
			<point x="156" y="415" type="curve" smooth="yes"/>
			<point x="185" y="354"/>
			<point x="208" y="301"/>
			<point x="225" y="255" type="curve"/>
			<point x="98" y="165"/>
			<point x="51" y="108"/>
			<point x="51" y="50" type="curve" smooth="yes"/>
			<point x="51" y="14"/>
			<point x="82" y="-14"/>
			<point x="121" y="-14" type="curve" smooth="yes"/>
			<point x="164" y="-14"/>
			<point x="193" y="18"/>
			<point x="198" y="57" type="curve"/>
			<point x="168" y="71" type="line" smooth="yes"/>
			<point x="157" y="76"/>
			<point x="150" y="84"/>
			<point x="150" y="98" type="curve" smooth="yes"/>
			<point x="150" y="126"/>
			<point x="187" y="163"/>
			<point x="362" y="291" type="curve"/>
			<point x="344" y="0" type="line"/>
			<point x="430" y="0" type="line"/>
			<point x="437" y="104" type="line"/>
			<point x="451" y="131"/>
			<point x="479" y="177"/>
			<point x="519" y="239" type="curve"/>
			<point x="559" y="171"/>
			<point x="602" y="99"/>
			<point x="637" y="46" type="curve" smooth="yes"/>
			<point x="670" y="-4"/>
			<point x="685" y="-13"/>
			<point x="706" y="-13" type="curve" smooth="yes"/>
			<point x="723" y="-13"/>
			<point x="740" y="-4"/>
			<point x="755" y="15" type="curve"/>
			<point x="758" y="14" type="line"/>
			<point x="752" y="-41"/>
			<point x="718" y="-116"/>
			<point x="682" y="-163" type="curve"/>
			<point x="721" y="-195" type="line"/>
			<point x="781" y="-143"/>
			<point x="852" y="-5"/>
			<point x="856" y="68" type="curve"/>
			<point x="804" y="87" type="line"/>
			<point x="791" y="72"/>
			<point x="772" y="62"/>
			<point x="758" y="62" type="curve" smooth="yes"/>
			<point x="736" y="62"/>
			<point x="720" y="79"/>
			<point x="677" y="146" type="curve" smooth="yes"/>
			<point x="650" y="188"/>
			<point x="598" y="268"/>
			<point x="568" y="312" type="curve"/>
			<point x="598" y="362"/>
			<point x="620" y="389"/>
			<point x="637" y="407" type="curve" smooth="yes"/>
			<point x="677" y="450"/>
			<point x="693" y="443"/>
			<point x="708" y="424" type="curve" smooth="yes"/>
			<point x="729" y="398" type="line"/>
			<point x="765" y="409"/>
			<point x="789" y="439"/>
			<point x="789" y="473" type="curve" smooth="yes"/>
			<point x="789" y="506"/>
			<point x="760" y="532"/>
			<point x="725" y="532" type="curve" smooth="yes"/>
			<point x="676" y="532"/>
			<point x="640" y="509"/>
			<point x="593" y="446" type="curve" smooth="yes"/>
			<point x="556" y="396"/>
			<point x="502" y="316"/>
			<point x="442" y="211" type="curve"/>
		</contour>
	</outline>
</glyph>
